<svg xmlns="http://www.w3.org/2000/svg" width="512" height="512" style="shape-rendering:geometricPrecision;text-rendering:geometricPrecision;image-rendering:optimizeQuality;fill-rule:evenodd;clip-rule:evenodd"><path d="M511.5 330.5v33c-12.99 10.511-27.99 15.678-45 15.5-49 .667-98 .667-147 0-11.557-.973-22.557-3.973-33-9l-40-20a5854.036 5854.036 0 0 1-87-55 205.993 205.993 0 0 1-17-9c-13.997-7.934-22.164-4.1-24.5 11.5a461.346 461.346 0 0 0-2 15c-.4 18.675-.4 37.342 0 56l-9 14a555.283 555.283 0 0 1-57.5.5c-6.847-44.889-18.014-88.722-33.5-131.5-8.286-11.896-13.786-24.896-16.5-39v-24c4.269-21.874 13.435-41.541 27.5-59 .804-1.304 1.97-1.971 3.5-2a8036.953 8036.953 0 0 0 149 56.5c13.027 1.163 25.693-.504 38-5a853.399 853.399 0 0 1 44-34c9.366-2.23 15.866 1.27 19.5 10.5 1.85 3.037 1.85 6.037 0 9a268.433 268.433 0 0 1-18 21 26.724 26.724 0 0 1-1.5 7 558.963 558.963 0 0 0-23 16.5c24.313 33.996 57.313 53.329 99 58 16.979 2.18 33.979 4.18 51 6a411.656 411.656 0 0 0 37 14 1063.294 1063.294 0 0 0 59 11c13.997 6.818 22.997 17.651 27 32.5Zm-278-113c25.705 29.53 58.038 47.697 97 54.5l48 6a14.972 14.972 0 0 1 3 3.5c-1.917 3.083-4.584 5.25-8 6.5-24.393 5.587-48.06 3.253-71-7-26.444-11.975-48.944-29.142-67.5-51.5a31.818 31.818 0 0 1-1.5-12Z" style="opacity:.984"/></svg>