<svg xmlns="http://www.w3.org/2000/svg" width="512" height="512" style="shape-rendering:geometricPrecision;text-rendering:geometricPrecision;image-rendering:optimizeQuality;fill-rule:evenodd;clip-rule:evenodd"><path d="M138.5 26.5c41.75 6.435 72.75 28.102 93 65-8.56 5.79-13.56 13.79-15 24-19.495-3.015-34.661-12.682-45.5-29l-17-39a5601.011 5601.011 0 0 0-15.5-21Z" style="opacity:.954"/><path d="M366.5 26.5a9.864 9.864 0 0 1 6 1 353.912 353.912 0 0 0-15.5 20 1282.38 1282.38 0 0 0-16 37c-6.29 8.991-13.957 16.658-23 23-7.435-15.799-19.602-22.132-36.5-19 19.367-33.044 47.7-53.71 85-62Z" style="opacity:.949"/><path d="M240.5 103.5c8.28-1.69 14.946.81 20 7.5a656.39 656.39 0 0 0-17 25.5c-4.734-3.565-8.567-7.899-11.5-13-2.308-9.035.526-15.701 8.5-20Z" style="opacity:.915"/><path d="M285.5 103.5c11.749-1.988 17.749 2.846 18 14.5a30.124 30.124 0 0 1-1.5 9.5 679.474 679.474 0 0 1-24 37c-8.608 5.612-15.942 4.278-22-4-.851-5.753-.517-11.42 1-17 7.875-14.674 17.375-28.007 28.5-40Z" style="opacity:.945"/><path d="M317.5 127.5c37.924 11.712 70.091 32.378 96.5 62 19.5 26.345 22.833 54.678 10 85-9.904 18.573-24.737 31.406-44.5 38.5-20.333 3.333-39.666 9.667-58 19L301 344.5c1.487 4.631 3.82 8.964 7 13a240.558 240.558 0 0 1 40.5-21.5c11.344-3.49 22.677-5.99 34-7.5-11.046 61.963-45.046 106.13-102 132.5a1282.155 1282.155 0 0 1-59 23.5c-2.621-33.076-16.288-60.576-41-82.5-22.471-15.259-36.137-36.093-41-62.5a490.307 490.307 0 0 1 64.5 19 165.98 165.98 0 0 0 5.5-13.5 494.321 494.321 0 0 0-87-24c-33.9-12.952-47.734-37.452-41.5-73.5 2.958-9.615 7.625-18.281 14-26 33.012-38.685 73.012-67.685 120-87 1.722.111 1.888.611.5 1.5-30.515 19.507-57.681 43.007-81.5 70.5a331.706 331.706 0 0 0-18 25c-7.772 19.016-2.939 33.849 14.5 44.5 9.04 3.703 18.374 4.37 28 2a135.77 135.77 0 0 0 41-14c17.995-7.166 36.661-9.999 56-8.5 19.339-1.499 38.005 1.334 56 8.5 17.354 9.454 35.854 14.621 55.5 15.5 25.887-5.107 35.553-20.44 29-46-16.229-25.569-36.062-48.069-59.5-67.5l-28-21a48.614 48.614 0 0 0 9-17.5Z" style="opacity:.976"/><path d="M227.5 144.5c3.114.591 5.614 2.258 7.5 5 .667 1 .667 2 0 3-27.421 20.741-48.088 46.741-62 78a364.53 364.53 0 0 0-10 31c-8.022 1.967-16.189 2.467-24.5 1.5-9.791-4.31-13.291-11.81-10.5-22.5 14.236-22.246 31.403-42.079 51.5-59.5a2746.9 2746.9 0 0 0 48-36.5Z" style="opacity:.941"/><path d="M299.5 158.5c33.477 20.307 60.977 46.974 82.5 80 2.806 7.887 1.639 15.054-3.5 21.5a15.39 15.39 0 0 1-6 3c-5.657.499-11.324.666-17 .5-7.988-39.659-27.488-72.326-58.5-98-.317-2.707.516-5.04 2.5-7Z" style="opacity:.928"/></svg>