<svg xmlns="http://www.w3.org/2000/svg" width="512" height="512" style="shape-rendering:geometricPrecision;text-rendering:geometricPrecision;image-rendering:optimizeQuality;fill-rule:evenodd;clip-rule:evenodd"><path d="M241.5-.5h38c14.056 1.848 28.056 4.68 42 8.5a103.911 103.911 0 0 1 24 9c5.076 4.318 7.909 9.818 8.5 16.5a93.664 93.664 0 0 1-1 26c-1.647 5.635-4.814 10.135-9.5 13.5a178.563 178.563 0 0 1-46 19c3.382 4.265 5.548 9.098 6.5 14.5a840.83 840.83 0 0 1 0 58c-2 2.667-4 2.667-6 0l-1-54c-.756-6.993-3.756-12.66-9-17a154.48 154.48 0 0 1-41.5 1c-2.825-.38-4.991.62-6.5 3a45.892 45.892 0 0 0-4 10l-1 77c-1.903 3.455-4.237 3.788-7 1a1481.76 1481.76 0 0 1 0-77 37.113 37.113 0 0 1 5.5-15c-15.993-5.172-31.327-12.005-46-20.5-6.236-4.972-9.402-11.472-9.5-19.5a121.19 121.19 0 0 1 0-22c.634-7.617 4.134-13.45 10.5-17.5 17.061-7.512 34.727-12.346 53-14.5Z" style="opacity:.972"/><path d="M383.5 38.5c19.712.605 35.212 8.938 46.5 25a279.263 279.263 0 0 0 12 19c3.187 6.357 1.521 8.69-5 7A173.423 173.423 0 0 0 412.5 56c-8.917-6.4-18.917-9.733-30-10-2.791-2.984-2.458-5.484 1-7.5Z" style="opacity:.836"/><path d="M405.5 511.5h-12c-4.405-1.912-7.239-5.245-8.5-10l-1-299c-1.356-.88-2.856-1.214-4.5-1v28h-228c.166-9.006 0-18.006-.5-27-2.022-1.491-3.688-1.158-5 1l-1 299c-1.614 3.777-4.114 6.777-7.5 9h-12a5105.821 5105.821 0 0 0-46-10.5c-2.167-.833-3.667-2.333-4.5-4.5a27887.856 27887.856 0 0 1 0-334 114.408 114.408 0 0 1 9-32 2474.195 2474.195 0 0 1 35-57c4.766-6.295 10.932-10.462 18.5-12.5a250.063 250.063 0 0 1 36-1.5c1.036 6.572 4.036 12.072 9 16.5a163.897 163.897 0 0 0 41 19c1.016.52 1.682 1.353 2 2.5a39.221 39.221 0 0 0-2.5 8 1680.41 1680.41 0 0 0 0 82c6.167 6.912 11.833 6.579 17-1l1-77a45.892 45.892 0 0 1 4-10c13.45 2.617 26.95 2.617 40.5 0a4.94 4.94 0 0 1 2.5 1 57.56 57.56 0 0 1 3 8l1 56c3.838 7.416 9.171 8.75 16 4a22.981 22.981 0 0 0 2-5c.667-18 .667-36 0-54a246.178 246.178 0 0 0-3.5-15 168.587 168.587 0 0 0 42-18.5c4.743-4.246 8.077-9.413 10-15.5 12.775-1.592 25.442-1.092 38 1.5a47.913 47.913 0 0 1 13.5 9.5 1374.5 1374.5 0 0 1 37 60 119.024 119.024 0 0 1 9 36c.667 109.333.667 218.667 0 328a17.842 17.842 0 0 1-4.5 5.5 1110.44 1110.44 0 0 0-46 10.5Zm-308-169c1.517.011 2.684.677 3.5 2a30.485 30.485 0 0 1 0 11c-.928 1.835-2.094 2.168-3.5 1-1.275-4.716-1.275-9.383 0-14Zm1 26c.958.453 1.792 1.119 2.5 2 .667 7.667.667 15.333 0 23-1.08 1.894-2.413 2.227-4 1-1.089-8.928-.589-17.595 1.5-26Z" style="opacity:.984"/><path d="M446.5 98.5c5.274.084 8.774 2.75 10.5 8 1.333 5.667-.667 7.333-6 5l-5-8c-.64-1.765-.473-3.432.5-5Z" style="opacity:.796"/><path d="M152.5 234.5h225v42h-225v-42Z" style="opacity:.965"/><path d="M55.5 248.5c1.89-.203 3.39.463 4.5 2a42.498 42.498 0 0 1 0 13c-1.523 2.12-3.356 2.453-5.5 1-1.553-5.584-1.22-10.917 1-16Z" style="opacity:.844"/><path d="M54.5 275.5c1.967-.239 3.8.094 5.5 1 .667 18 .667 36 0 54-2 1.333-4 1.333-6 0a511.566 511.566 0 0 1 .5-55Z" style="opacity:.911"/><path d="M151.5 281.5h228v196h-228v-196Z" style="opacity:.987"/></svg>