<svg xmlns="http://www.w3.org/2000/svg" width="512" height="512" style="shape-rendering:geometricPrecision;text-rendering:geometricPrecision;image-rendering:optimizeQuality;fill-rule:evenodd;clip-rule:evenodd"><path d="M178.5 31.5c7.363-.33 14.697.003 22 1 9.138 32.913 30.805 48.08 65 45.5 24.547-5.714 39.547-20.88 45-45.5 44.307-2.767 75.14 16.233 92.5 57 3.947 12.36 5.447 25.027 4.5 38h-40v-32h-16v168h-192v-168h-16v32h-40c-1.497-43.864 17.836-74.364 58-91.5a326.045 326.045 0 0 1 17-4.5Zm69 88c7.714-.205 15.381.295 23 1.5 17.335 9.214 20.669 22.048 10 38.5 9.042 12.992 7.709 24.826-4 35.5-14.022 5.997-28.022 5.997-42 0-11.709-10.674-13.042-22.508-4-35.5-9.042-12.992-7.709-24.826 4-35.5 4.114-2.539 8.447-4.039 13-4.5Z" style="opacity:.99"/><path d="M215.5 32.5a1069.328 1069.328 0 0 1 80-.5c-8.654 25.613-26.321 35.613-53 30-14.12-5.281-23.12-15.115-27-29.5Z" style="opacity:.966"/><path d="M243.5 135.5c8.007-.166 16.007 0 24 .5 1.833.5 3 1.667 3.5 3.5a16.242 16.242 0 0 1 0 8c-.5 1.833-1.667 3-3.5 3.5-8 .667-16 .667-24 0-3.016-1.529-4.349-4.029-4-7.5-.218-3.566 1.116-6.232 4-8ZM243.5 167.5c8.007-.166 16.007 0 24 .5 1.833.5 3 1.667 3.5 3.5a16.242 16.242 0 0 1 0 8c-.5 1.833-1.667 3-3.5 3.5-8 .667-16 .667-24 0-3.016-1.529-4.349-4.029-4-7.5-.218-3.566 1.116-6.232 4-8Z" style="opacity:.95"/><path d="M156.5 311.5a307.162 307.162 0 0 1 35 1c-6.435 25.132-22.435 37.799-48 38 4.539-12.95 8.872-25.95 13-39Z" style="opacity:.947"/><path d="M206.5 311.5h25v40h16v-40h16v40h16v-40c8.36-.331 16.693.002 25 1 4.816 25.644 19.482 42.811 44 51.5a121.49 121.49 0 0 0 25 3.5 5015.244 5015.244 0 0 1 24 76 9801.067 9801.067 0 0 1-106 34 1640.19 1640.19 0 0 0-31-91.5c-5.967-3.117-10.134-1.617-12.5 4.5a4420.003 4420.003 0 0 0-28.5 87 9801.067 9801.067 0 0 1-106-34 5015.244 5015.244 0 0 1 24-76c31.085.218 52.919-13.782 65.5-42a107.437 107.437 0 0 0 3.5-14Z" style="opacity:.984"/><path d="M319.5 311.5a307.162 307.162 0 0 1 35 1l13 38c-26.02-.329-42.02-13.329-48-39Z" style="opacity:.947"/></svg>