<svg xmlns="http://www.w3.org/2000/svg" width="512" height="512" style="shape-rendering:geometricPrecision;text-rendering:geometricPrecision;image-rendering:optimizeQuality;fill-rule:evenodd;clip-rule:evenodd"><path d="M249.5 31.5c30.07-1.42 46.737 12.746 50 42.5-.802 18.794-9.635 32.294-26.5 40.5a84.902 84.902 0 0 0-.5 13c5.676-.166 11.343.001 17 .5-3.07 19.572-14.404 30.405-34 32.5-19.596-2.095-30.93-12.928-34-32.5a162.597 162.597 0 0 1 18-.5 200.65 200.65 0 0 1 1.5-33c1.902-4.9 5.402-8.067 10.5-9.5 13.086-.37 17.086-6.37 12-18-3.301-2.374-6.967-3.04-11-2-5.85 5.837-12.85 7.837-21 6-10.557-6.114-13.057-14.614-7.5-25.5 7.064-7.445 15.564-12.112 25.5-14Z" style="opacity:.96"/><path d="M157.5 127.5c8.34-.166 16.673 0 25 .5 5.474 1.474 8.974 4.974 10.5 10.5 8.177 32.515 29.01 50.182 62.5 53 35.055-3.55 56.555-22.55 64.5-57 2.287-2.962 5.12-5.129 8.5-6.5 11.139-1.115 22.139-.448 33 2l86 43c9.557 6.614 14.224 15.78 14 27.5a949.809 949.809 0 0 1-11.5 63c-3.167 12.5-11 20.333-23.5 23.5-14.329.5-28.663.667-43 .5.167 56.001 0 112.001-.5 168-3.167 12.5-11 20.333-23.5 23.5-69.333.667-138.667.667-208 0-12.5-3.167-20.333-11-23.5-23.5-.5-55.999-.667-111.999-.5-168-14.337.167-28.67 0-43-.5-12.5-3.167-20.333-11-23.5-23.5l-11-55c-2.761-14.731 1.739-26.565 13.5-35.5a2023.365 2023.365 0 0 1 94-45.5Z" style="opacity:.995"/></svg>