<svg xmlns="http://www.w3.org/2000/svg" width="512" height="512" style="shape-rendering:geometricPrecision;text-rendering:geometricPrecision;image-rendering:optimizeQuality;fill-rule:evenodd;clip-rule:evenodd"><path d="M158.5 28.5c1.381 69.003 27.381 126.836 78 173.5a148.633 148.633 0 0 0 13 10L363 325.5a218.2 218.2 0 0 1 12.5 20.5 267.301 267.301 0 0 1-5.5 24.5 2244.431 2244.431 0 0 0-63.5-45.5c-34-18-68-18-102 0a2244.431 2244.431 0 0 0-63.5 45.5 804.015 804.015 0 0 1-5.5-24.5 862.479 862.479 0 0 1 14.5-23.5c.847-3.088.347-5.921-1.5-8.5-5.701-2.342-11.367-4.675-17-7a386.473 386.473 0 0 1 10.5-15.5 16.242 16.242 0 0 0 0-8l-24-80a386.032 386.032 0 0 1-30-68c-5.848-19.598-8.514-39.599-8-60a8669.996 8669.996 0 0 0 78.5-47Z" style="opacity:.982"/><path d="M351.5 28.5a9716.032 9716.032 0 0 1 79.5 47c.153 30.566-5.847 59.9-18 88a1280.152 1280.152 0 0 1-21 43l-23 77a12.494 12.494 0 0 0 0 7 255.447 255.447 0 0 0 10.5 16c-3.152 2.661-6.819 3.828-11 3.5a14487.924 14487.924 0 0 1-101-101.5c55.462-46.935 83.462-106.935 84-180ZM61.5 79.5h3c.969 30.876 7.469 60.543 19.5 89a2335.88 2335.88 0 0 1 19.5 41.5c-7.39 39.17-14.722 78.336-22 117.5a479.332 479.332 0 0 1-43.5-1 1677.882 1677.882 0 0 1-14-150 870.457 870.457 0 0 1 0-59c5.349-19.848 17.849-32.515 37.5-38Z" style="opacity:.98"/><path d="M446.5 79.5c19.784 3.615 32.95 14.948 39.5 34a709.533 709.533 0 0 1-1 99 2207.234 2207.234 0 0 1-12 114 479.324 479.324 0 0 1-43.5 1 44105.79 44105.79 0 0 0-22-117.5 1062.923 1062.923 0 0 1 21.5-46.5c10.762-26.977 16.595-54.977 17.5-84Z" style="opacity:.979"/><path d="M242.5 327.5h13c.167 32.002 0 64.002-.5 96-4.31 25.301-17.144 44.968-38.5 59-.036-52.122 7.631-103.122 23-153a44.093 44.093 0 0 0 3-2Z" style="opacity:.967"/><path d="M271.5 328.5c3.494.114 6.494 1.28 9 3.5 14.663 49.141 21.996 99.308 22 150.5-16.502-10.334-28.002-24.667-34.5-43a275.184 275.184 0 0 0 3-29c.5-27.331.667-54.665.5-82Z" style="opacity:.957"/></svg>