<svg xmlns="http://www.w3.org/2000/svg" width="512" height="512" style="shape-rendering:geometricPrecision;text-rendering:geometricPrecision;image-rendering:optimizeQuality;fill-rule:evenodd;clip-rule:evenodd"><path d="M335.5 46.5c32.498 10.99 61.331 27.99 86.5 51a76.745 76.745 0 0 1 9 14 1244.795 1244.795 0 0 1 29 106 6606.352 6606.352 0 0 1 45 207 1422.25 1422.25 0 0 0 2.5 26.5c-.269 7.552-3.935 12.552-11 15-20 .667-40 .667-60 0a32.5 32.5 0 0 1-7-3 696.137 696.137 0 0 1-28.5-59.5 64.218 64.218 0 0 1 0-16 47028.906 47028.906 0 0 1 23.5-243c-1.841-6.692-5.341-8.026-10.5-4a37704.273 37704.273 0 0 0-24 244c-.06 4.89-1.06 9.557-3 14l-13 24c-2.1 2.967-4.934 4.8-8.5 5.5-30 .667-60 .667-90 0l-1.5-1.5a168.032 168.032 0 0 1 .5-31.5l93-1c5.317-2.58 5.983-5.913 2-10l-94-1-1.5-1.5-1-225a74.513 74.513 0 0 0-2-12 96.14 96.14 0 0 1-5.5-12l.5-3a431.527 431.527 0 0 0 33-37 152.165 152.165 0 0 0 15.5-24 4.932 4.932 0 0 0-1-2.5c-10.339.2-20.672.866-31 2a548.022 548.022 0 0 1-81-2.5c-4.632-1.08-6.465.586-5.5 5 16.699 25.711 36.699 48.711 60 69a59.043 59.043 0 0 1 5 9c.667 77.667.667 155.333 0 233l-1.5 1.5-118 1c-3.983 4.087-3.317 7.42 2 10l117 1a168.032 168.032 0 0 1 .5 31.5l-1.5 1.5c-38 .667-76 .667-114 0-3.566-.7-6.4-2.533-8.5-5.5a597.358 597.358 0 0 1-15-29 56755.616 56755.616 0 0 1-24-247c.402-6.445-2.431-8.945-8.5-7.5-1.652 1.47-2.652 3.303-3 5.5a47028.906 47028.906 0 0 1 23.5 243 64.218 64.218 0 0 1 0 16A567.573 567.573 0 0 1 81.5 463a32.498 32.498 0 0 1-7 3c-20 .667-40 .667-60 0-7.069-2.459-10.735-7.459-11-15A418.205 418.205 0 0 1 15 379.5a4424.473 4424.473 0 0 1 58-247c2.862-15.896 10.029-29.396 21.5-40.5 22.386-18.205 47.052-32.872 74-44a30.499 30.499 0 0 1 11 0c25.004 5.467 50.338 7.967 76 7.5a360.253 360.253 0 0 0 73-6.5 49.767 49.767 0 0 0 7-2.5Zm-96 108c7.162 1.473 8.496 4.973 4 10.5-6.357 1.481-8.857-1.019-7.5-7.5a30.233 30.233 0 0 1 3.5-3Zm-1 82c7.794.752 9.461 4.252 5 10.5-8.412-.188-10.079-3.688-5-10.5Zm0 82c6.741-.11 8.908 2.89 6.5 9-3.271 2.697-6.271 2.364-9-1-.977-3.317-.144-5.984 2.5-8Zm1 81c7.194 1.53 8.528 5.03 4 10.5-6.357 1.481-8.857-1.019-7.5-7.5a30.233 30.233 0 0 1 3.5-3Z" style="opacity:.985"/></svg>