<svg xmlns="http://www.w3.org/2000/svg" width="512" height="512" style="shape-rendering:geometricPrecision;text-rendering:geometricPrecision;image-rendering:optimizeQuality;fill-rule:evenodd;clip-rule:evenodd"><path d="M20.5 138.5c45.987 5.08 90.32 16.58 133 34.5 22.256 9.6 41.756 23.1 58.5 40.5a1109.631 1109.631 0 0 0 60 77c28.78 28.921 63.614 40.755 104.5 35.5a475.749 475.749 0 0 0 105-22c4.937-1.369 9.104-.203 12.5 3.5a400.05 400.05 0 0 1 0 40c-.833 2.167-2.333 3.667-4.5 4.5a584.87 584.87 0 0 1-80 20c-29.489 5.239-58.822 4.572-88-2-22.222-6.607-41.889-17.607-59-33a341.539 341.539 0 0 1-21.5-22.5 2125.93 2125.93 0 0 1-38-49c-26.156-25.093-56.656-43.259-91.5-54.5a666.374 666.374 0 0 0-92-24 6.977 6.977 0 0 1-2.5-3.5 420.479 420.479 0 0 1 0-41 19.555 19.555 0 0 0 3.5-4Z" style="opacity:.974"/><path d="M321.5 178.5c3.729.076 7.062 1.243 10 3.5a3281.152 3281.152 0 0 1 76.5 59.5 719.395 719.395 0 0 1 1.5 65 212.432 212.432 0 0 1-62 5.5c-11.565-1.3-22.398-4.8-32.5-10.5a3362.569 3362.569 0 0 1 0-116c1.018-3.515 3.185-5.848 6.5-7Z" style="opacity:.976"/><path d="M25.5 205.5a607.24 607.24 0 0 1 58 13 21983.753 21983.753 0 0 1-6.5 151c-1.167 2.5-3 4.333-5.5 5.5-11 .667-22 .667-33 0-2.833-.833-4.667-2.667-5.5-5.5a13490.055 13490.055 0 0 1-7.5-164Z" style="opacity:.974"/></svg>