<svg xmlns="http://www.w3.org/2000/svg" width="512" height="512" style="shape-rendering:geometricPrecision;text-rendering:geometricPrecision;image-rendering:optimizeQuality;fill-rule:evenodd;clip-rule:evenodd"><path d="M31.5 78.5h33a1071.01 1071.01 0 0 0 46.5 142c5.893 14.975 15.06 27.475 27.5 37.5 19.38 14.521 41.047 23.854 65 28 13.19 2.028 25.524-.305 37-7 1.074-.739 1.741-1.739 2-3-22.895-22.241-42.062-47.408-57.5-75.5a877.451 877.451 0 0 1-53.5-120 561.231 561.231 0 0 1 58-.5c3.073.739 5.24 2.572 6.5 5.5 14.023 54.378 38.357 103.378 73 147 55.504 65.057 125.171 88.391 209 70 10.212 3.696 16.212 11.029 18 22 .546 3.399.213 6.732-1 10-53.056 25.764-109.056 39.764-168 42a166.621 166.621 0 0 1-24.5-1.5 16422.632 16422.632 0 0 0-133-56 1414.302 1414.302 0 0 1-111-13c-18.023-2.961-35.19-8.461-51.5-16.5a358.454 358.454 0 0 1 3-63 4101.855 4101.855 0 0 0 16-97A146.608 146.608 0 0 0 23.5 88c.94-4.76 3.606-7.927 8-9.5Zm145 18c1.644-.213 3.144.12 4.5 1a112.208 112.208 0 0 0 5.5 18c-1.375 3.047-3.708 4.38-7 4a301.774 301.774 0 0 0-5-19c.252-1.573.918-2.906 2-4Zm-130 16c1.644-.214 3.144.12 4.5 1 .783 3.26.617 6.427-.5 9.5-4.022.99-6.022-.677-6-5a53.326 53.326 0 0 1 2-5.5Zm140 16c1.89-.203 3.39.463 4.5 2a54901.6 54901.6 0 0 0 6.5 17.5c-1.829 3.606-4.162 4.106-7 1.5a134.507 134.507 0 0 1-5.5-15c-.748-2.34-.248-4.34 1.5-6Zm-140 5c3.562.064 5.23 1.897 5 5.5A13853.978 13853.978 0 0 1 36 219.5a504.8 504.8 0 0 0-5 54c-2.321 2.533-4.321 2.199-6-1a326.52 326.52 0 0 1 3-45 1377.961 1377.961 0 0 1 18.5-94Zm152 26c1.89-.203 3.39.463 4.5 2a174.552 174.552 0 0 0 7.5 16c-.686 3.498-2.686 4.665-6 3.5a83.086 83.086 0 0 1-8-17.5c.303-1.614.97-2.948 2-4Zm15 29c1.517.011 2.684.677 3.5 2a81.709 81.709 0 0 0 8 13c.758 2.269.591 4.436-.5 6.5-1.333.667-2.667.667-4 0a237.14 237.14 0 0 1-10-18c.571-1.599 1.571-2.766 3-3.5Zm16 29c1.644-.214 3.144.12 4.5 1l10 14c.636 3.022-.53 4.522-3.5 4.5-4.869-4.92-8.869-10.42-12-16.5a10.014 10.014 0 0 1 1-3Zm20 25a8.43 8.43 0 0 1 4 .5c5.522 4.507 9.856 9.84 13 16-1.056 3.529-3.056 4.196-6 2a69.365 69.365 0 0 1-13-15 18.473 18.473 0 0 0 2-3.5Zm24 24c6.697 2.495 12.53 6.495 17.5 12 .987 4.006-.513 5.839-4.5 5.5a73.125 73.125 0 0 1-15-13 39.064 39.064 0 0 0 2-4.5Zm27 21a8.43 8.43 0 0 1 4 .5 129.073 129.073 0 0 0 13 8c2.178 4.623.844 6.623-4 6a96.494 96.494 0 0 1-15-11.5 185.977 185.977 0 0 0 2-3Zm27 17a114.776 114.776 0 0 1 19 7.5c2.475 2.617 1.975 4.784-1.5 6.5a416.864 416.864 0 0 0-17.5-8c-2.238-1.853-2.238-3.853 0-6Zm31 12a85.768 85.768 0 0 1 19 4.5c3.493 2.355 3.326 4.855-.5 7.5a665.48 665.48 0 0 0-17.5-5.5c-2.184-1.898-2.517-4.064-1-6.5Zm115 4c3.689 1.878 4.356 4.378 2 7.5-6.353 2.645-12.853 3.479-19.5 2.5-.867-2.538-.201-4.538 2-6 5.434-.78 10.601-2.113 15.5-4Zm-84 4c7.054.317 14.054 1.15 21 2.5 3.021 3.799 2.021 5.966-3 6.5a395.858 395.858 0 0 1-16-2.5c-3.059-1.397-3.725-3.563-2-6.5Zm48 2c3.771-.726 6.437.607 8 4a7.248 7.248 0 0 1-2 2.5l-13.5 1.5c-2.59.124-4.923-.542-7-2-.72-1.612-.554-3.112.5-4.5 4.851-.174 9.518-.674 14-1.5Z" style="opacity:.967"/><path d="M71.5 78.5h53c18.696 58.055 44.863 112.388 78.5 163a277.466 277.466 0 0 0 29.5 33c-1.916 1.817-4.249 2.984-7 3.5-11.801 2.049-23.468 1.382-35-2-24.441-6.791-45.275-19.291-62.5-37.5a327.045 327.045 0 0 1-27-62 2360.882 2360.882 0 0 1-29.5-98Z" style="opacity:.97"/><path d="M7.5 298.5a238.629 238.629 0 0 0 54 15.5c35.89 5.284 71.89 9.617 108 13l134 56c42.656 2.43 84.322-2.903 125-16a586.93 586.93 0 0 0 67.5-25.5c5.925 13.943 8.592 28.276 8 43-7.946 5.391-16.446 9.891-25.5 13.5-36.068 14.014-73.402 22.681-112 26a668.173 668.173 0 0 1-93 2 69.244 69.244 0 0 0-9-13c-35.624-23.155-74.29-38.989-116-47.5-2.877.843-5.044 2.51-6.5 5l-1 55c-.973 3.906-3.473 6.073-7.5 6.5-37.667.667-75.333.667-113 0-4.537-.537-7.037-3.037-7.5-7.5-1.819-42.004-3.652-84.004-5.5-126Zm30 32c4.327.98 5.827 3.647 4.5 8-3.864 2.987-6.03 1.987-6.5-3-.063-2.014.603-3.681 2-5Zm0 18c2.493-.171 4.326.829 5.5 3a257.769 257.769 0 0 1 1 33c-2.522 2.826-4.522 2.493-6-1a571.338 571.338 0 0 0-2.5-29.5 13.013 13.013 0 0 1 2-5.5Zm445 23c3.779 1.511 4.445 3.678 2 6.5-23.571 11.079-48.238 18.745-74 23a568.583 568.583 0 0 1-113 10c-2.826-2.522-2.493-4.522 1-6 49.784-.348 98.784-6.681 147-19 12.946-3.587 25.28-8.42 37-14.5Zm-443 28c18.336-.167 36.67 0 55 .5 1.532 2.33 1.198 4.33-1 6a702.15 702.15 0 0 1-53 0c-2.324-1.825-2.657-3.991-1-6.5Zm72 0c3.35-.165 6.683.002 10 .5 2.658 2.386 2.325 4.386-1 6-3 .667-6 .667-9 0-2.561-2.156-2.561-4.323 0-6.5Z" style="opacity:.962"/></svg>