<svg xmlns="http://www.w3.org/2000/svg" width="512" height="512" style="shape-rendering:geometricPrecision;text-rendering:geometricPrecision;image-rendering:optimizeQuality;fill-rule:evenodd;clip-rule:evenodd"><path d="M87.5-.5h12c5.648 2.15 9.481 6.15 11.5 12l59 161c2.955 3.777 6.788 4.943 11.5 3.5 3.63-3.05 4.797-6.883 3.5-11.5a14396.218 14396.218 0 0 1-46-127c-1.12-18.552 7.38-26.052 25.5-22.5 3.5 2.167 6.333 5 8.5 8.5a12422.205 12422.205 0 0 0 73 198c8.402 8.473 17.402 9.14 27 2a1803.751 1803.751 0 0 0 25-51c11.108-11.999 23.942-14.166 38.5-6.5 10.661 8.99 13.828 20.157 9.5 33.5a11315.169 11315.169 0 0 0-60 129c-.667 1.667-.667 3.333 0 5a2853.77 2853.77 0 0 1 14.5 40 5095.744 5095.744 0 0 1-92.5 34c-1.653-.32-2.653-1.32-3-3a378.112 378.112 0 0 0-28-67c-27.984-42.84-67.151-58.84-117.5-48a4.932 4.932 0 0 1-2.5-1l-49-135c-2.933-14.373 2.733-22.706 17-25 9.83.491 16.164 5.491 19 15l33 91c4.647 6.132 9.647 6.465 15 1 2-3.333 2-6.667 0-10l-55-151C35.136 58.365 42.303 50.532 58.5 51c6.341 1.675 10.841 5.508 13.5 11.5a7581.063 7581.063 0 0 0 48 130c5.395 4.434 10.062 3.767 14-2a16.242 16.242 0 0 0 0-8 22609.842 22609.842 0 0 1-58-159c-2.276-11.111 1.558-19.111 11.5-24Z" style="opacity:.979"/><path d="M312.5-.5h12c5.98 2.482 10.147 6.815 12.5 13 .833 45.004.667 90.004-.5 135-4.709-2.359-9.709-3.359-15-3a71.279 71.279 0 0 0-22 4c-.167-43.668 0-87.335.5-131 .919-8.395 5.086-14.395 12.5-18Z" style="opacity:.961"/><path d="M259.5 34.5c11.279-1.193 18.779 3.474 22.5 14a3479.51 3479.51 0 0 1 0 118c-7.155 14.978-14.322 29.978-21.5 45a861.901 861.901 0 0 1-14.5-38c-.667-42-.667-84 0-126 2.417-6.585 6.917-10.919 13.5-13Z" style="opacity:.977"/><path d="M370.5 34.5c10.776-.702 17.943 3.965 21.5 14l1 214c4.427 14.784 13.594 18.951 27.5 12.5l35-35c15.444-11.737 29.944-10.571 43.5 3.5 6.262 11.57 5.929 22.903-1 34-35.054 34.388-70.054 68.721-105 103-.5 16.33-.667 32.663-.5 49a302.635 302.635 0 0 1-34.5-1 666.21 666.21 0 0 0-18-47c-5.717-7.704-13.384-12.037-23-13a2460.42 2460.42 0 0 1-13.5-37 25718.778 25718.778 0 0 1 53.5-115c4.861-8.721 7.694-18.054 8.5-28-.684-9.886-3.851-18.886-9.5-27a3190.905 3190.905 0 0 1 0-113c2.749-6.917 7.582-11.583 14.5-14Z" style="opacity:.98"/><path d="M85.5 302.5c40.386 1.604 68.553 20.938 84.5 58a728.098 728.098 0 0 1 20.5 53 1821.326 1821.326 0 0 1-45 17 2669.532 2669.532 0 0 1-60.5-79c-9.3-13.935-16.467-28.935-21.5-45 7.33-2.098 14.664-3.431 22-4Z" style="opacity:.972"/><path d="M161.5 511.5h-4a5703.723 5703.723 0 0 0-20.5-56c-.781-1.444-.614-2.777.5-4a14504.685 14504.685 0 0 1 180-65 14.823 14.823 0 0 1 7.5 3 525.637 525.637 0 0 1 17.5 48.5c-.196 3.267-1.53 5.934-4 8a264465.133 264465.133 0 0 1-177 65.5Zm140-99c12.482 2.663 19.148 10.496 20 23.5-.944 6.312-4.61 8.979-11 8-4.832-3.155-7.498-7.655-8-13.5a7785.14 7785.14 0 0 0-132 47c-7.333-2.33-9.5-6.997-6.5-14a15.83 15.83 0 0 1 5.5-3.5 9811.296 9811.296 0 0 1 132-47.5Z" style="opacity:.947"/><path d="M405.5 511.5h-194a1941.432 1941.432 0 0 1 74-27.5 3958.7 3958.7 0 0 1 89-.5 72.367 72.367 0 0 0 .5 12c4.821 7.591 10.155 7.924 16 1 1.126-7.545.46-14.879-2-22a34.706 34.706 0 0 0-7.5-6.5 1127.15 1127.15 0 0 0-44-2.5c9.669-3.171 16.669-9.337 21-18.5a484.008 484.008 0 0 1 44 0c3.52.504 6.02 2.337 7.5 5.5.667 18 .667 36 0 54-1.025 2.187-2.525 3.854-4.5 5Z" style="opacity:.96"/></svg>