<svg xmlns="http://www.w3.org/2000/svg" width="512" height="512" style="shape-rendering:geometricPrecision;text-rendering:geometricPrecision;image-rendering:optimizeQuality;fill-rule:evenodd;clip-rule:evenodd"><path d="M-.5-.5h356v38H-.5v-38Z" style="opacity:.986"/><path d="M-.5 66.5h356v180h-140c-.333-18.012 0-36.012 1-54 19.313-12.619 31.147-30.286 35.5-53a318.738 318.738 0 0 0 1.5-37h-29a266.329 266.329 0 0 1-1.5 35c-6.003 23.18-21.003 35.514-45 37-24.843-1.847-40.176-14.847-46-39a544.417 544.417 0 0 1-.5-33h-29c-.167 11.671 0 23.338.5 35 3.744 23.841 15.744 42.174 36 55 .5 17.997.667 35.997.5 54H-.5v-180Z" style="opacity:.987"/><path d="M416.5 97.5h31v31h-31v-31ZM511.5 165.5v31h-30v30h-31v-31h30v-30h31Z" style="opacity:.937"/><path d="M511.5 334.5v55c-59.044 9.435-98.21 42.435-117.5 99a155.928 155.928 0 0 0-4.5 23h-51c-7.585-49.732-33.585-86.232-78-109.5-14.265-6.816-29.265-10.983-45-12.5v-55h296Z" style="opacity:.983"/><path d="M217.5 418.5c39.424 7.591 67.59 29.591 84.5 66 3.592 8.362 5.592 17.028 6 26a3914.511 3914.511 0 0 1-90.5-92Z" style="opacity:.921"/><path d="M509.5 418.5c1.025.397 1.192 1.063.5 2L420.5 510c-.667.667-1.333.667-2 0 10.513-50.346 40.847-80.846 91-91.5Z" style="opacity:.905"/></svg>