<svg xmlns="http://www.w3.org/2000/svg" width="512" height="512" style="shape-rendering:geometricPrecision;text-rendering:geometricPrecision;image-rendering:optimizeQuality;fill-rule:evenodd;clip-rule:evenodd"><path d="M270.5 113.5c5.249.375 9.416 2.709 12.5 7a3360.055 3360.055 0 0 0 46 63c.483.948.649 1.948.5 3-7.154.438-13.154 3.271-18 8.5-15.381.677-26.381 7.843-33 21.5-.774 1.211-1.607 1.211-2.5 0l-44-56c-4.767-6.63-4.6-13.13.5-19.5l30-24c2.658-1.478 5.325-2.645 8-3.5Z" style="opacity:.964"/><path d="M329.5 113.5c12.937-.553 20.771 5.447 23.5 18 .5 8.994.666 17.994.5 27-7.674.166-15.341 0-23-.5a581.125 581.125 0 0 1-24-33 185.02 185.02 0 0 1 23-11.5Z" style="opacity:.938"/><path d="M511.5 159.5v12a194.341 194.341 0 0 1-52 20.5 161.935 161.935 0 0 1-17 2c-28.333.667-56.667.667-85 0a96.035 96.035 0 0 1-14-18 2825.7 2825.7 0 0 0 103-2 80.75 80.75 0 0 0 23-9l20-15c9.958-2.514 17.292.653 22 9.5Z" style="opacity:.934"/><path d="M511.5 189.5v67c-45.278 6.444-73.778 31.777-85.5 76a47.208 47.208 0 0 0-1.5 12c-39.668-.167-79.335 0-119 .5l-24 16c-93.999.5-188 .667-282 .5v-22c6.147-28.324 22.48-48.49 49-60.5 45.526-7.607 86.526-25.274 123-53a1408.973 1408.973 0 0 1 55-45.5 1806.227 1806.227 0 0 1 44 56c-8.76 15.434-7.26 29.767 4.5 43 2.13 22.13 14.297 34.297 36.5 36.5 15.627 12.661 31.294 12.661 47 0 22.194-2.194 34.36-14.36 36.5-36.5 14-16 14-32 0-48-.747-7.322-2.58-14.322-5.5-21a859.015 859.015 0 0 0 69-1.5c18.811-3.437 36.478-9.937 53-19.5Zm-181 40c15.045-.902 24.878 5.765 29.5 20 2.094 16.311-4.739 26.811-20.5 31.5-13.054 1.225-22.554-3.942-28.5-15.5-4.755-18.159 1.745-30.159 19.5-36Z" style="opacity:.985"/><path d="M329.5 202.5c10.276-1.194 18.276 2.473 24 11 18.574-2.259 26.74 6.075 24.5 25 10.739 7.22 13.073 16.554 7 28a29.964 29.964 0 0 1-7 6c2.24 18.925-5.926 27.259-24.5 25-6.597 9.964-15.597 13.131-27 9.5a45.182 45.182 0 0 1-10-9.5c-18.678 2.155-26.845-6.179-24.5-25-11.049-7.157-13.382-16.491-7-28a29.964 29.964 0 0 1 7-6c-2.345-18.821 5.822-27.155 24.5-25 3.471-4.814 7.805-8.481 13-11Zm1 27c-17.755 5.841-24.255 17.841-19.5 36 5.946 11.558 15.446 16.725 28.5 15.5 15.761-4.689 22.594-15.189 20.5-31.5-4.622-14.235-14.455-20.902-29.5-20Z" style="opacity:.948"/><path d="M511.5 273.5v71c-23.676.333-47.343 0-71-1 7.18-40.181 30.847-63.514 71-70Z" style="opacity:.968"/><path d="M511.5 360.5v17c-3.812 10.974-11.478 17.474-23 19.5-39.665.5-79.332.667-119 .5v-18c-15.337-.167-30.67 0-46 .5l-26 17c-91.667.667-183.333.667-275 0-10.709-1.537-18.042-7.371-22-17.5 94.998-.833 189.998-1.333 285-1.5l25-17c66.999-.5 133.999-.667 201-.5Z" style="opacity:.938"/></svg>