<svg xmlns="http://www.w3.org/2000/svg" width="512" height="512" style="shape-rendering:geometricPrecision;text-rendering:geometricPrecision;image-rendering:optimizeQuality;fill-rule:evenodd;clip-rule:evenodd"><path d="M174.5 18.5c12.675-1.813 20.175 3.52 22.5 16 .268 9.365.935 18.698 2 28a772.055 772.055 0 0 1 5.5 27c-1.089 15.402-9.422 23.402-25 24-15.389-1.389-23.723-9.723-25-25a285.886 285.886 0 0 0 7.5-59c2.48-5.65 6.647-9.317 12.5-11Z" style="opacity:.964"/><path d="M151.5 31.5c1.478-.262 2.811.071 4 1a241.077 241.077 0 0 1-7.5 51c-.184 25.815 12.65 37.982 38.5 36.5 14.962-4.897 23.296-15.23 25-31a222.346 222.346 0 0 1-7-47l1-7.5a271.382 271.382 0 0 1 55 20l1 4.5a2610.405 2610.405 0 0 0-5 91.5c-35.955-8.392-72.288-10.559-109-6.5a601.948 601.948 0 0 0-44 6.5 5155.706 5155.706 0 0 0-5.5-93c15.2-14.184 33.033-22.85 53.5-26Z" style="opacity:.968"/><path d="M166.5 149.5c30.066-1.467 59.733 1.2 89 8a9868.3 9868.3 0 0 0-5 106 3997.67 3997.67 0 0 0 2.5 48 105.977 105.977 0 0 0 3.5 19 335.16 335.16 0 0 1-17 11.5c-10.255 8.748-15.088 19.915-14.5 33.5-2.405 13.41-10.239 20.91-23.5 22.5-14.056-20.397-32.89-34.23-56.5-41.5a460.606 460.606 0 0 0-7-68 163.04 163.04 0 0 0-12-32 1063.277 1063.277 0 0 0-8-39c-9.499-18.82-13.999-38.653-13.5-59.5a566.06 566.06 0 0 1 62-8.5Z" style="opacity:.985"/><path d="M256.5 338.5c1.478-.262 2.811.071 4 1a399.253 399.253 0 0 0 29.5 52c15.049 20.765 34.549 35.598 58.5 44.5 4.6 1.317 9.266 2.317 14 3 12.39.082 24.723.749 37 2 9.174 3.562 12.674 10.062 10.5 19.5-7.624 4.209-15.791 7.042-24.5 8.5-35.99 8.674-72.324 10.674-109 6a296.53 296.53 0 0 1-36-14 161.19 161.19 0 0 0-17-4.5 49.19 49.19 0 0 0-3-15.5c2.068-.687 4.068-.52 6 .5 3.842-1.464 4.509-3.631 2-6.5a32.308 32.308 0 0 1-10-2.5 43.171 43.171 0 0 1-3-10c4.506.973 6.672-.694 6.5-5l-1.5-1.5-8-1a53.212 53.212 0 0 0-6-11c13.158-3.825 21.658-12.325 25.5-25.5-1.125-12.97 3.041-23.804 12.5-32.5a124.203 124.203 0 0 1 12-7.5Z" style="opacity:.973"/><path d="M144.5 362.5c18.771 5.466 34.271 15.799 46.5 31a129.974 129.974 0 0 1 12.5 20 87.689 87.689 0 0 1-8 .5c-1.054 1.388-1.22 2.888-.5 4.5a61.569 61.569 0 0 1 12 3 49.18 49.18 0 0 0 3.5 9c-2.231.387-4.564.553-7 .5-2.667 1.667-2.667 3.333 0 5 3.202.198 6.202 1.031 9 2.5 1.861 4.609 2.528 9.276 2 14a2376.394 2376.394 0 0 0-61-9.5c-7.003-1.108-13.17-3.941-18.5-8.5-.667-7-.667-14 0-21 2.669-10.671 5.335-21.338 8-32a118.124 118.124 0 0 0 1.5-19Z" style="opacity:.96"/><path d="M136.5 447.5a99.342 99.342 0 0 0 21 6.5 770.124 770.124 0 0 1 60 9 278.47 278.47 0 0 1 47 17c29.164 6.635 58.497 7.302 88 2a420.526 420.526 0 0 0 59-12c1.231 1.183 1.231 2.349 0 3.5a108.157 108.157 0 0 1-32 11.5c-35.065 7.049-70.398 9.049-106 6a296.959 296.959 0 0 0-21-9 7239.354 7239.354 0 0 0-52-11.5 7.93 7.93 0 0 0-3.5 1 162.597 162.597 0 0 0-.5 18 230.56 230.56 0 0 1-57-2.5l-2.5-2.5a684.346 684.346 0 0 1-.5-37Z" style="opacity:.913"/></svg>