<svg xmlns="http://www.w3.org/2000/svg" width="512" height="512" style="shape-rendering:geometricPrecision;text-rendering:geometricPrecision;image-rendering:optimizeQuality;fill-rule:evenodd;clip-rule:evenodd"><path d="M149.5 31.5c12.005-.166 24.005 0 36 .5 19.833 5.167 32.333 17.667 37.5 37.5.097 21.03.764 42.029 2 63 1.937 8.89 6.604 15.89 14 21 .5 39.332.667 78.665.5 118-17.714-.43-35.381.07-53 1.5-10.223 5.295-12.723 13.128-7.5 23.5 1.938 2.606 4.438 4.439 7.5 5.5a503.631 503.631 0 0 0 53 1.5v32c-17.714-.43-35.381.07-53 1.5-10.223 5.295-12.723 13.128-7.5 23.5 1.938 2.606 4.438 4.439 7.5 5.5a503.631 503.631 0 0 0 53 1.5v112c-40.668.167-81.335 0-122-.5-19.833-5.167-32.333-17.667-37.5-37.5-.667-76-.667-152 0-228 1.886-9.106 5.886-17.106 12-24a130.16 130.16 0 0 0 14-13 32.473 32.473 0 0 0 4-10 2551.23 2551.23 0 0 0 2-97c5.349-19.848 17.849-32.515 37.5-38ZM325.5 31.5c12.005-.166 24.005 0 36 .5 18.226 4.559 30.392 15.725 36.5 33.5 1.022 33.649 2.022 67.316 3 101a32.473 32.473 0 0 0 4 10 296.34 296.34 0 0 1 20 21 57.995 57.995 0 0 1 6 16c.667 76 .667 152 0 228-5.167 19.833-17.667 32.333-37.5 37.5-40.665.5-81.332.667-122 .5v-112c17.714.43 35.381-.07 53-1.5 10.223-5.295 12.723-13.128 7.5-23.5-1.938-2.606-4.438-4.439-7.5-5.5a503.631 503.631 0 0 0-53-1.5v-32c17.714.43 35.381-.07 53-1.5 10.223-5.295 12.723-13.128 7.5-23.5-1.938-2.606-4.438-4.439-7.5-5.5a503.631 503.631 0 0 0-53-1.5 6958.7 6958.7 0 0 1 .5-118c7.396-5.11 12.063-12.11 14-21a1161.625 1161.625 0 0 0 2-63c5.349-19.848 17.849-32.515 37.5-38Z" style="opacity:.996"/></svg>