<svg xmlns="http://www.w3.org/2000/svg" width="512" height="512" style="shape-rendering:geometricPrecision;text-rendering:geometricPrecision;image-rendering:optimizeQuality;fill-rule:evenodd;clip-rule:evenodd"><path d="M105.5-.5h11c4.734 2.24 7.901 5.906 9.5 11a2861.07 2861.07 0 0 1 0 107c-10-4-20-4-30 0a2862.357 2862.357 0 0 1 0-107c1.6-5.094 4.766-8.76 9.5-11ZM394.5-.5h11c4.734 2.24 7.901 5.906 9.5 11a2861.07 2861.07 0 0 1 0 107c-10-4-20-4-30 0a2861.07 2861.07 0 0 1 0-107c1.599-5.094 4.766-8.76 9.5-11Z" style="opacity:.959"/><path d="M511.5 249.5v12c-42.736 43.411-55.236 94.411-37.5 153a1339.564 1339.564 0 0 0 37.5 76v12a28.926 28.926 0 0 0-3.5 5 35.524 35.524 0 0 0-5.5 4H8.5a28.907 28.907 0 0 0-5-3.5 35.491 35.491 0 0 0-4-5.5v-12a1339.564 1339.564 0 0 0 37.5-76c17.453-58.519 4.953-109.519-37.5-153v-12a4866.871 4866.871 0 0 1 101-102.5c6.165-4.121 12.498-4.454 19-1a4196.061 4196.061 0 0 0 110 108c18.751 10.494 37.084 9.827 55-2a8013.456 8013.456 0 0 0 107-106c6.502-3.454 12.835-3.121 19 1a4867.36 4867.36 0 0 1 101 102.5Z" style="opacity:.995"/></svg>