<svg xmlns="http://www.w3.org/2000/svg" width="512" height="512" style="shape-rendering:geometricPrecision;text-rendering:geometricPrecision;image-rendering:optimizeQuality;fill-rule:evenodd;clip-rule:evenodd"><path d="M194.5 15.5h9c.167 69 0 138.001-.5 207-17.588-37.099-30.588-75.765-39-116-3.666-17.968-3.999-35.968-1-54 3.224-18.711 13.724-31.044 31.5-37Z" style="opacity:.976"/><path d="M219.5 15.5h74c-.167 148.334 0 296.667.5 445 2.494 13.658 8.661 25.324 18.5 35a2128.562 2128.562 0 0 1-113 .5c12.628-12.095 19.128-26.928 19.5-44.5.5-145.333.667-290.666.5-436Z" style="opacity:.986"/><path d="M308.5 15.5c13.683-.408 24.517 4.925 32.5 16 7.556 13.1 11.056 27.266 10.5 42.5a273.399 273.399 0 0 1-12.5 70.5 649.23 649.23 0 0 1-30 78c-.5-68.999-.667-138-.5-207Z" style="opacity:.97"/><path d="M153.5 28.5c.997-.03 1.664.47 2 1.5-6.775 14.043-9.775 28.877-9 44.5.985 28.76 6.152 56.76 15.5 84a787.478 787.478 0 0 0 41 98c.667 68.333.667 136.667 0 205-4.935 18.602-16.768 30.102-35.5 34.5-9.994.5-19.994.666-30 .5.492-118.377-.008-236.71-1.5-355-4.384-5.138-8.718-5.138-13 0a493.437 493.437 0 0 0-2 42 9853.077 9853.077 0 0 1-38 105c-5.007 5.986-11.174 7.486-18.5 4.5a416.618 416.618 0 0 1-25-11c-4.65-4.574-6.15-10.074-4.5-16.5a21791.961 21791.961 0 0 1 88-218l9.5-9.5c7.06-3.286 14.06-6.453 21-9.5Z" style="opacity:.986"/><path d="M356.5 29.5c13.679 1.435 24.845 7.768 33.5 19A9088.913 9088.913 0 0 1 478.5 271c-.668 4.349-2.668 8.016-6 11a255.708 255.708 0 0 1-31.5 12.5c-4.386-.173-8.053-1.84-11-5a3468.263 3468.263 0 0 1-39-108l-1-38c-2.128-5.813-5.961-7.313-11.5-4.5a6.978 6.978 0 0 0-2.5 3.5c-.5 118-.667 236-.5 354-9.672.166-19.339 0-29-.5-20.115-3.805-32.615-15.638-37.5-35.5-.667-68-.667-136 0-204 23.599-45.462 41.265-93.129 53-143 5.177-22.63 5.511-45.298 1-68-1.509-5.714-3.675-11.048-6.5-16Z" style="opacity:.976"/></svg>