<svg xmlns="http://www.w3.org/2000/svg" width="512" height="512" style="shape-rendering:geometricPrecision;text-rendering:geometricPrecision;image-rendering:optimizeQuality;fill-rule:evenodd;clip-rule:evenodd"><path d="M178.5 118.5c17.221 2.28 31.221 10.28 42 24a42907.388 42907.388 0 0 1-31 18.5 194.31 194.31 0 0 1-29.5 10.5c-4.74-12.658-5.073-25.324-1-38 4.085-8.265 10.585-13.265 19.5-15Z" style="opacity:.953"/><path d="M222.5 157.5c3.294-.241 6.294.592 9 2.5a1621.82 1621.82 0 0 1 53 42c-15.714 43.56-2.714 75.227 39 95 4.874 4.775 7.541 10.608 8 17.5a89.664 89.664 0 0 1-6 22c-15.809 1.152-31.476-.015-47-3.5l-75-21a5601.431 5601.431 0 0 0-159-33c-7.424-1.339-10.424-5.839-9-13.5.312-31.397 6.812-61.397 19.5-90 2.526-2.953 5.692-4.119 9.5-3.5 55.726 26.21 108.393 21.377 158-14.5Zm16 23c7.806 2.42 9.472 6.92 5 13.5-6.118 2.774-10.118.941-12-5.5.98-3.973 3.314-6.64 7-8Zm25 23c8.1.588 10.6 4.588 7.5 12-2.739 3.247-5.906 3.747-9.5 1.5-4.312-5.269-3.645-9.769 2-13.5Z" style="opacity:.983"/><path d="M296.5 212.5c1.422.209 2.755.709 4 1.5 17.566 17.188 38.566 27.854 63 32a509.325 509.325 0 0 1 80 13c16.822 7.49 26.489 20.324 29 38.5a16.08 16.08 0 0 1-1.5 7c-40.641 20.785-83.808 31.785-129.5 33 4.998-13.287 5.164-26.621.5-40a58.317 58.317 0 0 0-7.5-10.5 134.06 134.06 0 0 0-23-14c-18.647-16.726-23.647-36.892-15-60.5Z" style="opacity:.975"/><path d="M34.5 291.5a11619.604 11619.604 0 0 0 148 30.5l91 25c69.584 12.774 136.25 3.774 200-27 1-.667 2-.667 3 0 6.732 16.014 3.399 29.347-10 40-68.368 30.254-139.368 38.921-213 26l-98-23.5a45.564 45.564 0 0 1-1.5 14c-1.319 1.987-3.152 3.154-5.5 3.5-35.085.986-70.085.653-105-1-4.17-5.488-7.003-11.655-8.5-18.5-4.465-23.013-4.632-46.013-.5-69Z" style="opacity:.974"/></svg>