<svg xmlns="http://www.w3.org/2000/svg" width="512" height="512" style="shape-rendering:geometricPrecision;text-rendering:geometricPrecision;image-rendering:optimizeQuality;fill-rule:evenodd;clip-rule:evenodd"><path d="M192.5-.5h33c32.101 4.632 58.601 19.299 79.5 44a99.438 99.438 0 0 0 6.5 10 148.58 148.58 0 0 1-14 8.5c-5.105-1.225-9.772-.225-14 3L248 100.5 211.5 64c-5.563-3.368-10.896-3.035-16 1L160 100.5A1019.208 1019.208 0 0 0 121.5 63a66.95 66.95 0 0 1-5.5-1.5c-6.971 2-12.638 6-17 12 1.547-8.96 4.88-17.293 10-25 20.786-28.275 48.62-44.609 83.5-49Z" style="opacity:.975"/><path d="M372.5 61.5c42.011-2.728 77.178 11.272 105.5 42 10.493 13.31 16.826 28.31 19 45a211.802 211.802 0 0 0-25.5-23.5c-4.282-.965-8.282-.298-12 2a1803.01 1803.01 0 0 1-36 35.5 1706.07 1706.07 0 0 1-35-34.5c-5.416-4.217-11.083-4.551-17-1a1803.01 1803.01 0 0 1-36 35.5 1706.07 1706.07 0 0 1-35-34.5c-5.416-4.217-11.083-4.551-17-1l-9 9c-.667.667-1.333.667-2 0 11.151-31.819 32.485-53.819 64-66 11.852-4.066 23.852-6.899 36-8.5Z" style="opacity:.973"/><path d="M113.5 95.5c2.82-.252 5.486.248 8 1.5l32 32c4.554 2.874 9.221 2.874 14 0l32-32c2.53-1.422 5.197-1.755 8-1a792.55 792.55 0 0 1 34 33 10.098 10.098 0 0 0 6 1.5 221.77 221.77 0 0 1-2.5 16 656.222 656.222 0 0 0-.5 24 1513.057 1513.057 0 0 1-33-32.5c-4.779-2.874-9.446-2.874-14 0a792.55 792.55 0 0 1-34 33c-2 .667-4 .667-6 0l-36-34c-3.442-1.54-6.775-1.54-10 0a51.057 51.057 0 0 0-9 8c-.832.688-1.498.521-2-.5a293.468 293.468 0 0 1-3.5-33 369.115 369.115 0 0 1 16.5-16Z" style="opacity:.944"/><path d="M287.5 158.5c3.149-.289 6.149.211 9 1.5l31 31c6.508 3.692 12.508 3.025 18-2l30-30c3.134-.79 6.134-.457 9 1l31 31c4.476 2.877 9.143 3.21 14 1a792.55 792.55 0 0 1 34-33 12.494 12.494 0 0 1 7 0 477.018 477.018 0 0 1 26.5 25.5 508.495 508.495 0 0 1-1.5 33l-1 3a608.175 608.175 0 0 1-21-20.5c-4.82-2.087-9.487-1.754-14 1l-32 32c-3.424 1.658-6.758 1.325-10-1l-32-32c-4.839-2.166-9.506-1.833-14 1l-32 32c-3.424 1.658-6.758 1.325-10-1l-32-32c-4-2-8-2-12 0a57.217 57.217 0 0 0-9.5 8.5 221.416 221.416 0 0 1-4-34 348.625 348.625 0 0 0 15.5-16Z" style="opacity:.951"/><path d="M115.5 168.5c1.422.209 2.755.709 4 1.5a839.958 839.958 0 0 0 35 34c4.455 1.859 8.789 1.525 13-1l33-33a28.931 28.931 0 0 0 4-1.5 551.705 551.705 0 0 1 35 33.5c2.938 2.257 6.271 3.424 10 3.5a1240.82 1240.82 0 0 0 6 52c-.502 1.021-1.168 1.188-2 .5-17.339-16.801-37.339-20.801-60-12-22.08 12.324-31.914 31.157-29.5 56.5a85.835 85.835 0 0 0 6 17 110.872 110.872 0 0 0 11 14c33.77 35.192 67.77 70.192 102 105a275.921 275.921 0 0 1-1.5 11c-45.668.167-91.335 0-137-.5-7.475-2.478-11.642-7.644-12.5-15.5-.667-15-.667-30 0-45 .954-7.735 5.121-12.902 12.5-15.5C102 331.833 60.167 290 19 247.5c-7.333-11-7.333-22 0-33 11.05-11.078 23.55-12.912 37.5-5.5a1729.754 1729.754 0 0 1 49 50c4.751.92 7.084-1.08 7-6a1085.325 1085.325 0 0 1-7.5-75.5c3.126-3.641 6.626-6.641 10.5-9Z" style="opacity:.977"/><path d="M485.5 511.5h-168c-6.374-2.891-9.874-7.891-10.5-15a528.986 528.986 0 0 1 0-46c1.274-7.278 5.441-12.111 12.5-14.5L196 312.5c-10.891-15.158-9.391-28.991 4.5-41.5 12.02-6.616 23.353-5.616 34 3a1099.315 1099.315 0 0 0 48 48.5c3.398-.892 5.065-3.058 5-6.5a4178.2 4178.2 0 0 0-9-74 229.592 229.592 0 0 1 13-12.5 2062.6 2062.6 0 0 0 39 37.5c4.611 1.007 8.945.34 13-2a1803.01 1803.01 0 0 1 36-35.5 2062.6 2062.6 0 0 0 39 37.5c4.611 1.007 8.945.34 13-2a1803.01 1803.01 0 0 1 36-35.5 973.423 973.423 0 0 1 26.5 26 14952.006 14952.006 0 0 1-6 166c.086 5.076-1.414 9.576-4.5 13.5 6.597 2.263 10.764 6.763 12.5 13.5.667 17 .667 34 0 51-1.936 5.432-5.436 9.432-10.5 12Z" style="opacity:.989"/></svg>