<svg xmlns="http://www.w3.org/2000/svg" width="512" height="512" style="shape-rendering:geometricPrecision;text-rendering:geometricPrecision;image-rendering:optimizeQuality;fill-rule:evenodd;clip-rule:evenodd"><path d="M240.5 4.5a481.83 481.83 0 0 1 79 5.5 700.15 700.15 0 0 1-31 32 684.432 684.432 0 0 0-61.5.5l-4.5-.5a700.15 700.15 0 0 1-31-32 541.803 541.803 0 0 1 49-5.5Z" style="opacity:.953"/><path d="M175.5 12.5c2.489-.202 4.823.298 7 1.5 22.32 25.16 46.654 47.992 73 68.5a402.738 402.738 0 0 0 32-26.5l43-43c2.757-.782 5.257-.282 7.5 1.5l19 35c.667 2 .667 4 0 6-13.427 24.102-29.927 45.935-49.5 65.5-7.94 5.134-16.273 5.8-25 2a933.163 933.163 0 0 0-27-24.5 933.163 933.163 0 0 0-27 24.5c-8.727 3.8-17.06 3.134-25-2-19.573-19.565-36.073-41.398-49.5-65.5-.667-2-.667-4 0-6a496.668 496.668 0 0 1 21.5-37Z" style="opacity:.968"/><path d="M511.5 206.5v14a3245.784 3245.784 0 0 1-42.5 59c-11.642 10.482-23.475 10.649-35.5.5l-29-23.5a25790.825 25790.825 0 0 0-1.5 227c-2.833 12.167-10.333 19.667-22.5 22.5-83.333.667-166.667.667-250 0-12.619-2.952-20.119-10.785-22.5-23.5-.167-75.336-.667-150.669-1.5-226a334.287 334.287 0 0 1-39 29.5c-9.73 2.609-18.23.443-25.5-6.5a3380.798 3380.798 0 0 1-42.5-59v-14A2135.157 2135.157 0 0 1 84 98.5c17.362-17.872 36.862-32.872 58.5-45 14.906 27.77 33.572 52.936 56 75.5 10.819 7.605 22.153 8.438 34 2.5a2383.608 2383.608 0 0 1 1.5 69c.273 1.829 1.107 3.329 2.5 4.5a361.07 361.07 0 0 0 38 0l1.5-1.5c.5-23.998.667-47.998.5-72 12.503 5.982 24.503 5.149 36-2.5 22.358-22.511 41.024-47.677 56-75.5 21.638 12.128 41.138 27.128 58.5 45a2135.386 2135.386 0 0 1 84.5 108Zm-259-73c4.381-.966 7.381.534 9 4.5-2.05 4.414-5.383 5.581-10 3.5-2.658-3.03-2.325-5.697 1-8Zm0 24c2.42-.208 4.753.126 7 1 2.783 2.842 2.45 5.342-1 7.5-4.319 1.46-7.319.126-9-4 .457-1.94 1.457-3.44 3-4.5Z" style="opacity:.991"/><path d="M254.5 111.5a100.053 100.053 0 0 1 12.5 10c.5 24.664.667 49.331.5 74h-24c-.167-24.669 0-49.336.5-74a49.864 49.864 0 0 0 10.5-10Zm-2 22c-3.325 2.303-3.658 4.97-1 8 4.617 2.081 7.95.914 10-3.5-1.619-3.966-4.619-5.466-9-4.5Zm0 24c-1.543 1.06-2.543 2.56-3 4.5 1.681 4.126 4.681 5.46 9 4 3.45-2.158 3.783-4.658 1-7.5a15.418 15.418 0 0 0-7-1Z" style="opacity:.905"/></svg>