<svg xmlns="http://www.w3.org/2000/svg" width="512" height="512" style="shape-rendering:geometricPrecision;text-rendering:geometricPrecision;image-rendering:optimizeQuality;fill-rule:evenodd;clip-rule:evenodd"><path d="M170.5 23.5c56.668-.167 113.334 0 170 .5 21.228 3.419 37.894 13.919 50 31.5a108.518 108.518 0 0 0-14 24 15.505 15.505 0 0 0 2.5 7 200.03 200.03 0 0 1 9.5 14c-20.282 15.657-43.282 21.823-69 18.5a1034.12 1034.12 0 0 1-45-5.5c8.456-7.071 17.789-12.904 28-17.5a986.284 986.284 0 0 0 47-17c10.787-9.944 11.787-20.778 3-32.5-2.365-2.85-5.365-4.684-9-5.5a3680.517 3680.517 0 0 0-170-1c-15.916 2.314-22.749 11.48-20.5 27.5 2.087 6.02 5.92 10.52 11.5 13.5a936.76 936.76 0 0 1 46 16c9.549 4.265 18.215 9.765 26 16.5a353.883 353.883 0 0 1-71 5.5c-16.086-2.384-30.42-8.55-43-18.5a97.986 97.986 0 0 0 12-21 10.414 10.414 0 0 0-1.5-5 361.474 361.474 0 0 1-12.5-19c12.258-17.598 28.925-28.265 50-32Z" style="opacity:.961"/><path d="M169.5 55.5c57.334-.167 114.668 0 172 .5 2.667 3.667 2.667 7.333 0 11a403.779 403.779 0 0 0-56 21 240.35 240.35 0 0 0-30 20.5c-12.372-9.845-25.705-18.345-40-25.5a936.76 936.76 0 0 0-46-16c-2.625-3.832-2.625-7.665 0-11.5Z" style="opacity:.973"/><path d="M120.5 117.5c26.378 16.37 54.878 21.37 85.5 15l4.5 1a123.862 123.862 0 0 0-9.5 35 536.421 536.421 0 0 0-1.5 47h16c-.167-15.67 0-31.337.5-47 1.968-13.57 6.135-26.404 12.5-38.5a493.453 493.453 0 0 1 27-2.5 370.041 370.041 0 0 1 27 2.5c6.365 12.096 10.532 24.93 12.5 38.5.5 15.663.667 31.33.5 47h16a536.421 536.421 0 0 0-1.5-47 123.862 123.862 0 0 0-9.5-35l4.5-1c30.403 6.433 58.736 1.433 85-15l51 31a49157.057 49157.057 0 0 0 46 191c.5 30.665.667 61.332.5 92h-49a4280.693 4280.693 0 0 0-8.5-92 6187.412 6187.412 0 0 0-41-97c-8.459-4.021-12.626-1.354-12.5 8a1076.611 1076.611 0 0 1 7 157c-26.379-2.893-47.545-14.893-63.5-36a1667.87 1667.87 0 0 1-19.5-33.5 22.981 22.981 0 0 0-5-2 1599.45 1599.45 0 0 0-80 0 22.981 22.981 0 0 0-5 2 1667.87 1667.87 0 0 1-19.5 33.5c-15.955 21.107-37.121 33.107-63.5 36a1059.758 1059.758 0 0 1 7-157c.126-9.354-4.041-12.021-12.5-8a6186.458 6186.458 0 0 0-41 97 4281.976 4281.976 0 0 0-8.5 92h-49c-.167-30.668 0-61.335.5-92a49211.898 49211.898 0 0 0 46-191 3605.53 3605.53 0 0 0 50.5-31Z" style="opacity:.988"/><path d="M219.5 351.5c24.002-.167 48.002 0 72 .5a1303.295 1303.295 0 0 0 17.5 29.5c18.79 24.481 43.623 38.148 74.5 41 .167 18.336 0 36.67-.5 55-1.833 4.5-5 7.667-9.5 9.5-78.667.667-157.333.667-236 0-4.5-1.833-7.667-5-9.5-9.5-.5-18.33-.667-36.664-.5-55 30.877-2.852 55.71-16.519 74.5-41a676.864 676.864 0 0 0 17.5-30Z" style="opacity:.993"/><path d="M31.5 447.5h32v16h-32v-16ZM447.5 447.5h32v16h-32v-16Z" style="opacity:1"/></svg>