<svg xmlns="http://www.w3.org/2000/svg" width="512" height="512" style="shape-rendering:geometricPrecision;text-rendering:geometricPrecision;image-rendering:optimizeQuality;fill-rule:evenodd;clip-rule:evenodd"><path d="M235.5-.5h40c15.312 2 29.979 6.5 44 13.5a55.454 55.454 0 0 1 7 5.5 313.396 313.396 0 0 1-13.5 20c-38.34-14.666-76.673-14.666-115 0a313.396 313.396 0 0 1-13.5-20c5.882-5.11 12.549-8.944 20-11.5 10.275-3.32 20.608-5.82 31-7.5Z" style="opacity:.954"/><path d="M173.5 34.5c17.447 24.218 31.28 50.552 41.5 79 12.83 36.317 21.996 73.317 27.5 111a2341.96 2341.96 0 0 1-77-63.5 2008.847 2008.847 0 0 1 15.5-39.5c1.778-5.556-.055-9.39-5.5-11.5a280.624 280.624 0 0 1-35-15 5249.057 5249.057 0 0 1 33-60.5Z" style="opacity:.961"/><path d="M336.5 34.5a1062.98 1062.98 0 0 1 34 60.5 280.624 280.624 0 0 1-35 15c-5.445 2.11-7.278 5.944-5.5 11.5a2008.847 2008.847 0 0 1 15.5 39.5 2341.96 2341.96 0 0 1-77 63.5c7.126-54.467 22.959-106.467 47.5-156a859.763 859.763 0 0 1 20.5-34Z" style="opacity:.962"/><path d="M250.5 44.5a170.364 170.364 0 0 1 46 6.5 23.972 23.972 0 0 1 8 3.5c-15.75 28.506-27.916 58.506-36.5 90a1369.977 1369.977 0 0 0-12.5 50 613.977 613.977 0 0 0-32.5-107 380.857 380.857 0 0 0-16.5-33c14.223-5.775 28.89-9.108 44-10Z" style="opacity:.964"/><path d="M117.5 104.5a825.749 825.749 0 0 0 43 18c.872 1.966.705 3.966-.5 6l-13 32a12.494 12.494 0 0 0 0 7 5870.19 5870.19 0 0 0 99 82c.667 67 .667 134 0 201l-15 58a6.293 6.293 0 0 1-3 1 10461.67 10461.67 0 0 0-108.5-23 835.272 835.272 0 0 0 6.5-87c.667-31.667.667-63.333 0-95-.49-48.784-9.824-95.784-28-141A593.242 593.242 0 0 1 81.5 127c-.193-4.127 1.473-7.127 5-9a567.834 567.834 0 0 0 31-13.5Zm100 206c8.743 1.159 11.576 5.826 8.5 14-4.708 5.311-9.374 5.311-14 0-2.857-6.608-1.023-11.275 5.5-14Zm-1 37c7.485-.017 10.985 3.65 10.5 11-4.871 7.6-10.204 7.934-16 1a12.494 12.494 0 0 1 0-7 37.84 37.84 0 0 1 5.5-5Zm-55 9c4.921-.457 8.421 1.543 10.5 6a1559.72 1559.72 0 0 1 0 79c-3.366 5.109-7.866 6.276-13.5 3.5a6.978 6.978 0 0 1-2.5-3.5 1559.72 1559.72 0 0 1 0-79c1.36-2.523 3.193-4.523 5.5-6Zm54 28c8.661-1.171 12.494 2.496 11.5 11-4.225 6.858-9.225 7.525-15 2-2.652-5.461-1.486-9.794 3.5-13Z" style="opacity:.981"/><path d="M390.5 104.5a731.842 731.842 0 0 1 34 13.5c3.222 2.108 4.888 5.108 5 9a528.737 528.737 0 0 1-15.5 34.5c-18.107 44.535-27.774 90.869-29 139a1507.136 1507.136 0 0 0 5 186 6510.106 6510.106 0 0 1-110.5 24 1961.953 1961.953 0 0 0-14.5-60c-.667-67-.667-134 0-201a5961.11 5961.11 0 0 0 99-82 12.494 12.494 0 0 0 0-7 2390.969 2390.969 0 0 1-14.5-36c.318-1.147.984-1.981 2-2.5a872.405 872.405 0 0 0 31-12c3.256-1.116 5.922-2.949 8-5.5Zm-46 252c4.921-.457 8.421 1.543 10.5 6a1559.72 1559.72 0 0 1 0 79c-3.366 5.109-7.866 6.276-13.5 3.5a6.978 6.978 0 0 1-2.5-3.5 1559.72 1559.72 0 0 1 0-79c1.36-2.523 3.193-4.523 5.5-6Z" style="opacity:.984"/><path d="M445.5 134.5a43141.881 43141.881 0 0 1 65 280 789.32 789.32 0 0 1-66 15 27552.829 27552.829 0 0 0-38.5-159c2.927-48.285 16.094-93.618 39.5-136ZM64.5 135.5c.876-.131 1.543.202 2 1 21.695 40.919 35.028 84.419 40 130.5a19237.43 19237.43 0 0 0-40 162.5 787.736 787.736 0 0 1-66-15 52262.423 52262.423 0 0 0 64-279Z" style="opacity:.977"/></svg>