<svg xmlns="http://www.w3.org/2000/svg" width="512" height="512" style="shape-rendering:geometricPrecision;text-rendering:geometricPrecision;image-rendering:optimizeQuality;fill-rule:evenodd;clip-rule:evenodd"><path d="M247.5 165.5a2614.668 2614.668 0 0 1 53.5 33c.667.667.667 1.333 0 2L284.5 219a291.394 291.394 0 0 1-30-13c-3.043-2.593-5.21-5.76-6.5-9.5a481.165 481.165 0 0 1-.5-31Z" style="opacity:.942"/><path d="M36.5 192.5a104923.84 104923.84 0 0 1 217.5 58c1.257.35 1.591 1.017 1 2a125.478 125.478 0 0 0-14 16c-1.507 5.824.659 9.324 6.5 10.5a301.527 301.527 0 0 0 43 7 2538.81 2538.81 0 0 0 63.5-54.5 4084.01 4084.01 0 0 0 52.5 31.5 472.92 472.92 0 0 1 53 13c3.769 3.706 5.769 8.206 6 13.5a1328.587 1328.587 0 0 1-121 21.5 445.043 445.043 0 0 1-88-6 5770.15 5770.15 0 0 1-113-17c-35.665-.5-71.332-.667-107-.5-6.65-31.676-6.65-63.343 0-95Z" style="opacity:.978"/><path d="M313.5 207.5a136.255 136.255 0 0 1 27 15.5l-54 48a109.783 109.783 0 0 1-24-5 6082.054 6082.054 0 0 1 51-58.5Z" style="opacity:.93"/><path d="M39.5 303.5c36.668-.167 73.335 0 110 .5a2234.726 2234.726 0 0 0 178 23.5 1100.09 1100.09 0 0 0 139-23 104.865 104.865 0 0 0 4 17c-46.892 13.343-94.725 20.676-143.5 22a629.876 629.876 0 0 1-88.5-7.5 3175.925 3175.925 0 0 1-93.5-15.5c-3.668-.5-6.334.834-8 4a69.558 69.558 0 0 0-1.5 19h-96v-40Z" style="opacity:.964"/></svg>