<svg xmlns="http://www.w3.org/2000/svg" width="512" height="512" style="shape-rendering:geometricPrecision;text-rendering:geometricPrecision;image-rendering:optimizeQuality;fill-rule:evenodd;clip-rule:evenodd"><path d="M127.5 31.5h32a964.162 964.162 0 0 0 1.5 75 16419.932 16419.932 0 0 0 86 149c.667 60.667.667 121.333 0 182L205.5 479a6958.7 6958.7 0 0 1-118 .5c-.167-85.001 0-170.001.5-255 25.61-30.92 38.61-66.587 39-107 .5-28.665.667-57.331.5-86Zm88 272h16v16h-16v-16Zm0 32h16v16h-16v-16Zm0 32h16v16h-16v-16Z" style="opacity:.996"/><path d="M351.5 31.5h32c-.167 28.669 0 57.335.5 86 .39 40.413 13.39 76.08 39 107 .5 84.999.667 169.999.5 255a6958.7 6958.7 0 0 1-118-.5L264 437.5a8277.112 8277.112 0 0 1 0-182 16419.932 16419.932 0 0 0 86-149 964.162 964.162 0 0 0 1.5-75Zm-40 208h80v16h-80v-16Zm-32 64h16v16h-16v-16Zm0 32h16v16h-16v-16Zm0 32h16v16h-16v-16Z" style="opacity:.995"/><path d="M175.5 66.5c25.677 10.753 52.344 17.753 80 21 27.508-3.169 54.008-10.169 79.5-21a342.33 342.33 0 0 1 0 37 13548.195 13548.195 0 0 1-79.5 136 13548.195 13548.195 0 0 1-79.5-136 684.346 684.346 0 0 1-.5-37Z" style="opacity:.98"/></svg>