<svg xmlns="http://www.w3.org/2000/svg" width="512" height="512" style="shape-rendering:geometricPrecision;text-rendering:geometricPrecision;image-rendering:optimizeQuality;fill-rule:evenodd;clip-rule:evenodd"><path d="M165.5 31.5c60.001-.167 120.001 0 180 .5A517.692 517.692 0 0 1 376 55.5c2.114 5.002.947 9.168-3.5 12.5a8227.06 8227.06 0 0 0-108 55.5 54.628 54.628 0 0 1-2-4.5l65-71c-48-.667-96-.667-144 0l65 71a54.628 54.628 0 0 1-2 4.5 7928.09 7928.09 0 0 0-106-54.5c-5.968-2.916-7.801-7.416-5.5-13.5a985.776 985.776 0 0 1 30.5-24Z" style="opacity:.962"/><path d="M129.5 80.5a1116.45 1116.45 0 0 1 69 35 649.326 649.326 0 0 1 1.5 36c1.176 5.841 4.676 8.007 10.5 6.5 1.833-.5 3-1.667 3.5-3.5a576.208 576.208 0 0 0 2.5-30 1321.577 1321.577 0 0 0 30.5 16c.5 113 .667 226 .5 339h-122c1.25-21.34 2.584-42.673 4-64h102v-64h-98a3669.177 3669.177 0 0 0 6.5-117 9879.993 9879.993 0 0 0-40.5 132 2514.46 2514.46 0 0 1-68-16 12792.463 12792.463 0 0 1 55.5-243c14.316-8.9 28.482-17.9 42.5-27ZM378.5 80.5c1.808-.009 3.475.491 5 1.5a2536.004 2536.004 0 0 1 40.5 25.5 12792.463 12792.463 0 0 1 55.5 243 2513.926 2513.926 0 0 1-68 16 9879.993 9879.993 0 0 0-40.5-132 3669.177 3669.177 0 0 0 6.5 117h-98v64h102c1.416 21.327 2.75 42.66 4 64h-122c-.167-113 0-226 .5-339a1321.577 1321.577 0 0 0 30.5-16 576.208 576.208 0 0 0 2.5 30c2.981 4.196 6.814 5.029 11.5 2.5a14.444 14.444 0 0 0 2.5-5.5 649.326 649.326 0 0 1 1.5-36 1546.266 1546.266 0 0 0 66-35Z" style="opacity:.991"/><path d="M132.5 367.5h83v32h-85l2-32ZM295.5 367.5h83l2 32h-85v-32Z" style="opacity:.994"/></svg>