<svg xmlns="http://www.w3.org/2000/svg" width="512" height="512" style="shape-rendering:geometricPrecision;text-rendering:geometricPrecision;image-rendering:optimizeQuality;fill-rule:evenodd;clip-rule:evenodd"><path d="M439.5 80.5c4.022.843 7.688 2.51 11 5-18.745 13.58-32.911 30.913-42.5 52-12.189 30.11-18.689 61.443-19.5 94-2.479 1.576-5.146 2.576-8 3-1.914-29.853 2.253-58.853 12.5-87a125.587 125.587 0 0 1 12-23l24-28a84.131 84.131 0 0 0 10.5-16Z" style="opacity:.866"/><path d="M430.5 81.5c1.478-.262 2.811.071 4 1-33.557 44.396-73.89 81.229-121 110.5-16.07 12.629-27.904 28.462-35.5 47.5a1449.603 1449.603 0 0 0-29 66 153.296 153.296 0 0 0-14 9 196.826 196.826 0 0 1 9-38 1048 1048 0 0 1 42-76 493.113 493.113 0 0 0 58.5-38.5 1272.571 1272.571 0 0 0 74-73 128.137 128.137 0 0 1 12-8.5Z" style="opacity:.872"/><path d="M452.5 88.5c4.142 1.62 7.642 4.286 10.5 8 16.023 20.53 28.856 43.03 38.5 67.5a801.877 801.877 0 0 1-108 64.5c-.16-36.043 8.007-70.043 24.5-102 8.553-15.384 20.053-28.051 34.5-38Z" style="opacity:.971"/><path d="M388.5 113.5c1.025.397 1.192 1.063.5 2-26.344 29.035-56.177 53.535-89.5 73.5l-12 6c-2.887.723-5.553.223-8-1.5a4802.792 4802.792 0 0 0 68-47.5 652.15 652.15 0 0 0 41-32.5Z" style="opacity:.804"/><path d="M391.5 136.5a2.428 2.428 0 0 1 2 .5c-14.171 32.022-19.838 65.522-17 100.5-42.765 17.128-82.932 38.795-120.5 65 10.223-27.624 22.223-54.624 36-81 7.124-10.791 15.957-19.958 26.5-27.5a667.007 667.007 0 0 0 49-35 192.817 192.817 0 0 0 24-22.5Z" style="opacity:.962"/><path d="M221.5 162.5a160.37 160.37 0 0 1 22 25.5 288.714 288.714 0 0 1-21.5 62.5c-8.873 8.8-9.54 18.133-2 28 3.984 5.506 9.15 9.173 15.5 11 .059 3.462-.941 6.462-3 9-25.826-7.992-33.659-24.658-23.5-50a501.594 501.594 0 0 1 13-27c5.827-11.123 7.494-22.79 5-35a58.598 58.598 0 0 0-11.5-17c2.023-2.353 4.023-4.686 6-7Z" style="opacity:.888"/><path d="M501.5 168.5c1.25.077 2.083.744 2.5 2 1.711 4.547 2.378 9.214 2 14A12869.182 12869.182 0 0 1 138.5 380C97.3 398.844 54.133 410.344 9 414.5c-4.274-5.538-5.44-11.705-3.5-18.5a2637.002 2637.002 0 0 0 109-23 687.703 687.703 0 0 0 120-53 2031.2 2031.2 0 0 1 92-56 563.828 563.828 0 0 1 58-26c41.045-20.171 80.045-43.337 117-69.5Z" style="opacity:.91"/><path d="M211.5 172.5c10.262 7.245 14.428 17.245 12.5 30a83.743 83.743 0 0 1-4 14c-8.492 14.484-14.825 29.817-19 46-1.716 12.855 2.451 23.355 12.5 31.5a66.549 66.549 0 0 0 18.5 8.5 79.377 79.377 0 0 1-3 15c-52.083 31.808-108.249 52.975-168.5 63.5a2051.435 2051.435 0 0 1-51 9.5c4.22-18.615 13.22-34.448 27-47.5 47.232-29.21 89.066-65.043 125.5-107.5a1479.657 1479.657 0 0 0 49.5-63Z" style="opacity:.976"/><path d="m246.5 189.5 32 8.5c1.786.196 3.119 1.029 4 2.5a727.978 727.978 0 0 0-46.5 86c-9.517-4.182-15.35-11.349-17.5-21.5 13.56-23.504 22.893-48.671 28-75.5Z" style="opacity:.941"/><path d="M504.5 189.5c2.601 4.489 2.435 9.156-.5 14a137.406 137.406 0 0 1-27.5 20.5 1829.94 1829.94 0 0 1-51 26 5554.022 5554.022 0 0 0-91 41 8236.252 8236.252 0 0 1-105 62 896.802 896.802 0 0 1-114 55 444.413 444.413 0 0 1-80 22c-7.333 1.14-14.333.14-21-3-2.287-2.07-3.953-4.57-5-7.5 46.65-5.33 91.317-17.83 134-37.5a11634.514 11634.514 0 0 0 361-192.5Z" style="opacity:.901"/></svg>