<svg xmlns="http://www.w3.org/2000/svg" width="512" height="512" style="shape-rendering:geometricPrecision;text-rendering:geometricPrecision;image-rendering:optimizeQuality;fill-rule:evenodd;clip-rule:evenodd"><path d="M269.5 139.5a10.098 10.098 0 0 1 6 1.5c31.647 47.646 75.98 67.313 133 59 21.054-4.018 41.054-11.018 60-21 3.456-1.123 6.29-.29 8.5 2.5 16.211 38.198 19.711 77.365 10.5 117.5a1762.54 1762.54 0 0 1-83 2c-29.26-.23-57.926 3.77-86 12a4911.24 4911.24 0 0 1-76 21c-25.26 4.317-50.593 4.651-76 1a770.96 770.96 0 0 1-143-34.5c-.78-4.792-.113-9.459 2-14 32.427 14.015 60.593 8.015 84.5-18a88.317 88.317 0 0 0 11.5-20.5c10.604.794 20.604-1.206 30-6a389.185 389.185 0 0 0 25-22c1-.667 2-.667 3 0l18 20c6.213.795 8.379-1.705 6.5-7.5l-17-19c2.159-4.666 5.659-8.333 10.5-11 6.382 8.214 13.549 15.548 21.5 22 4.609-1.215 5.942-3.882 4-8a253.218 253.218 0 0 1-17.5-20.5 68.19 68.19 0 0 1 10.5-9.5 209.996 209.996 0 0 1 19.5 21c5.63 1.868 8.13-.132 7.5-6a606.086 606.086 0 0 1-19.5-22 198.528 198.528 0 0 1 12.5-11l19.5 21.5c5.167.833 7.333-1.333 6.5-6.5a889.15 889.15 0 0 1-18.5-21.5 737.191 737.191 0 0 1 26-22.5Zm16 50c1.808-.009 3.475.491 5 1.5 8.941 11.273 19.941 19.94 33 26 31.876 14.179 64.542 16.179 98 6 8.376-2.736 16.709-5.57 25-8.5 5.65 2.1 6.316 5.267 2 9.5-35.214 16.025-71.547 19.358-109 10-22.565-6.596-41.398-18.763-56.5-36.5-1.795-3.425-.961-6.092 2.5-8Z" style="opacity:.977"/><path d="M450.5 148.5c7.241-.197 9.574 3.136 7 10-24.13 13.988-50.13 20.488-78 19.5-1.978-2.497-2.478-5.331-1.5-8.5a6.978 6.978 0 0 1 3.5-2.5c24.574-.725 47.574-6.892 69-18.5Z" style="opacity:.898"/><path d="M351.5 162.5a38.887 38.887 0 0 1 12 2.5c3.335 2.679 3.835 5.845 1.5 9.5-1.438 1.218-3.105 1.885-5 2a66.364 66.364 0 0 1-9.5-2.5c-2.819-4.101-2.486-7.935 1-11.5Z" style="opacity:.843"/><path d="M181.5 169.5c6.373-.132 8.873 2.868 7.5 9L137.5 224c-11.847.264-23.68.764-35.5 1.5-5.343.7-8.51-1.467-9.5-6.5.143-2.151 1.143-3.818 3-5a447.808 447.808 0 0 1 37-2 2831.427 2831.427 0 0 1 49-42.5Z" style="opacity:.895"/><path d="M70.5 213.5a28.818 28.818 0 0 1 10 1c2.881 3.863 2.548 7.363-1 10.5a25.238 25.238 0 0 1-10 0c-3.861-4.233-3.528-8.067 1-11.5Z" style="opacity:.84"/><path d="M67.5 248.5h42c-9.888 23.188-27.554 34.855-53 35-10.656.554-20.322-2.112-29-8 7.446-17.788 20.78-26.788 40-27Z" style="opacity:.948"/><path d="M21.5 310.5c46.53 16.049 94.197 27.549 143 34.5a291.28 291.28 0 0 0 75 0 5971.048 5971.048 0 0 0 84-23c28.79-7.932 58.123-11.599 88-11 24.331-.5 48.664-.667 73-.5.167 16.003 0 32.003-.5 48-.739 3.073-2.572 5.24-5.5 6.5a2861.07 2861.07 0 0 1-107 0c-2.928-1.26-4.761-3.427-5.5-6.5a244.4 244.4 0 0 0-1.5-22c-53.833 19.666-109.333 31.333-166.5 35-41.002-2.4-81.169-9.567-120.5-21.5a844.558 844.558 0 0 1-54-17c-3.688-2.542-5.354-6.042-5-10.5.19-4.228 1.19-8.228 3-12Z" style="opacity:.962"/></svg>