<svg xmlns="http://www.w3.org/2000/svg" width="512" height="512" style="shape-rendering:geometricPrecision;text-rendering:geometricPrecision;image-rendering:optimizeQuality;fill-rule:evenodd;clip-rule:evenodd"><path d="M511.5 271.5v16c-4.647 11.45-10.98 21.95-19 31.5a36.314 36.314 0 0 1-11 4c-15.039 1.605-29.706-.062-44-5-34.79-12.895-67.79-29.229-99-49a2836.378 2836.378 0 0 1-75-50A17109.495 17109.495 0 0 1 163 145.5c2.226-43.048-13.608-77.882-47.5-104.5 8.581-13.25 19.248-24.583 32-34 13.092-5.893 25.092-4.226 36 5a356.862 356.862 0 0 0 33 29 355.46 355.46 0 0 0 22 12.5c27.368 51.167 58.868 99.5 94.5 145a195.526 195.526 0 0 0 22.5 24.5c17.48 12.307 36.48 15.307 57 9a258.934 258.934 0 0 0 28-12c18.055 5.525 35.055 13.525 51 24 9.629 7.112 16.296 16.279 20 27.5Z" style="opacity:.982"/><path d="M295.5 45.5c12.853-1.22 23.353 3.114 31.5 13a87.384 87.384 0 0 1 9.5 15 732.513 732.513 0 0 1-35 13.5c-2.491 2.968-2.657 6.135-.5 9.5a11.292 11.292 0 0 0 4 2A430.873 430.873 0 0 1 343.5 86l18 32a546.874 546.874 0 0 1-35 13c-3.893 3.588-3.893 7.254 0 11 2 .667 4 .667 6 0l35.5-12.5a1824.764 1824.764 0 0 0 21.5 34.5 963.36 963.36 0 0 1-33 12c-3.811 3.273-3.978 6.773-.5 10.5 2.064 1.091 4.231 1.258 6.5.5a527.53 527.53 0 0 1 35-11 204.213 204.213 0 0 0 32 35c-11.555 6.352-23.888 10.185-37 11.5-12.142-.544-22.808-4.711-32-12.5-40.403-47.417-75.736-98.417-106-153 13.079-6.422 26.746-10.255 41-11.5Z" style="opacity:.954"/><path d="M107.5 52.5c16.723 11.573 28.889 26.907 36.5 46 5.093 11.889 6.927 24.222 5.5 37a5127.632 5127.632 0 0 1-71-42.5 920.781 920.781 0 0 0 29-40.5Z" style="opacity:.95"/><path d="M69.5 103.5a3390.062 3390.062 0 0 0 68 39.5 15366.278 15366.278 0 0 0 135 98c39.512 28.27 81.179 53.27 125 75 25.23 12.522 51.897 19.522 80 21-13.599 16.078-30.932 22.745-52 20-21.985-3.079-42.985-9.413-63-19-38.511-19.554-75.178-41.888-110-67a7942.396 7942.396 0 0 1-121-90 1206.435 1206.435 0 0 1-71-43c-4.427-2.685-6.26-6.518-5.5-11.5a172.059 172.059 0 0 1 14.5-23Z" style="opacity:.961"/><path d="M183.5 279.5c12.439-.105 23.439 3.728 33 11.5a454.02 454.02 0 0 1-22.5 26.5c-2.423 4.661-1.256 8.161 3.5 10.5 1.789.52 3.456.187 5-1a1108.504 1108.504 0 0 1 26-29.5 1500.332 1500.332 0 0 1 31.5 19c.667.667.667 1.333 0 2a422.952 422.952 0 0 0-23 26c-2.153 5.354-.32 8.687 5.5 10a10.258 10.258 0 0 0 4-1.5l21.5-25.5c1.389-1.727 3.056-3.061 5-4a1744.001 1744.001 0 0 1 34.5 19 865.5 865.5 0 0 1-22.5 27c-.5 6.167 2.333 9 8.5 8.5a2065.172 2065.172 0 0 0 27-29.5 254.647 254.647 0 0 0 45 15c-8.149 15.653-20.483 26.486-37 32.5-12.741 2.684-25.075 1.351-37-4-53.639-20.653-104.972-45.82-154-75.5 8.521-12.021 18.854-22.188 31-30.5 4.867-2.774 9.867-4.941 15-6.5Z" style="opacity:.953"/><path d="M37.5 313.5a145.05 145.05 0 0 1 17 .5 1629.975 1629.975 0 0 0 39 8c9.387.582 18.72.582 28 0 45.116 27.726 92.116 52.06 141 73a410.01 410.01 0 0 0 43 15c22.915 2.79 42.082-4.377 57.5-21.5a316.515 316.515 0 0 0 17.5-24.5 595.91 595.91 0 0 1 42-3.5c43.356-.643 60.856 20.357 52.5 63-2.365 5.702-6.199 10.202-11.5 13.5-15.033 9.182-31.367 14.848-49 17a641.111 641.111 0 0 1-106 4 2586.564 2586.564 0 0 1-207-19.5c-12.987-26.816-33.32-45.983-61-57.5a159.654 159.654 0 0 0-30.5-8.5c.063-13.379 2.397-26.379 7-39 3.479-10.315 10.312-16.981 20.5-20Z" style="opacity:.983"/><path d="M8.5 385.5c34.21 5.095 60.21 22.262 78 51.5a7713.719 7713.719 0 0 1-84-.5 1061.403 1061.403 0 0 0 6-51Z" style="opacity:.958"/><path d="M-.5 478.5v-22c.968-2.107 1.302-4.441 1-7a1111.59 1111.59 0 0 0 72 .5 35773.801 35773.801 0 0 0 168 17 958.156 958.156 0 0 0 149 3c28.256-1.563 54.922-8.729 80-21.5-2.273 17.492-11.273 30.659-27 39.5a129.311 129.311 0 0 1-36 13 302.11 302.11 0 0 1-47 6 870.137 870.137 0 0 1-106-3 6688.696 6688.696 0 0 1-162-18l-71-1a172.77 172.77 0 0 1-15-2c-2.754-.599-4.754-2.099-6-4.5Z" style="opacity:.968"/></svg>