<svg xmlns="http://www.w3.org/2000/svg" width="512" height="512" style="shape-rendering:geometricPrecision;text-rendering:geometricPrecision;image-rendering:optimizeQuality;fill-rule:evenodd;clip-rule:evenodd"><path d="M247.5 15.5c28.468-1.7 41.634 11.634 39.5 40-6.355 18.939-19.522 26.772-39.5 23.5-18.938-6.355-26.772-19.522-23.5-39.5 3.34-12.506 11.174-20.506 23.5-24Zm4 21c10.818-.683 15.651 4.317 14.5 15-3.04 6.103-7.874 8.27-14.5 6.5-6.103-3.04-8.269-7.874-6.5-14.5 1.694-2.858 3.861-5.191 6.5-7Z" style="opacity:.942"/><path d="M103.5 23.5h32v48h-32v-48ZM151.5 23.5h16v48h-16v-48Z" style="opacity:1"/><path d="M183.5 23.5c10.339-.166 20.672 0 31 .5-8 15.667-8 31.333 0 47-10.328.5-20.661.666-31 .5v-48ZM296.5 24.5c10.153-.994 20.486-1.328 31-1v48c-10.339.166-20.672 0-31-.5 6.08-11.554 7.58-23.72 4.5-36.5-.844-3.73-2.344-7.063-4.5-10Z" style="opacity:.975"/><path d="M343.5 23.5h16v48h-16v-48ZM375.5 23.5h32v48h-32v-48Z" style="opacity:1"/><path d="M119.5 87.5c37.335-.167 74.668 0 112 .5 11.602 6.557 23.936 8.224 37 5 4.038-.9 7.705-2.566 11-5 37.332-.5 74.665-.667 112-.5v24c-8.007-.166-16.007 0-24 .5-9.167 1.167-14.333 6.333-15.5 15.5a448.925 448.925 0 0 0 1 57c5.333 20 18 32.667 38 38 .5 13.663.667 27.329.5 41-16.003-.167-32.003 0-48 .5-9.167 1.167-14.333 6.333-15.5 15.5a1599.45 1599.45 0 0 0 0 80c1.167 9.167 6.333 14.333 15.5 15.5 15.997.5 31.997.667 48 .5v88h-100c-6.31-88.03-12.977-176.03-20-264a133.23 133.23 0 0 0 27-1.5c4.196-2.981 5.029-6.814 2.5-11.5a14.444 14.444 0 0 0-5.5-2.5 1599.45 1599.45 0 0 0-80 0c-6.847 1.866-8.68 6.032-5.5 12.5a9.454 9.454 0 0 0 2.5 1.5 133.23 133.23 0 0 0 27 1.5c-7.023 87.97-13.69 175.97-20 264h-100v-88c16.003.167 32.003 0 48-.5 9.167-1.167 14.333-6.333 15.5-15.5a1599.45 1599.45 0 0 0 0-80c-1.167-9.167-6.333-14.333-15.5-15.5-15.997-.5-31.997-.667-48-.5a840.27 840.27 0 0 1 .5-41c20-5.333 32.667-18 38-38a448.925 448.925 0 0 0 1-57c-1.167-9.167-6.333-14.333-15.5-15.5-7.993-.5-15.993-.666-24-.5v-24Z" style="opacity:.992"/><path d="M119.5 127.5h24v16h-24v-16ZM367.5 127.5h24v16h-24v-16Z" style="opacity:1"/><path d="M119.5 159.5h24c.166 8.007 0 16.007-.5 24-3.093 12.594-10.927 20.261-23.5 23v-47Z" style="opacity:.973"/><path d="M367.5 159.5h24v47c-12.573-2.739-20.407-10.406-23.5-23-.5-7.993-.666-15.993-.5-24Z" style="opacity:.974"/><path d="M119.5 279.5h48v16h-48v-16ZM343.5 279.5h48v16h-48v-16ZM119.5 311.5h48v48h-48v-48ZM343.5 311.5h48v48h-48v-48Z" style="opacity:1"/><path d="M119.5 479.5h98a118.435 118.435 0 0 1-1 16h-97v-16ZM293.5 479.5h98v16h-97a118.435 118.435 0 0 1-1-16Z" style="opacity:.995"/></svg>