<svg xmlns="http://www.w3.org/2000/svg" width="512" height="512" style="shape-rendering:geometricPrecision;text-rendering:geometricPrecision;image-rendering:optimizeQuality;fill-rule:evenodd;clip-rule:evenodd"><path d="M164.5 42.5c60.502 19.972 121.002 19.972 181.5 0a803.48 803.48 0 0 1 14.5 54 194.48 194.48 0 0 1-29 12c1.905-9.432-1.762-14.265-11-14.5-3.5.833-5.667 3-6.5 6.5a142.483 142.483 0 0 1-2 38 713.85 713.85 0 0 1-19 57c-4.743 16.529-2.743 32.195 6 47 54.97 61.29 88.47 132.957 100.5 215a1602.038 1602.038 0 0 1-32-5.5 42.479 42.479 0 0 0-13 0l-42 15a30.485 30.485 0 0 1-11 0 339.148 339.148 0 0 0-46-15.5 432.321 432.321 0 0 0-46 15.5 30.485 30.485 0 0 1-11 0l-42-15a42.479 42.479 0 0 0-13 0 1602.038 1602.038 0 0 1-32 5.5c12.52-81.846 46.02-153.512 100.5-215 8.742-14.79 10.742-30.456 6-47a713.85 713.85 0 0 1-19-57c-2.409-11.604-2.909-23.27-1.5-35-1.469-8.23-6.136-11.064-14-8.5a11.532 11.532 0 0 0-3.5 4.5 29.927 29.927 0 0 1-2 9 336.228 336.228 0 0 1-27.5-12c4.361-18.11 9.027-36.11 14-54Z" style="opacity:.987"/></svg>