<svg xmlns="http://www.w3.org/2000/svg" width="512" height="512" style="shape-rendering:geometricPrecision;text-rendering:geometricPrecision;image-rendering:optimizeQuality;fill-rule:evenodd;clip-rule:evenodd"><path d="M204.5 9.5h102a1451.396 1451.396 0 0 1-51 78 1451.396 1451.396 0 0 1-51-78Z" style="opacity:.954"/><path d="M187.5 24.5a924.792 924.792 0 0 1 44 63.5c-17.957-5.274-31.124-16.44-39.5-33.5a344.736 344.736 0 0 1-7.5-19.5c.93-3.557 1.93-7.057 3-10.5ZM322.5 24.5c3.041 3.649 4.207 7.982 3.5 13-6.856 24.514-21.856 41.847-45 52-.667-1-.667-2 0-3a3711.966 3711.966 0 0 0 41.5-62Z" style="opacity:.869"/><path d="M168.5 56.5c1.175-.219 2.175.114 3 1 8.443 19.775 22.109 34.775 41 45a3366.07 3366.07 0 0 1 1.5 82c2.919 5.525 7.419 7.358 13.5 5.5 2.5-1.167 4.333-3 5.5-5.5.5-23.998.667-47.998.5-72a156.276 156.276 0 0 1 22 9 156.276 156.276 0 0 1 22-9c-.167 16.67 0 33.337.5 50 3.821 7.282 9.321 8.782 16.5 4.5a29.517 29.517 0 0 0 2.5-4.5c.167-20.008.667-40.008 1.5-60 19.213-10.712 33.38-26.045 42.5-46 18.742 6.206 36.408 14.54 53 25a10576.532 10576.532 0 0 1-15 44 383.255 383.255 0 0 0-15 81l-2.5 63a4767.938 4767.938 0 0 1-106 29 6221.238 6221.238 0 0 1-106-29c2.692-64.674-8.308-126.841-33-186.5 2.368-3.021 5.368-5.355 9-7 13.948-7.646 28.282-14.146 43-19.5Z" style="opacity:.983"/><path d="M98.5 95.5c1.25.077 2.083.744 2.5 2 15.605 37.09 24.272 75.757 26 116 .667 20 .667 40 0 60a9075.792 9075.792 0 0 0-37.5 126 866.044 866.044 0 0 1-71-21l43.5-221c7.322-23.661 19.488-44.328 36.5-62ZM410.5 95.5c18.593 16.803 31.426 37.47 38.5 62l43.5 221a866.079 866.079 0 0 1-71 21 9075.792 9075.792 0 0 0-37.5-126c-4.895-61.476 3.938-120.81 26.5-178ZM143.5 289.5c37.372 9.79 74.705 19.79 112 30a4145.55 4145.55 0 0 1 112-29.5 59.78 59.78 0 0 1 5.5 20.5c.667 46.667.667 93.333 0 140-1.105 3.437-3.272 5.937-6.5 7.5-74.748.994-149.415.66-224-1-2.117-1.731-3.617-3.898-4.5-6.5a4897.801 4897.801 0 0 1 0-140 68.18 68.18 0 0 1 5.5-21Zm67 73c5.003-.17 8.837 1.83 11.5 6 1.141 27.884-11.359 46.717-37.5 56.5-11.638-.307-15.138-5.807-10.5-16.5 8.513-3.257 15.846-8.257 22-15 4.65-6.924 6.983-14.591 7-23 1.353-3.85 3.853-6.517 7.5-8Zm86 0c5.661.078 9.495 2.744 11.5 8 .282 12.731 5.448 22.898 15.5 30.5a60.087 60.087 0 0 1 15.5 8.5c3.736 9.2.736 14.533-9 16-19.259-4.588-32.259-16.254-39-35-2.275-7.185-2.942-14.518-2-22 2.109-2.622 4.609-4.622 7.5-6Z" style="opacity:.981"/><path d="M14.5 399.5a5073.934 5073.934 0 0 1 67 19.5 4.94 4.94 0 0 1 1 2.5 1075.73 1075.73 0 0 1-7.5 25c-1.388 1.054-2.888 1.22-4.5.5a939.664 939.664 0 0 1-61-21.5 447.014 447.014 0 0 0 5-26Z" style="opacity:.939"/><path d="M493.5 399.5h3a447.014 447.014 0 0 0 5 26 876.71 876.71 0 0 1-63 22 4.933 4.933 0 0 1-2.5-1 1077.685 1077.685 0 0 1-7.5-25 4.933 4.933 0 0 1 1-2.5 1430.451 1430.451 0 0 0 64-19.5Z" style="opacity:.942"/><path d="M148.5 479.5h214v22h-214v-22Z" style="opacity:.967"/></svg>