<svg xmlns="http://www.w3.org/2000/svg" width="512" height="512" style="shape-rendering:geometricPrecision;text-rendering:geometricPrecision;image-rendering:optimizeQuality;fill-rule:evenodd;clip-rule:evenodd"><path d="M343.5 21.5c22.773-.725 45.44.441 68 3.5a116.767 116.767 0 0 1 23 6c3.774 1.302 6.941 3.469 9.5 6.5a598.957 598.957 0 0 1 1.5 48.5 1113.018 1113.018 0 0 1-1 47c-53.66 17.755-107.327 17.921-161 .5a1536.397 1536.397 0 0 1-.5-96c5.759-4.63 12.259-7.796 19.5-9.5 13.643-3.242 27.31-5.409 41-6.5Z" style="opacity:.987"/><path d="M444.5 141.5c.666 5.991 1 12.157 1 18.5.13 6.935-.37 13.768-1.5 20.5-7.598 5.545-16.098 9.045-25.5 10.5-39.461 7.328-78.795 6.661-118-2-6.649-1.74-12.483-4.907-17.5-9.5a228.677 228.677 0 0 1 .5-37c53.876 17.551 107.543 17.218 161-1Z" style="opacity:.97"/><path d="M271.5 163.5c-1.643 15.508 5.023 26.008 20 31.5 23.441 7.229 47.441 10.396 72 9.5 25.683 1.117 50.683-2.383 75-10.5 13.267-5.359 18.601-15.193 16-29.5 12.702 2.589 22.536 9.256 29.5 20 1.439 8.295-1.394 14.795-8.5 19.5-12.607 7.872-26.274 13.206-41 16-47.333 10-94.667 10-142 0-14.187-2.838-27.52-7.838-40-15-12.872-9.874-13.206-20.207-1-31a288.43 288.43 0 0 1 20-10.5Z" style="opacity:.951"/><path d="M205.5 235.5c6.2-.484 12.2.349 18 2.5a129.038 129.038 0 0 1 15 12c19.941 10.412 37.607 7.412 53-9 10.171-6.822 20.504-7.155 31-1 10.047 9.247 17.214 20.413 21.5 33.5 9.663 28.321 15.997 57.321 19 87-68.422 9.151-136.922 9.318-205.5.5 3.021-30.76 9.521-60.927 19.5-90.5 3.769-9.422 8.769-18.088 15-26 4.169-3.656 8.669-6.656 13.5-9Zm2 30c2.493-.171 4.326.829 5.5 3 2.639 15.589 1.639 30.923-3 46-1.253 4.526-3.919 7.86-8 10-2.167-.833-3.667-2.333-4.5-4.5 6.244-10.607 8.911-22.107 8-34.5a133.295 133.295 0 0 0-1-15 11.948 11.948 0 0 1 3-5Zm102 0c3.425.257 5.425 2.09 6 5.5-1.916 13.694-1.083 27.194 2.5 40.5 1.517 2.843 3.017 5.677 4.5 8.5-2.767 5.8-5.934 5.967-9.5.5-6.613-14.287-8.946-29.287-7-45l1-7c.698-1.191 1.531-2.191 2.5-3Z" style="opacity:.978"/><path d="M49.5 350.5a84.9 84.9 0 0 1 13 .5 547.888 547.888 0 0 0 55.5 79.5l12.5 12.5c-24.7-.008-48.033-5.675-70-17-16.232-8.903-26.398-22.403-30.5-40.5-2.716-17.161 3.784-28.828 19.5-35Z" style="opacity:.959"/><path d="M455.5 350.5c25.929-.55 36.762 12.117 32.5 38-3.908 13.91-11.741 25.077-23.5 33.5-23.625 14.324-49.292 21.324-77 21 26.461-28.108 49.128-58.941 68-92.5Z" style="opacity:.961"/><path d="M74.5 352.5c123.113 82.656 246.28 82.656 369.5 0-21.223 39.485-49.056 73.985-83.5 103.5a205.863 205.863 0 0 1-37 22l136 1c4.477 2.944 4.811 6.277 1 10a42621.19 42621.19 0 0 1-413 0c-4.241-3.794-3.908-7.127 1-10l147-1c-22.507-10.003-42.34-23.837-59.5-41.5-24.184-25.397-44.684-53.397-61.5-84Z" style="opacity:.963"/><path d="M155.5 369.5c69.994 9.313 139.994 9.313 210 0a58.545 58.545 0 0 0 2 14.5c-60.682 24.54-122.682 28.206-186 11a300.438 300.438 0 0 1-29-10.5 430.467 430.467 0 0 0 3-15Z" style="opacity:.956"/><path d="M20.5 478.5c4.137-.354 8.137.146 12 1.5 2.667 3 2.667 6 0 9a49.226 49.226 0 0 1-14 0c-3.04-4.264-2.374-7.764 2-10.5Z" style="opacity:.85"/><path d="M475.5 478.5a112.97 112.97 0 0 1 15 .5c4.425 2.549 5.092 5.882 2 10-6 .667-12 .667-18 0-4.176-3.947-3.843-7.447 1-10.5Z" style="opacity:.855"/></svg>