<svg xmlns="http://www.w3.org/2000/svg" width="512" height="512" style="shape-rendering:geometricPrecision;text-rendering:geometricPrecision;image-rendering:optimizeQuality;fill-rule:evenodd;clip-rule:evenodd"><path d="M226.5 142.5c4.621-.507 8.954.326 13 2.5l41 27a1006.758 1006.758 0 0 1-26 45.5c-15.494-3.914-29.494-10.748-42-20.5a85.365 85.365 0 0 1-10.5-11.5c-1.158-6.533.176-12.533 4-18a292.779 292.779 0 0 1 13-19c2.114-2.621 4.614-4.621 7.5-6Z" style="opacity:.962"/><path d="M288.5 177.5c14.452 11.736 30.119 21.736 47 30-18.064 25.532-42.73 38.032-74 37.5-4.378-2.468-5.545-5.968-3.5-10.5 10.192-19.054 20.358-38.054 30.5-57Z" style="opacity:.953"/><path d="M38.5 178.5a72.368 72.368 0 0 1 12 .5c56.413 21.352 114.746 34.019 175 38a114.766 114.766 0 0 0 25 10c-6.681 11.961-4.014 21.294 8 28 24.774 1.63 46.774-5.37 66-21a338.483 338.483 0 0 0 21.5-22.5c39.476 14.962 80.309 23.796 122.5 26.5 15.375 4.042 24.542 13.875 27.5 29.5.5 7.659.666 15.326.5 23-158.231 25.251-316.231 23.751-474-4.5-9.714-27.842-10.548-56.008-2.5-84.5 1.462-7.091 4.628-13.258 9.5-18.5l9-4.5Z" style="opacity:.984"/><path d="M22.5 296.5c157.794 28.764 315.794 30.098 474 4 .736 13.027-4.264 23.194-15 30.5-13.323 7.775-27.656 12.775-43 15a563.405 563.405 0 0 1-89 6.5 4030.365 4030.365 0 0 1-209.5-11c-2.499.583-4.499 1.916-6 4a90.354 90.354 0 0 1-2 15c-3.969 5.558-9.469 8.058-16.5 7.5a407.174 407.174 0 0 1-89-6c-7.072-1.611-10.74-6.111-11-13.5l7-52Z" style="opacity:.971"/></svg>