<svg xmlns="http://www.w3.org/2000/svg" width="512" height="512" style="shape-rendering:geometricPrecision;text-rendering:geometricPrecision;image-rendering:optimizeQuality;fill-rule:evenodd;clip-rule:evenodd"><path d="m239.5 192.5 38 20a479.978 479.978 0 0 0-5 21 687.346 687.346 0 0 1-42.5-9c-1.762-12.207 1.405-22.874 9.5-32Z" style="opacity:.935"/><path d="M43.5 207.5a12938.765 12938.765 0 0 1 222 40l2 1a197.473 197.473 0 0 0-5 15 26279.255 26279.255 0 0 1-225-36 120.325 120.325 0 0 1 6-20Z" style="opacity:.939"/><path d="M291.5 218.5a1237.846 1237.846 0 0 1 26 10.5 283.649 283.649 0 0 1-12 40.5l-3 1a974.394 974.394 0 0 0-25-4 657.11 657.11 0 0 0 14-48Z" style="opacity:.935"/><path d="M331.5 233.5a348.15 348.15 0 0 0 50 9.5c21.303 1.858 42.303.191 63-5 3.054-.821 6.054-.655 9 .5-5.922 12.422-15.255 21.255-28 26.5-14.13 5.626-28.797 8.96-44 10a447.717 447.717 0 0 1-61-1.5 443.715 443.715 0 0 0 11-40Z" style="opacity:.953"/><path d="M33.5 242.5a27380.663 27380.663 0 0 1 265 42.5c34.908 6.407 69.908 7.074 105 2 24.594-3.656 44.428-15.156 59.5-34.5l5-10c5.111 5.882 8.944 12.549 11.5 20-25.787 36.741-61.121 57.908-106 63.5-27.654 3.253-54.988 1.586-82-5a411.88 411.88 0 0 0-61-21c-34.738-6.763-68.738-4.096-102 8-29.084 6.255-58.084 5.921-87-1-2.151-.265-3.818-1.265-5-3-5.338-20.331-6.338-40.831-3-61.5Z" style="opacity:.968"/><path d="M478.5 287.5c3.89 13.069.223 23.569-11 31.5-58.002 42.004-121.335 52.004-190 30a1801.16 1801.16 0 0 0-45-16c-24.496-6.201-49.162-6.534-74-1a86.532 86.532 0 0 0-20 6 14.444 14.444 0 0 0-2.5 5.5 128.507 128.507 0 0 0-.5 16h-96v-37c40.36 8.709 80.026 6.209 119-7.5 27.904-5.431 55.571-4.431 83 3a344.68 344.68 0 0 1 39 15c27.705 8.708 56.038 11.708 85 9 44.98-3.574 82.647-21.74 113-54.5Z" style="opacity:.948"/></svg>