<svg xmlns="http://www.w3.org/2000/svg" width="512" height="512" style="shape-rendering:geometricPrecision;text-rendering:geometricPrecision;image-rendering:optimizeQuality;fill-rule:evenodd;clip-rule:evenodd"><path d="M150.5 31.5h34c.612 29.116 7.778 56.45 21.5 82 19.255 28.752 44.755 36.252 76.5 22.5 14.912-9.953 25.412-23.453 31.5-40.5 7.439-20.695 11.606-42.028 12.5-64h34a139092.77 139092.77 0 0 0 15.5 157 75.963 75.963 0 0 0 4 11l27 40c.5 79.999.667 159.999.5 240h-304c-.167-79.667 0-159.334.5-239l27-41a75.963 75.963 0 0 0 4-11 139092.77 139092.77 0 0 0 15.5-157Z" style="opacity:.996"/></svg>