<svg xmlns="http://www.w3.org/2000/svg" width="512" height="512" style="shape-rendering:geometricPrecision;text-rendering:geometricPrecision;image-rendering:optimizeQuality;fill-rule:evenodd;clip-rule:evenodd"><path d="M511.5 455.5v7c-4.576 4.123-9.909 6.956-16 8.5a388.46 388.46 0 0 1-34 8 2713.188 2713.188 0 0 1-178 24.5c-51.185.606-87.019-22.394-107.5-69l-8-22a1125.095 1125.095 0 0 0-16-55c-18.693-36.361-44.86-66.195-78.5-89.5a50.217 50.217 0 0 0-16.5-6.5c-2.667-.333-4.667.667-6 3a591.322 591.322 0 0 1-1.5 22 7300.36 7300.36 0 0 0 7 203h-19A137117.89 137117.89 0 0 0 6 230.5a542.462 542.462 0 0 0-6.5-32v-22c2.582-10.168 7.082-19.501 13.5-28C51.809 107.683 85.642 63.183 114.5 15a1186.094 1186.094 0 0 1 182-5c10.103.61 19.77 2.943 29 7 4.44 3.013 4.94 6.513 1.5 10.5-.25 9.418-1.25 18.75-3 28-3.114 16.178-12.281 21.678-27.5 16.5-46.3-3.444-92.634-4.11-139-2-21.846.787-43.179 4.454-64 11-6.118 2.139-11.285 5.639-15.5 10.5-.217 64.461 16.116 124.461 49 180a461.312 461.312 0 0 0 31 41c19.364 26.438 28.031 56.104 26 89 2.697 4.936 6.864 7.77 12.5 8.5a274.842 274.842 0 0 0 55 0 2349.219 2349.219 0 0 1 118-10.5 189.305 189.305 0 0 1 49 7.5 2858.211 2858.211 0 0 0 65 30c10.595 4.459 19.928 10.626 28 18.5Zm-466-319c1.91 1.475 3.076 3.475 3.5 6a629.828 629.828 0 0 1 12 91 1607.27 1607.27 0 0 1-44-36c-1.127-9.366.207-18.366 4-27 6.448-12.608 14.615-23.942 24.5-34Z" style="opacity:.975"/><path d="M84.5 101.5c15.051 19.095 26.218 40.428 33.5 64 10.842 35.068 17.342 70.734 19.5 107a202.24 202.24 0 0 1-10.5-16c-3.838-37.2-12.505-73.2-26-108a596.823 596.823 0 0 0-15-29 708.185 708.185 0 0 0-1.5-18Z" style="opacity:.871"/><path d="M285.5 374.5a370.762 370.762 0 0 1 57 3.5c13.358 2.117 25.692 6.784 37 14a121.19 121.19 0 0 1-22 0c-17.363-5.708-35.196-8.208-53.5-7.5-11.518.09-23.018.59-34.5 1.5a3952.249 3952.249 0 0 1-79 7.5c-.284-3.277.049-6.443 1-9.5a4488.764 4488.764 0 0 1 94-9.5Z" style="opacity:.878"/></svg>