<svg xmlns="http://www.w3.org/2000/svg" width="512" height="512" style="shape-rendering:geometricPrecision;text-rendering:geometricPrecision;image-rendering:optimizeQuality;fill-rule:evenodd;clip-rule:evenodd"><path d="M511.5 354.5v29a766.043 766.043 0 0 1-70 20.5 375.146 375.146 0 0 1-38 6 4621.94 4621.94 0 0 1-136 0l-27-21a80.75 80.75 0 0 0-23-9 8207.792 8207.792 0 0 0-218-1.5v-345c1.815-3.979 4.815-6.812 9-8.5C36.927 23.623 55.427 36.456 64 63.5l1 111c1.77 24.052 14.27 39.219 37.5 45.5 14.931 2.567 29.598 1.567 44-3 17.333-8.822 26.5-22.988 27.5-42.5.5-33.998.667-67.998.5-102 18.336-.167 36.67 0 55 .5 4.167 1.5 7 4.333 8.5 8.5.108 26.355.775 52.688 2 79 1.901 10.799 6.234 20.465 13 29l83.5 83.5c8.535 6.766 18.201 11.099 29 13a1826.518 1826.518 0 0 0 79 2c36.432 8.082 58.766 30.248 67 66.5Z" style="opacity:.995"/><path d="M94.5 72.5h50c.167 36.002 0 72.002-.5 108-5.163 9.993-13.329 13.66-24.5 11-11.171 2.66-19.337-1.007-24.5-11-.5-35.998-.667-71.998-.5-108Z" style="opacity:.996"/><path d="M-.5 408.5c71.667-.167 143.334 0 215 .5a38.577 38.577 0 0 1 13 6 669.768 669.768 0 0 1 27 22 19.24 19.24 0 0 0 9 3c47.012.89 94.012.556 141-1 36.784-3.946 72.451-12.446 107-25.5v40c-4.059 6.061-9.725 10.227-17 12.5-27.554 11.388-56.221 18.055-86 20a6159.42 6159.42 0 0 1-157 0c-20.564-4.45-37.564-14.783-51-31-25.665-.5-51.331-.667-77-.5-1.605 9.763-4.438 19.096-8.5 28l-5.5 3.5c-33.667.667-67.333.667-101 0-4.185-1.688-7.185-4.521-9-8.5v-69Z" style="opacity:.99"/></svg>