<svg xmlns="http://www.w3.org/2000/svg" width="512" height="512" style="shape-rendering:geometricPrecision;text-rendering:geometricPrecision;image-rendering:optimizeQuality;fill-rule:evenodd;clip-rule:evenodd"><path d="M165.5 9.5a79.539 79.539 0 0 1 17.5 1c2.997 14.64 5.997 29.307 9 44a224.391 224.391 0 0 0 11 36 1939.516 1939.516 0 0 0 30 51 403.912 403.912 0 0 1 17 34c4.14 2.892 7.974 2.558 11.5-1a395.61 395.61 0 0 1 11.5-24l35-60a354.257 354.257 0 0 0 7-20 962.77 962.77 0 0 0 13-60 41 41 0 0 1 18 0c.303 33.38 1.636 66.713 4 100 6.796 30.27 5.796 60.27-3 90a1519.419 1519.419 0 0 1-22 58c-4.219 17.695-2.219 34.695 6 51a1579.163 1579.163 0 0 0 25 47 164.964 164.964 0 0 1 9.5 25.5c.061 1.711-.606 3.044-2 4-33.95 24.087-59.783 54.921-77.5 92.5a134.22 134.22 0 0 0-6 22 11.333 11.333 0 0 1-3.5 1.5 259.882 259.882 0 0 1-45-1c-4.719-21.935-13.885-41.768-27.5-59.5-16.373-22.04-35.707-41.04-58-57-.667-1.667-.667-3.333 0-5a271.043 271.043 0 0 1 27-56c8.914-14.818 14.08-30.818 15.5-48a75.083 75.083 0 0 0-2.5-17 1519.419 1519.419 0 0 1-22-58c-7.006-21.832-9.339-44.166-7-67a354.864 354.864 0 0 0 5-33 5161.735 5161.735 0 0 0 3.5-91Z" style="opacity:.987"/></svg>