<svg xmlns="http://www.w3.org/2000/svg" width="682.667" height="682.667" version="1.0" viewBox="0 0 512 512"><path d="m167.5 14.7-19 14.8V79c0 46.5.1 49.9 2 55.5 3.7 11.4 10.2 19.2 46 55.5l34 34.5.3-6.5c.3-6.4-.1-7.3-18.8-53.7L193 117V11h126V116.7l-19 47.1c-18.5 45.9-19 47.3-19 54.3v7.2l8.7-9.4c4.8-5.2 20-20.7 33.9-34.4 25.8-25.7 32.5-33.7 37.2-44.7l2.6-6.3.6-47.5c.3-26.1.3-48.9 0-50.5-.5-2.4-4-5.7-18.4-17.1L327.7 1.3l-12-.7c-6.6-.3-38.4-.6-70.6-.6h-58.7l-18.9 14.7z"/><path d="M92.4 28c-15 2-30.9 9.9-42 20.9-12 12-19.4 27.2-21.5 44.4-.6 5.1-.9 54.6-.7 132.2l.3 124 2.3 4.7c1.3 2.5 4.3 6.4 6.7 8.7 6.9 6.4 10.9 7.1 39.2 7.1H101V243.1c0-114.1.2-127.1 1.6-128.5 1.9-1.9 4.4-2 6.7-.4 1.5 1.2 1.7 11 1.9 131.3.3 123 .4 130.3 2.1 135 3.8 10.5 12.9 19.6 23.2 23.2 4.4 1.6 9.1 1.8 42.5 1.8 37.1 0 37.5 0 41.7-2.3 2.4-1.2 5.5-4.1 7-6.4l2.8-4.2.3-78.6.2-78.6-38.1-36.3c-20.9-20-39.9-38.7-42.1-41.5-2.3-2.8-5.7-8.4-7.5-12.4-6-13-6.3-15.5-6.3-69.5V27l-19.2.1c-10.6.1-22 .5-25.4.9zm95.4 276.6c2.8 2 3 6.9.3 8.4-2.6 1.4-45.6 1.4-48.2 0-2.7-1.5-2.5-6.4.3-8.4 3.3-2.3 44.3-2.3 47.6 0zM217 27.8c-3.7 1.1-4 3-4 27.8 0 26.3.2 27.4 5.5 27.4 1.4 0 10.3-4.8 20-10.6l17.6-10.7 17.5 10.7c9.7 5.8 18.6 10.6 19.9 10.6 5.3 0 5.5-1.1 5.5-27.4 0-26.1-.3-27.9-5.1-27.8-1.3 0-10.4 4.8-20.1 10.6L256 49.1l-17.2-10.3c-18.9-11.4-19.6-11.7-21.8-11zM374.8 78.7l-.3 50.8-2.8 8c-5.7 16.8-7.3 18.6-56.9 65.7L281 235.4l.2 78.7.3 78.7 3 4.3c1.7 2.3 4.8 5.2 7 6.3 3.9 2 5.4 2.1 42 2.1 37.4 0 38.1 0 43.7-2.3 11.9-4.8 21-16.5 22.8-29.3.6-3.6 1-60.9 1-132.1 0-112.9.2-125.8 1.6-127.2 2.1-2.1 4.7-2 6.7.2 1.6 1.7 1.7 12.1 1.7 128.6v126.7l26.8-.3c30.5-.3 31.3-.5 38.9-9.2 7.2-8.2 6.8-.1 6.8-141.1 0-143.9.5-134.2-8.3-151.8-6.2-12.4-18.7-25.2-30.9-31.5-13.7-7.1-20-8.2-46.4-8.2h-22.8l-.3 50.7zm-2.6 226c2.4 2.2 2.4 6.9-.1 8.3-1.2.6-10.8 1-24.1 1s-22.9-.4-24.1-1c-2.3-1.3-2.6-6.2-.3-8.4 1.3-1.4 4.9-1.6 24.1-1.6 19.7 0 22.9.2 24.5 1.7zM242 329.5V349h28v-39h-28v19.5z"/><path d="M241.8 376.2c-.3 14.9-.6 17.9-2.4 21.9-3.1 6.7-7.8 11.4-14.6 14.9l-6.1 3H129v47c0 45.4.1 47 1.9 48 1.3.6 22.2 1 61 1H251v-37.4l-9.5-9.7c-5.2-5.3-9.5-10.4-9.5-11.3 0-2.1 3.5-5.6 5.7-5.6 1 0 5.5 3.7 10 8.2l8.3 8.3 8.3-8.3c4.5-4.5 9-8.2 10-8.2 2.2 0 5.7 3.5 5.7 5.6 0 .9-4.3 6-9.5 11.3l-9.5 9.7V512h59.3c49.6 0 59.6-.2 61.3-1.4 1.8-1.4 1.9-3.2 2.2-48l.3-46.5-46.3-.3c-45.9-.3-46.3-.3-50.5-2.6-6.6-3.5-11-7.9-14-14-2.7-5.5-2.8-6.4-3.1-23l-.4-17.2h-27.6l-.4 17.2z"/></svg>