<svg xmlns="http://www.w3.org/2000/svg" width="512" height="512" style="shape-rendering:geometricPrecision;text-rendering:geometricPrecision;image-rendering:optimizeQuality;fill-rule:evenodd;clip-rule:evenodd"><path d="M291.5 55.5c26.614-3.764 46.447 5.903 59.5 29 .092 19.366.759 38.7 2 58 4.652 14.923 14.819 23.089 30.5 24.5 34.665.5 69.332.667 104 .5.328 27.241-.005 54.407-1 81.5a61307.416 61307.416 0 0 1-267 80c-24.421 5.749-44.588-1.085-60.5-20.5-5.162-6.347-9.328-13.347-12.5-21 12.644-2.656 23.977-7.99 34-16a667.23 667.23 0 0 1 22 21.5c10.167 3.167 13.667-.333 10.5-10.5l-18-18c-.667-.667-.667-1.333 0-2a598.848 598.848 0 0 1 24.5-16 731.112 731.112 0 0 1 23 22.5c10.167 3.167 13.667-.333 10.5-10.5L232.5 238a524.06 524.06 0 0 1 26-16.5 796.785 796.785 0 0 1 24 23.5c10.167 3.167 13.667-.333 10.5-10.5L271.5 213c8.97-4.444 14.136-11.611 15.5-21.5l1-132c.69-1.85 1.856-3.184 3.5-4Z" style="opacity:.986"/><path d="M367.5 87.5c32.002-.167 64.002 0 96 .5 12.5 3.167 20.333 11 23.5 23.5.5 13.329.667 26.663.5 40-36.668.167-73.335 0-110-.5-4.5-1.833-7.667-5-9.5-9.5-.5-17.997-.667-35.997-.5-54Z" style="opacity:.994"/><path d="M484.5 264.5h4a159.523 159.523 0 0 0 1.5 27 369.737 369.737 0 0 1 13.5 92c-127.667.167-255.334 0-383-.5-36.496-2.999-71.33-12.165-104.5-27.5-3.916-35.05 10.917-57.55 44.5-67.5 23.333-.667 46.667-.667 70 0 8.614 23.946 24.281 41.613 47 53 17.952 7.012 35.952 7.012 54 0a22380.4 22380.4 0 0 0 253-76.5Z" style="opacity:.988"/><path d="M511.5 406.5v45c-.816 1.644-2.15 2.81-4 3.5-14.663.5-29.33.667-44 .5a74.099 74.099 0 0 0-1.5-19c-4.333-5.333-8.667-5.333-13 0a74.099 74.099 0 0 0-1.5 19h-24a74.099 74.099 0 0 0-1.5-19c-4.333-5.333-8.667-5.333-13 0a74.099 74.099 0 0 0-1.5 19h-24a74.099 74.099 0 0 0-1.5-19c-4.333-5.333-8.667-5.333-13 0a74.099 74.099 0 0 0-1.5 19c-14.67.167-29.337 0-44-.5-1.833-.5-3-1.667-3.5-3.5-.5-6.658-.666-13.325-.5-20h-56c.166 6.675 0 13.342-.5 20a9.454 9.454 0 0 1-1.5 2.5 250.357 250.357 0 0 1-38 1.5 74.099 74.099 0 0 0-1.5-19c-4.333-5.333-8.667-5.333-13 0a74.099 74.099 0 0 0-1.5 19h-24a74.099 74.099 0 0 0-1.5-19c-4.333-5.333-8.667-5.333-13 0a74.099 74.099 0 0 0-1.5 19h-25a162.597 162.597 0 0 0-.5-18c-3.86-6.09-8.193-6.423-13-1a74.099 74.099 0 0 0-1.5 19 688.237 688.237 0 0 0-29-2 59.9 59.9 0 0 1 3-15c-2.441-7.818-6.941-9.485-13.5-5a90.093 90.093 0 0 0-5 18 2031.236 2031.236 0 0 0-27.5-5 239.365 239.365 0 0 1 3-15c-1.27-6.088-4.937-8.255-11-6.5l-2.5 2.5a109.048 109.048 0 0 0-4 14c-13.599-1.698-26.766-5.532-39.5-11.5-.566-.995-1.233-1.828-2-2.5v-10a3556.917 3556.917 0 0 0 8.5-38 39.795 39.795 0 0 1 7-8c33.298 14.7 68.131 23.533 104.5 26.5a39557.187 39557.187 0 0 0 385 2c2.858 1.694 5.191 3.861 7 6.5Z" style="opacity:.986"/></svg>