<svg xmlns="http://www.w3.org/2000/svg" width="512" height="512" style="shape-rendering:geometricPrecision;text-rendering:geometricPrecision;image-rendering:optimizeQuality;fill-rule:evenodd;clip-rule:evenodd"><path d="M97.5-.5h48v52h-53c-.167-14.67 0-29.337.5-44 .45-3.278 1.95-5.944 4.5-8Z" style="opacity:.951"/><path d="M161.5-.5h35v52h-35v-52Z" style="opacity:.961"/><path d="M212.5-.5h47c2.196 1.354 3.696 3.354 4.5 6 .5 15.33.667 30.663.5 46h-52v-52Z" style="opacity:.968"/><path d="M259.5 511.5h-162c-3.455-3.174-5.288-7.174-5.5-12l-56-320a74.209 74.209 0 0 1-2-22A3978.256 3978.256 0 0 1 86.5 68c59.332-.5 118.666-.667 178-.5-.167 64.334 0 128.668.5 193a4158.622 4158.622 0 0 1 54.5-54 6926.479 6926.479 0 0 1 121 121.5A22134.817 22134.817 0 0 1 264 505.5c-.804 2.646-2.304 4.646-4.5 6Zm-124-418c28.669-.167 57.335 0 86 .5 2.534.516 4.7 1.683 6.5 3.5a386.162 386.162 0 0 1 1.5 38.5c.139 12.9-.361 25.733-1.5 38.5a639.955 639.955 0 0 1-47.5 37.5c-3.43.459-6.43-.541-9-3a1105.125 1105.125 0 0 1-42.5-35.5 650.356 650.356 0 0 1-1-71c.646-4.666 3.146-7.666 7.5-9Zm41 43c7.357.184 10.524 3.851 9.5 11-2.226 4.361-5.726 5.861-10.5 4.5-6.606-5.619-6.273-10.786 1-15.5Z" style="opacity:.991"/><path d="M144.5 109.5h69c.167 19.003 0 38.003-.5 57a653.595 653.595 0 0 1-34 27 1034.037 1034.037 0 0 1-34-26c-.5-19.33-.667-38.664-.5-58Zm32 27c-7.273 4.714-7.606 9.881-1 15.5 4.774 1.361 8.274-.139 10.5-4.5 1.024-7.149-2.143-10.816-9.5-11Z" style="opacity:.96"/><path d="M358.5 169.5c2.925-.04 5.591.793 8 2.5L476 281.5c1.483 3.202 1.817 6.536 1 10a406.15 406.15 0 0 1-23.5 24.5c-.667.667-1.333.667-2 0L332 196.5c-.667-1-.667-2 0-3 8.156-9.001 16.989-17.001 26.5-24Z" style="opacity:.963"/></svg>