<svg xmlns="http://www.w3.org/2000/svg" width="512" height="512" style="shape-rendering:geometricPrecision;text-rendering:geometricPrecision;image-rendering:optimizeQuality;fill-rule:evenodd;clip-rule:evenodd"><path d="M199.5 36.5a18.437 18.437 0 0 1 6 .5c21.195 19.986 45.862 25.653 74 17 9.997-3.67 18.664-9.336 26-17 2-.667 4-.667 6 0l82 30c12.78 6.447 22.614 15.947 29.5 28.5A17515.498 17515.498 0 0 1 469.5 213c-.143 2.151-1.143 3.818-3 5a2786.863 2786.863 0 0 1-72 15.5c.167 77.667 0 155.334-.5 233a6.978 6.978 0 0 1-3.5 2.5c-90 .667-180 .667-270 0a6.978 6.978 0 0 1-3.5-2.5c-.5-77.666-.667-155.333-.5-233a2785.96 2785.96 0 0 1-72-15.5c-2.707-1.864-3.54-4.364-2.5-7.5a12102.007 12102.007 0 0 0 46-115c5.766-10.432 13.6-18.932 23.5-25.5a4794.373 4794.373 0 0 1 88-33.5Zm11 20c25.969 15.061 52.969 16.895 81 5.5 3.079-2.209 6.079-3.709 9-4.5-11.086 24.877-30.086 35.044-57 30.5-16.389-4.89-27.389-15.39-33-31.5Z" style="opacity:.993"/></svg>