<svg xmlns="http://www.w3.org/2000/svg" width="512" height="512" style="shape-rendering:geometricPrecision;text-rendering:geometricPrecision;image-rendering:optimizeQuality;fill-rule:evenodd;clip-rule:evenodd"><path d="M124.5 11.5c87.334-.167 174.667 0 262 .5a395.818 395.818 0 0 1 1 39.5h-264a411.211 411.211 0 0 1 1-40Z" style="opacity:1"/><path d="M121.5 59.5h268a171926.574 171926.574 0 0 0 107.5 393c.978 3.169.478 6.003-1.5 8.5a1437.983 1437.983 0 0 1-87 12.5 78494.099 78494.099 0 0 1-61.5-298c-1.224-2.973-3.224-3.64-6-2a12.494 12.494 0 0 0 0 7L402.5 480c.061 1.711-.606 3.044-2 4a4670.248 4670.248 0 0 1-118 7.5c-5.233-102.658-10.4-205.325-15.5-308-1.224-2.973-3.224-3.64-6-2l-.5 11c5.267 101.663 10.1 203.33 14.5 305l-1.5 1.5a6369.511 6369.511 0 0 1-163-7c-1.978-2.497-2.478-5.331-1.5-8.5A26062.348 26062.348 0 0 0 162.5 154l-.5-4.5c-2.776-1.64-4.776-.973-6 2a26644.558 26644.558 0 0 1-52 320c-1.77.776-3.603.61-5.5-.5a6233.74 6233.74 0 0 0-83-32c-1.167-.5-2-1.333-2.5-2.5.01-3.725.677-7.392 2-11a75182.784 75182.784 0 0 0 106.5-366Z" style="opacity:.988"/></svg>