<svg xmlns="http://www.w3.org/2000/svg" width="512" height="512" style="shape-rendering:geometricPrecision;text-rendering:geometricPrecision;image-rendering:optimizeQuality;fill-rule:evenodd;clip-rule:evenodd"><path d="M511.5 279.5v20c-7.13 22.637-21.797 38.47-44 47.5-8.858.193-15.025 4.359-18.5 12.5-8.394 10.577-19.228 14.41-32.5 11.5a154.386 154.386 0 0 1-16-6.5 10.258 10.258 0 0 0-4 1.5c-7.707 11.44-18.541 17.273-32.5 17.5-10.151-.036-19.484-2.702-28-8-1.041-4.786-3.874-7.786-8.5-9-2.493 1.261-4.326 3.261-5.5 6-7.648 7.276-16.814 10.942-27.5 11-24.749-2.077-46.416-11.244-65-27.5-8.026-1.889-16.026-1.556-24 1-31.999 13.125-65.166 21.958-99.5 26.5-3.425-.419-6.091-2.086-8-5-1.39-6.127-5.056-10.127-11-12-7.03 3.017-14.03 6.017-21 9a189.671 189.671 0 0 1-39.5-8.5c-13.117-4.287-22.117-12.787-27-25.5v-15c1.248-4.05 2.914-8.05 5-12-2.291-4.225-3.958-8.558-5-13v-8c1.825-7.307 5.492-13.64 11-19-6.425-31.63.075-60.296 19.5-86-4.663-31.921 8.837-44.754 40.5-38.5a63.058 63.058 0 0 1 17 7c11.073 13.116 25.24 19.283 42.5 18.5 12.205.661 23.705-1.839 34.5-7.5a25.55 25.55 0 0 0 6.5-5.5c-3.369-25.965 7.798-37.132 33.5-33.5 14.298 4.813 25.631 13.48 34 26a84.635 84.635 0 0 0 7.5 4.5c3.296-1.804 6.796-2.304 10.5-1.5a966.831 966.831 0 0 1-37.5 36.5c-4.524 7.236-2.69 11.903 5.5 14 2.291-.122 4.291-.955 6-2.5a2013.417 2013.417 0 0 1 38-37.5 55.482 55.482 0 0 0 7 5.5c2.18.419 4.346.252 6.5-.5 2.724.303 5.224 1.136 7.5 2.5a966.831 966.831 0 0 1-37.5 36.5c-5.152 7.21-3.486 12.21 5 15a40.79 40.79 0 0 0 5.5-2.5 1019.054 1019.054 0 0 1 38.5-37.5l3 2c3.346-1.978 6.846-2.311 10.5-1a1700.256 1700.256 0 0 1-32.5 37 66.615 66.615 0 0 0-2.5 6c1.824 6.08 5.824 8.247 12 6.5l36.5-40.5c2.457 4.491 5.957 7.991 10.5 10.5a6026.397 6026.397 0 0 1-87 98c5.876 2.476 11.876 3.643 18 3.5a12388.513 12388.513 0 0 1 88.5-99c4.79 10.332 12.956 16.165 24.5 17.5 3.969.853 7.969 1.519 12 2a648.165 648.165 0 0 1 70 4c11.968 1.433 22.968 5.433 33 12a18.778 18.778 0 0 1 4.5 5.5 536.29 536.29 0 0 0 9.5 28Zm-19 5c1.875 14.451-3.125 26.284-15 35.5l-10 7a68.21 68.21 0 0 1-15 4l-11 7-12 15c-8.643.897-16.31-1.436-23-7-7.809-.624-15.142 1.043-22 5-7.746 13.779-19.079 17.779-34 12-8.164-13.392-19.83-17.725-35-13-3.101 3.022-5.601 6.522-7.5 10.5-4.226 3.257-9.059 4.923-14.5 5-21.574-3.456-40.574-12.289-57-26.5-11.305-3.219-22.638-3.219-34 0a493.695 493.695 0 0 1-90.5 25.5c-7.658-12.912-18.824-17.745-33.5-14.5a3508.26 3508.26 0 0 1-17 6.5c-13.533-1.123-26.2-4.957-38-11.5-6.115-4.959-7.615-11.126-4.5-18.5 2.531-3.56 4.364-7.393 5.5-11.5a1064.188 1064.188 0 0 0-7-17c.404-3.28 1.904-5.78 4.5-7.5A198.227 198.227 0 0 0 74.5 306c21.147-1.103 42.314-2.27 63.5-3.5a282.232 282.232 0 0 1 63.5 7.5 532.914 532.914 0 0 0 119 28c40.368 4.725 79.701.391 118-13 19.555-7.562 36.389-19.062 50.5-34.5a30.137 30.137 0 0 0 3.5-6Z" style="opacity:.974"/></svg>