<svg xmlns="http://www.w3.org/2000/svg" width="512" height="512" style="shape-rendering:geometricPrecision;text-rendering:geometricPrecision;image-rendering:optimizeQuality;fill-rule:evenodd;clip-rule:evenodd"><path d="M144.5 39.5c61.334-.167 122.668 0 184 .5 2.602.935 4.102 2.768 4.5 5.5-.165 7.98-.331 15.98-.5 24-16.003.167-32.003 0-48-.5-2.159-9.653-7.826-16.32-17-20a4346.941 4346.941 0 0 0-128-2c.824-3.173 2.491-5.673 5-7.5Z" style="opacity:.978"/><path d="M80.5 63.5c61.334-.167 122.668 0 184 .5 2.602.935 4.102 2.768 4.5 5.5a267.524 267.524 0 0 1-.5 18h-194a71.744 71.744 0 0 1 3.5-22c.995-.566 1.828-1.233 2.5-2Z" style="opacity:.993"/><path d="M283.5 84.5h48a978.408 978.408 0 0 1-17.5 137 342.85 342.85 0 0 0-4 75c2.259 39.081 21.759 64.914 58.5 77.5a582.494 582.494 0 0 0 40 7c17.02 3.187 26.687 13.353 29 30.5-19.345.333-38.678 0-58-1-8.058-11.372-19.058-18.206-33-20.5a226.563 226.563 0 0 1-43-8c-17.346-6.013-29.513-17.513-36.5-34.5a106.083 106.083 0 0 1-6-28 335.776 335.776 0 0 1 5-80 927.375 927.375 0 0 0 17.5-155Z" style="opacity:.972"/><path d="M73.5 103.5h194a917.253 917.253 0 0 1-17.5 142 342.85 342.85 0 0 0-4 75c2.296 40.61 22.796 66.777 61.5 78.5a497.094 497.094 0 0 0 38 6c16.47 3.636 25.803 13.802 28 30.5-41.668.167-83.335 0-125-.5-56.87-13.504-114.536-19.837-173-19a1244.863 1244.863 0 0 0 12-53.5c3.81-23.97 3.977-47.97.5-72a1291.92 1291.92 0 0 1-14-100 813.978 813.978 0 0 1-.5-87Z" style="opacity:.992"/><path d="M387.5 427.5h51a67.69 67.69 0 0 1-1.5 17l-2.5 2.5c-14.996.5-29.996.667-45 .5a86.076 86.076 0 0 0-2-20Z" style="opacity:.977"/><path d="M74.5 431.5c28.74-.585 57.407.581 86 3.5 33.21 4.176 66.21 9.509 99 16 38.332.5 76.665.667 115 .5a67.69 67.69 0 0 1-1.5 17l-2.5 2.5c-43.333.667-86.667.667-130 0a3209.095 3209.095 0 0 1-66.5-14.5l-1 11c-.5 1.167-1.333 2-2.5 2.5-29.333.667-58.667.667-88 0-2.602-.935-4.102-2.768-4.5-5.5a322.284 322.284 0 0 1-3.5-33Z" style="opacity:.968"/></svg>