<svg xmlns="http://www.w3.org/2000/svg" width="512" height="512" style="shape-rendering:geometricPrecision;text-rendering:geometricPrecision;image-rendering:optimizeQuality;fill-rule:evenodd;clip-rule:evenodd"><path d="M151.5 17.5c2.619-.268 5.119.065 7.5 1a4016.931 4016.931 0 0 0 70 81c.667.667.667 1.333 0 2a13386.934 13386.934 0 0 1-100.5-45c-2.317-19.05 5.35-32.05 23-39Z" style="opacity:.944"/><path d="M358.5 17.5c15.863 1.69 25.697 10.357 29.5 26a42.479 42.479 0 0 1 0 13 9490.483 9490.483 0 0 0-100 45c-.315-1.408.018-2.741 1-4a7728.095 7728.095 0 0 0 69.5-80Z" style="opacity:.945"/><path d="M183.5 23.5c37.691 15.716 76.358 19.216 116 10.5a506.276 506.276 0 0 0 34-10 9177.112 9177.112 0 0 1-75 86.5 1537.676 1537.676 0 0 1-75-87Z" style="opacity:.954"/><path d="M118.5 69.5a5422.807 5422.807 0 0 1 131 57c1 28.325 1.333 56.659 1 85-45.005.333-90.005 0-135-1a216.264 216.264 0 0 1-9.5-45 592 592 0 0 1-3.5-88 89.678 89.678 0 0 0 16-8ZM394.5 69.5a170.035 170.035 0 0 1 19 8 525.47 525.47 0 0 1-6.5 110 194.244 194.244 0 0 1-6 23c-45.095.997-90.261 1.33-135.5 1v-85a3724.661 3724.661 0 0 0 129-57Z" style="opacity:.987"/><path d="M84.5 87.5c1.76 3.2 2.594 6.867 2.5 11a6142.918 6142.918 0 0 0 2.5 54h-32c-2.78-26.751 6.22-48.417 27-65Z" style="opacity:.944"/><path d="M429.5 87.5c15.964 9.896 25.464 24.229 28.5 43 .5 7.326.666 14.659.5 22h-32a650.244 650.244 0 0 0 3-65Z" style="opacity:.943"/><path d="M54.5 167.5h37c.129 7.737.962 15.404 2.5 23a790.814 790.814 0 0 1 9.5 38h-57c-3.135-16.473-2.635-32.806 1.5-49 1.402-4.475 3.569-8.475 6.5-12Z" style="opacity:.964"/><path d="M425.5 167.5a343.225 343.225 0 0 1 37 1c6.669 10.835 10.002 22.668 10 35.5a258.016 258.016 0 0 1-3 24.5h-56a60.931 60.931 0 0 1 .5-11 232.31 232.31 0 0 0 11.5-50Z" style="opacity:.963"/><path d="M118.5 226.5h132v65h-132v-65ZM265.5 226.5h132v65h-132v-65Z" style="opacity:.98"/><path d="M44.5 243.5h59v61h-67c-3.112-16.466-2.612-32.799 1.5-49a103.85 103.85 0 0 1 6.5-12Z" style="opacity:.966"/><path d="M413.5 243.5c19.678-.333 39.345 0 59 1 6.803 11.166 10.136 23.332 10 36.5a152.06 152.06 0 0 1-3 22.5c-21.99 1-43.99 1.333-66 1v-61Z" style="opacity:.976"/><path d="M118.5 306.5h132v65h-132v-65ZM265.5 306.5h132v65h-132v-65Z" style="opacity:.98"/><path d="M34.5 319.5h69v61h-77c-3.324-16.895-2.49-33.562 2.5-50a75.51 75.51 0 0 1 5.5-11Z" style="opacity:.968"/><path d="M413.5 319.5c22.669-.167 45.336 0 68 .5 7.504 11.689 10.837 24.523 10 38.5a93.203 93.203 0 0 1-2 21c-25.325 1-50.658 1.333-76 1v-61Z" style="opacity:.978"/><path d="M118.5 386.5h132v65h-132v-65ZM265.5 386.5h132v65h-132v-65Z" style="opacity:.98"/><path d="M27.5 395.5h76v65c-20.67.167-41.336 0-62-.5-6.89-5.945-11.058-13.445-12.5-22.5a141.52 141.52 0 0 1-1.5-42Z" style="opacity:.972"/><path d="M413.5 395.5c25.002-.167 50.002 0 75 .5 1.818 15.597.985 31.097-2.5 46.5-2.016 6.203-5.183 11.703-9.5 16.5a676.498 676.498 0 0 1-63 1.5v-65Z" style="opacity:.982"/><path d="M118.5 467.5h132v29c-38.668.167-77.335 0-116-.5-12.95-5.055-18.284-14.555-16-28.5Z" style="opacity:.989"/><path d="M265.5 467.5h132c2.295 13.92-3.038 23.42-16 28.5-38.665.5-77.332.667-116 .5v-29Z" style="opacity:.988"/></svg>