<svg xmlns="http://www.w3.org/2000/svg" width="512" height="512" style="shape-rendering:geometricPrecision;text-rendering:geometricPrecision;image-rendering:optimizeQuality;fill-rule:evenodd;clip-rule:evenodd"><path d="M274.5 171.5c27.07-2.149 52.07 4.018 75 18.5a253.318 253.318 0 0 1 34 26c22.647 9.313 37.647 25.647 45 49-7.05.202-14.05.702-21 1.5-6.129-14.629-16.463-25.129-31-31.5-37.38-2.381-74.38.286-111 8a356.346 356.346 0 0 0-29.5 9.5 1074.23 1074.23 0 0 0-28.5-5.5 3366.07 3366.07 0 0 1-82-1.5c41.205-41.436 90.872-66.102 149-74Z" style="opacity:.974"/><path d="M511.5 285.5v17c-7.969 21.107-23.302 33.273-46 36.5-146.667.667-293.333.667-440 0-14.032-4.196-22.699-13.363-26-27.5v-20c5.052-19.883 17.719-31.716 38-35.5a7478.76 7478.76 0 0 1 173 0c93.39 19.908 187.39 23.908 282 12 9.747 2.251 16.08 8.084 19 17.5Z" style="opacity:.99"/></svg>