<svg xmlns="http://www.w3.org/2000/svg" width="512" height="512" style="shape-rendering:geometricPrecision;text-rendering:geometricPrecision;image-rendering:optimizeQuality;fill-rule:evenodd;clip-rule:evenodd"><path d="M511.5 174.5v19c-7.994 21.175-21.994 37.341-42 48.5a231.156 231.156 0 0 1-18 9.5c-5.546-16.067-15.213-29.233-29-39.5-19.067-12.864-39.734-22.531-62-29-57.404-14.919-115.404-17.585-174-8-35.929 5.415-68.929 18.081-99 38-13.15 10.166-22.484 23-28 38.5-19.515-8.355-36.015-20.688-49.5-37-4.6-6.535-8.1-13.535-10.5-21v-19c2.115-7.9 5.615-15.234 10.5-22 12.498-14.497 27.332-25.997 44.5-34.5 48.253-22.063 98.92-34.73 152-38 65.265-5.567 129.598-.234 193 16 32.295 8.151 61.628 22.151 88 42 11.544 10.005 19.544 22.172 24 36.5Z" style="opacity:.986"/><path d="M-.5 213.5c1.143 10.915 4.976 20.915 11.5 30 10.033 12.036 21.866 21.869 35.5 29.5 39.325 20.218 80.992 33.218 125 39-2.838 6.858-4.338 14.024-4.5 21.5a3432.834 3432.834 0 0 0-.5 69c-41.689-6.171-81.355-18.671-119-37.5-16.655-8.991-30.489-21.157-41.5-36.5a157.077 157.077 0 0 1-6.5-16v-99Z" style="opacity:.983"/><path d="M511.5 213.5v99c-4.448 15.207-13.115 27.54-26 37-12.858-18.119-29.858-30.953-51-38.5a346.314 346.314 0 0 0-31-11.5 740.819 740.819 0 0 0 45-17.5c21.7-9.708 39.867-23.874 54.5-42.5 4.921-8.131 7.755-16.798 8.5-26Z" style="opacity:.966"/><path d="M218.5 303.5c25.336-.167 50.669 0 76 .5 11.167 3.167 18.333 10.333 21.5 21.5.667 25.333.667 50.667 0 76-3.167 11.167-10.333 18.333-21.5 21.5-25.333.667-50.667.667-76 0-9.864-2.843-16.697-9.009-20.5-18.5a124.119 124.119 0 0 1-1.5-26 450.697 450.697 0 0 0 50-1.5c9.957-6.163 11.624-14.163 5-24l-5-3a450.697 450.697 0 0 0-50-1.5c-.41-8.75.09-17.416 1.5-26 4.047-9.424 10.881-15.757 20.5-19Z" style="opacity:.989"/><path d="M344.5 318.5c35.524 2.381 68.857 12.215 100 29.5 18.834 13.488 25.668 31.654 20.5 54.5-7.834 20.339-22.667 31.006-44.5 32a62.433 62.433 0 0 1-13-1.5 297.466 297.466 0 0 0-65-21.5 49.811 49.811 0 0 0 3.5-18 625.962 625.962 0 0 0-1.5-75Z" style="opacity:.982"/></svg>