<svg xmlns="http://www.w3.org/2000/svg" width="512" height="512" style="shape-rendering:geometricPrecision;text-rendering:geometricPrecision;image-rendering:optimizeQuality;fill-rule:evenodd;clip-rule:evenodd"><path d="M335.5 33.5c21.954-.439 39.788 7.894 53.5 25 18.136 25.726 28.803 54.392 32 86a265.107 265.107 0 0 1 1 61c-1.653 3.982-4.653 5.982-9 6A54007.166 54007.166 0 0 0 239.5 188c-4.027-.427-6.527-2.594-7.5-6.5 5.889-42.356 21.889-80.356 48-114 10.84-12.516 23.674-22.35 38.5-29.5 5.675-2 11.342-3.5 17-4.5Z" style="opacity:.986"/><path d="M256.5 44.5c7.998-.5 11.831 3.167 11.5 11-19.037 25.404-33.37 53.404-43 84a206943.4 206943.4 0 0 1-11 40c-1.986 2.242-4.486 3.242-7.5 3a2213.491 2213.491 0 0 0-57-7c13.692-61.768 49.358-105.435 107-131Z" style="opacity:.968"/><path d="M424.5 67.5c4.369-.577 8.369.257 12 2.5 45.616 38.073 67.782 86.906 66.5 146.5l-3.5 3.5a474.29 474.29 0 0 1-55-6c-2.167-.833-3.667-2.333-4.5-4.5 2.883-45.918-3.95-90.251-20.5-133-.123-4.095 1.544-7.095 5-9Z" style="opacity:.971"/><path d="M-.5 212.5v-13c2.873-5.367 7.206-9.2 13-11.5a3719.39 3719.39 0 0 1 122 0 7.293 7.293 0 0 1 3 2 827.725 827.725 0 0 1 23 4c3.738 1.399 5.404 4.066 5 8 .336 5.669-2.33 9.003-8 10a2785.908 2785.908 0 0 1-92 39c-32.558 4.891-54.558-7.943-66-38.5Z" style="opacity:.98"/><path d="M62.5 370.5c50.668-.167 101.334 0 152 .5 9.535 3.036 14.868 9.536 16 19.5a3027.051 3027.051 0 0 0-7.5 69c-1.619 8.954-6.786 14.787-15.5 17.5-46 .667-92 .667-138 0-7.833-2.5-13-7.667-15.5-15.5a677.262 677.262 0 0 1-6-75c2.34-7.737 7.173-13.071 14.5-16Z" style="opacity:.988"/><path d="M314.5 370.5c50.334-.167 100.668 0 151 .5 10.877 3.587 15.877 11.087 15 22.5a2343.979 2343.979 0 0 1-6.5 68c-1.833 8.5-7 13.667-15.5 15.5-46 .667-92 .667-138 0-8.275-2.607-13.441-8.107-15.5-16.5a769.286 769.286 0 0 1-6-74c2.685-7.85 7.852-13.184 15.5-16Zm116 7c2.427.023 4.76.523 7 1.5l27.5 27.5c2.947 10.632-.886 14.132-11.5 10.5L426 389.5c-1.971-5.251-.471-9.251 4.5-12Zm-37 3c2.064.187 4.064.687 6 1.5l57.5 57.5c3.451 6.964 1.451 11.297-6 13a9.62 9.62 0 0 1-4.5-1.5L389 393.5c-2.905-5.991-1.405-10.324 4.5-13Z" style="opacity:.972"/><path d="M249.5 393.5c9.672-.166 19.339 0 29 .5 3.712 2.513 4.878 6.013 3.5 10.5-.685 2.557-2.185 4.391-4.5 5.5a209.971 209.971 0 0 0-28 0c-5.327-3.436-6.327-7.936-3-13.5 1.27-.788 2.27-1.788 3-3Z" style="opacity:.911"/><path d="M511.5 399.5v35c-.789.283-1.456.783-2 1.5-5.657.499-11.324.666-17 .5a3870.87 3870.87 0 0 0 4-39c5.229-.485 10.229.182 15 2Z" style="opacity:.944"/><path d="M20.5 404.5h12a512.056 512.056 0 0 1 3 39 128.508 128.508 0 0 1-16-.5 9.465 9.465 0 0 1-1.5-2.5c-.667-11-.667-22 0-33a10.51 10.51 0 0 0 2.5-3Z" style="opacity:.929"/></svg>