<svg xmlns="http://www.w3.org/2000/svg" width="512" height="512" style="shape-rendering:geometricPrecision;text-rendering:geometricPrecision;image-rendering:optimizeQuality;fill-rule:evenodd;clip-rule:evenodd"><path d="M214.5 32.5a1123.358 1123.358 0 0 1 82-.5l-16 23a625.219 625.219 0 0 1-50 0 738.829 738.829 0 0 0-16-22.5Z" style="opacity:.977"/><path d="M200.5 39.5a1237.67 1237.67 0 0 1 45 62.5 1290.093 1290.093 0 0 0-26.5 21.5 2448.137 2448.137 0 0 1-27.5-60 261.306 261.306 0 0 0 9-24Z" style="opacity:.937"/><path d="M308.5 39.5c.997-.03 1.664.47 2 1.5a925.379 925.379 0 0 0 9 22.5 2448.137 2448.137 0 0 1-27.5 60 1290.093 1290.093 0 0 0-26.5-21.5 2198.205 2198.205 0 0 0 43-62.5Z" style="opacity:.936"/><path d="M242.5 72.5c8.49-1.157 17.157-1.324 26-.5a170.114 170.114 0 0 1-13 17.5 262.486 262.486 0 0 1-13-17Z" style="opacity:.891"/><path d="M176.5 73.5h4a1214.662 1214.662 0 0 0 30 67.5c3.333 2 6.667 2 10 0a1290.093 1290.093 0 0 0 26.5-21.5c.5 120 .667 240 .5 360h-120a18.453 18.453 0 0 1 .5-6l27.5-19.5c2.092-1.853 3.092-4.186 3-7a3821.962 3821.962 0 0 0-30.5-93.5c-.667-87-.667-174 0-261a3950.364 3950.364 0 0 0 48.5-19Zm39 86h16v16h-16v-16Zm0 80h16v16h-16v-16Zm0 80h16v16h-16v-16Zm0 80h16v16h-16v-16ZM330.5 73.5a705.244 705.244 0 0 1 52.5 19c.5 129 .667 258 .5 387h-120c-.167-120 0-240 .5-360a1290.093 1290.093 0 0 0 26.5 21.5c3.333 2 6.667 2 10 0a1214.662 1214.662 0 0 0 30-67.5Zm-35 118c21.336-.167 42.669 0 64 .5 4.5.5 7 3 7.5 7.5a783.858 783.858 0 0 1 0 56 22.981 22.981 0 0 1-2 5 236.88 236.88 0 0 1-37 18 381.61 381.61 0 0 1-37.5-17.5 14.444 14.444 0 0 1-2.5-5.5 783.858 783.858 0 0 1 0-56c.68-4.511 3.18-7.177 7.5-8Z" style="opacity:.995"/><path d="M110.5 99.5a6607.715 6607.715 0 0 1 .5 199 1543.985 1543.985 0 0 1-15.5-52c-5.353.42-10.353 1.92-15 4.5a3562.697 3562.697 0 0 1 31 101.5c7.48-1.602 7.813-.768 1 2.5l18 52a767.087 767.087 0 0 1-39 26 252.45 252.45 0 0 1 8.5 12.5 1899.212 1899.212 0 0 0 34.5-23 165.604 165.604 0 0 1 8 21.5A1092.823 1092.823 0 0 1 98 476.5a12321.712 12321.712 0 0 0-66-133 4624.019 4624.019 0 0 1 0-136l45-90a532.044 532.044 0 0 0 33.5-18Z" style="opacity:.983"/><path d="M399.5 99.5a497.637 497.637 0 0 1 39 16.5 29.517 29.517 0 0 1 2.5 4.5 64549.826 64549.826 0 0 1 34.5 314 268.228 268.228 0 0 0-37 6.5 98.01 98.01 0 0 1 2.5 12.5 6.293 6.293 0 0 0 3 1 664.047 664.047 0 0 0 32.5-6 102 102 0 0 1 3 15.5 3.943 3.943 0 0 1-1 2 1721.288 1721.288 0 0 0-48.5 12.5 16343.34 16343.34 0 0 1-30-177c-.5-67.333-.667-134.666-.5-202Z" style="opacity:.979"/><path d="M303.5 207.5h48c.167 14.67 0 29.337-.5 44a776.41 776.41 0 0 1-23.5 12 375.335 375.335 0 0 0-23-12 484.862 484.862 0 0 1-1-44Z" style="opacity:.986"/></svg>