<svg xmlns="http://www.w3.org/2000/svg" width="512" height="512" style="shape-rendering:geometricPrecision;text-rendering:geometricPrecision;image-rendering:optimizeQuality;fill-rule:evenodd;clip-rule:evenodd"><path d="M376.5 77.5a234.354 234.354 0 0 0 30 19.5c1.091 2.064 1.258 4.231.5 6.5-9.107 32.546-23.774 62.213-44 89a346.894 346.894 0 0 1-30.5 35.5c-24.597 20.513-50.264 21.847-77 4-10.389-7.388-19.056-16.388-26-27a70.826 70.826 0 0 1 8.5-11.5c6.154 11.34 15.654 18.174 28.5 20.5 26.267 5.148 48.101-2.352 65.5-22.5 21.346-28.704 35.679-60.704 43-96a82.104 82.104 0 0 0 1.5-18Z" style="opacity:.949"/><path d="M371.5 86.5c-5.125 31.977-16.292 61.977-33.5 90-6.808 10.14-14.975 18.973-24.5 26.5-21.078 11.264-42.078 11.264-63 0-4.343-2.987-7.01-6.987-8-12-.092-2.814.908-5.147 3-7a555.23 555.23 0 0 0 40-12c21.456-11.446 39.956-26.613 55.5-45.5a582.65 582.65 0 0 0 30.5-40Z" style="opacity:.951"/><path d="M411.5 100.5a106.21 106.21 0 0 1 26 16.5c14.435 13.089 26.602 27.922 36.5 44.5.484 2.413.15 4.746-1 7-6.047 13.04-14.047 24.707-24 35-24.916 24.022-51.749 45.522-80.5 64.5-69.925 45.13-143.925 82.63-222 112.5l-2-1-26.5-55c-1.354-3.005-2.354-6.005-3-9 40.867-31.698 78.033-67.365 111.5-107 9.956 13.124 21.956 23.957 36 32.5 23.031 12.187 45.031 10.52 66-5 36.436-33.469 62.936-73.636 79.5-120.5a86.71 86.71 0 0 0 3.5-15Z" style="opacity:.979"/><path d="M477.5 167.5a192.482 192.482 0 0 1 16.5 23c.684 1.284.517 2.451-.5 3.5a1770.072 1770.072 0 0 1-211 146c-46.252 26.792-94.919 48.125-146 64-30.76 9.209-62.094 12.209-94 9-13.776-1.7-26.276-6.534-37.5-14.5-.307-4.12.36-8.12 2-12 6.12 9.11 14.62 14.61 25.5 16.5 20.5 2.542 40.832 1.542 61-3a644.143 644.143 0 0 0 128-46c60.937-28.784 118.937-62.117 174-100 21.234-15.395 41.067-32.561 59.5-51.5 9.518-10.369 17.018-22.036 22.5-35Z" style="opacity:.907"/><path d="M495.5 196.5c.996-.086 1.829.248 2.5 1l8 16c1.315 5.704-.018 10.704-4 15a183.65 183.65 0 0 1-25.5 22.5 1289.68 1289.68 0 0 1-82 51 13395.635 13395.635 0 0 0-135 77c-59.004 33.28-122.338 51.446-190 54.5a291.193 291.193 0 0 1-36-3.5 71.37 71.37 0 0 1-20-7c-6.55-4.929-9.383-11.429-8.5-19.5 18.695 11.258 39.028 16.591 61 16 28.175-.968 55.675-5.801 82.5-14.5a749.054 749.054 0 0 0 126-56c77.91-44.933 151.577-95.766 221-152.5Z" style="opacity:.939"/><path d="M109.5 319.5c.996-.086 1.829.248 2.5 1l29.5 61a51.045 51.045 0 0 1-13 5c-1.925-.09-3.092-1.09-3.5-3a2112.884 2112.884 0 0 0-25.5-56c3.364-2.675 6.697-5.342 10-8ZM93.5 330.5c1.322-.17 2.489.163 3.5 1a4157.842 4157.842 0 0 1 25.5 55.5c-.405.945-1.072 1.612-2 2a247.302 247.302 0 0 0-12 3.5 3999.21 3999.21 0 0 1-24-54.5c3.19-2.364 6.19-4.864 9-7.5Z" style="opacity:.9"/><path d="M79.5 340.5c1.91.074 3.078 1.074 3.5 3a3093.814 3093.814 0 0 0 20.5 48.5c-.405.945-1.072 1.612-2 2-4.334 1.51-8.668 2.01-13 1.5l-20-47c3.685-2.691 7.352-5.358 11-8Z" style="opacity:.899"/><path d="M63.5 350.5c1.835.622 3.002 1.956 3.5 4a3259.407 3259.407 0 0 0 17.5 42 4.458 4.458 0 0 1-2 1.5 58.525 58.525 0 0 1-10 1 632.773 632.773 0 0 1-17-41.5 4.94 4.94 0 0 1 1-2.5c2.739-1.026 5.072-2.526 7-4.5Z" style="opacity:.876"/><path d="M50.5 358.5a289.753 289.753 0 0 1 17 42h-16a1031.64 1031.64 0 0 0-12-34 34.254 34.254 0 0 1 11-8Z" style="opacity:.895"/><path d="M33.5 367.5c.996-.086 1.83.248 2.5 1l11.5 31c-2.946 1.155-5.946 1.321-9 .5-2.547-.067-4.714-.901-6.5-2.5a481.07 481.07 0 0 0-7.5-23.5 82.114 82.114 0 0 1 9-6.5Z" style="opacity:.875"/><path d="M17.5 375.5h4a143.968 143.968 0 0 0 6 20.5c-9.427-.722-15.427-6.055-18-16 2.891-1.274 5.558-2.774 8-4.5Z" style="opacity:.822"/></svg>