<svg xmlns="http://www.w3.org/2000/svg" width="512" height="512" style="shape-rendering:geometricPrecision;text-rendering:geometricPrecision;image-rendering:optimizeQuality;fill-rule:evenodd;clip-rule:evenodd"><path d="M279.5 63.5c17.003-.167 34.003 0 51 .5 9.328 1.666 17.994 4.999 26 10a3223.66 3223.66 0 0 0 65 40 161.575 161.575 0 0 1 17.5 12.5c6.262 7.113 9.596 15.446 10 25 2.226 34.668 4.392 69.335 6.5 104-17.361-.32-34.695.18-52 1.5-36.832 9.164-56.665 32.664-59.5 70.5-.5 9.661-.666 19.328-.5 29-30.522 5.341-59.522 15.174-87 29.5a99.188 99.188 0 0 1-21 5 2660.79 2660.79 0 0 1-144-1c-19.41-2.115-33.91-11.615-43.5-28.5a330.334 330.334 0 0 1-7.5-15.5c16.956-27.557 41.456-40.724 73.5-39.5a1978.558 1978.558 0 0 0 24.5 34.5c10.167 3.167 13.667-.333 10.5-10.5a844.927 844.927 0 0 1-22.5-32 1359.174 1359.174 0 0 1 36.5-21l39.5 39.5c10.167 3.167 13.667-.333 10.5-10.5a1803.01 1803.01 0 0 1-35.5-36 690.71 690.71 0 0 1 37.5-22 3560.555 3560.555 0 0 1 43.5 36.5c10.167 3.167 13.667-.333 10.5-10.5a2931.377 2931.377 0 0 0-39.5-33 109.437 109.437 0 0 1 17-10.5 55.05 55.05 0 0 0 6-6.5 1742.926 1742.926 0 0 1 59-1.5c7.092-2.159 8.758-6.493 5-13a22.981 22.981 0 0 0-5-2c-18.664-.5-37.33-.667-56-.5v-32c18.67.167 37.336 0 56-.5 6.847-1.866 8.68-6.032 5.5-12.5a14.444 14.444 0 0 0-5.5-2.5c-18.664-.5-37.33-.667-56-.5v-32c18.67.167 37.336 0 56-.5 6.847-1.866 8.68-6.032 5.5-12.5a14.444 14.444 0 0 0-5.5-2.5c-18.664-.5-37.33-.667-56-.5-.166-8.007 0-16.007.5-24 1.563-5.888 4.396-11.055 8.5-15.5 4.478-3.901 9.478-6.735 15-8.5Z" style="opacity:.987"/><path d="M404.5 271.5h54a2770.253 2770.253 0 0 0 20 79.5c-39.693.048-79.359.882-119 2.5-.167-12.338 0-24.671.5-37 5.681-24.18 20.514-39.18 44.5-45Z" style="opacity:.987"/><path d="M32.5 366.5c6 8.185 12.666 16.018 20 23.5 13.733 9.69 29.066 15.023 46 16a2127.169 2127.169 0 0 0 124 1 126.423 126.423 0 0 0 39-7c30.525-15.952 62.858-26.286 97-31 40.31-1.44 80.644-1.94 121-1.5a495.534 495.534 0 0 1-1.5 53c-4.5 12.5-13 21-25.5 25.5a1655.49 1655.49 0 0 1-114 1c-13.956-2.096-26.956-6.762-39-14-8-3.333-16-3.333-24 0-11.623 7.431-24.29 12.097-38 14-51 .667-102 .667-153 0-28.383-6.049-45.883-23.216-52.5-51.5a163.306 163.306 0 0 1 .5-29Z" style="opacity:.986"/></svg>