<svg xmlns="http://www.w3.org/2000/svg" width="512" height="512" style="shape-rendering:geometricPrecision;text-rendering:geometricPrecision;image-rendering:optimizeQuality;fill-rule:evenodd;clip-rule:evenodd"><path d="M248.5-.5h61c24.946 1.99 48.613 8.824 71 20.5 9.554 5.22 16.72 12.72 21.5 22.5 3.093 9.882 1.427 18.882-5 27-13.849 13.514-30.015 23.347-48.5 29.5a108.147 108.147 0 0 1-19.5 5.5 160.783 160.783 0 0 1-23.5-7.5 616.416 616.416 0 0 0 42-21c10.422-6.091 19.255-13.925 26.5-23.5 4.337-10.318 1.503-18.152-8.5-23.5-20.346-8.95-41.68-13.616-64-14a334.72 334.72 0 0 0-85 6 181.842 181.842 0 0 0-25 8c-17.58 8.362-19.247 19.029-5 32 20.774 13.267 43.107 23.267 67 30a3085.62 3085.62 0 0 1 152 47.5 1133.097 1133.097 0 0 1-44.5 79A8063.077 8063.077 0 0 1 201.5 173c-23.35-9.359-41.85-24.526-55.5-45.5-19.749-41.499-11.582-76.332 24.5-104.5C194.425 8.022 220.425.189 248.5-.5Z" style="opacity:.974"/><path d="M410.5 59.5c.876-.13 1.543.203 2 1 7.01 16.99 7.843 34.323 2.5 52a97.756 97.756 0 0 1-7 18 2354.062 2354.062 0 0 1-63.5-21c17.246-5.799 33.246-13.966 48-24.5L404 73.5a44.656 44.656 0 0 0 6.5-14Z" style="opacity:.938"/><path d="M261.5 511.5h-169c6.427-70.708 20.927-139.708 43.5-207 12.137-35.616 29.47-68.282 52-98 6.167-7.5 13-14.333 20.5-20.5 3.399-.546 6.732-.213 10 1l22 6c.457.414.791.914 1 1.5-66.367 79.281-94.867 170.614-85.5 274 .318 1.561 1.151 2.728 2.5 3.5 34.332.5 68.665.667 103 .5v39Z" style="opacity:.974"/><path d="M250.5 196.5c37.366 9.3 74.532 19.3 111.5 30 11.567 29.269 18.9 59.602 22 91a1150.341 1150.341 0 0 1 7.5 147h-228c-8.205-101.713 20.795-191.047 87-268Z" style="opacity:.99"/></svg>