<svg xmlns="http://www.w3.org/2000/svg" width="512" height="512" style="shape-rendering:geometricPrecision;text-rendering:geometricPrecision;image-rendering:optimizeQuality;fill-rule:evenodd;clip-rule:evenodd"><path style="opacity:.975" d="M208.5 20.5h49a305.782 305.782 0 0 0-2 43h-54c-.167-11.671 0-23.338.5-35 1.305-3.461 3.471-6.128 6.5-8Z"/><path style="opacity:.987" d="M283.5 20.5c45.001-.167 90.001 0 135 .5 3.413 1.077 5.913 3.244 7.5 6.5.5 11.995.667 23.995.5 36h-150c-.167-12.005 0-24.005.5-36 1.694-2.858 3.861-5.191 6.5-7Z"/><path style="opacity:.958" d="M201.5 84.5h54v22h-54v-22Z"/><path style="opacity:.966" d="M276.5 84.5h150v22h-150v-22Z"/><path style="opacity:.975" d="M201.5 127.5h54c.167 48.334 0 96.668-.5 145a1988.646 1988.646 0 0 1-81.5 67.5c-34.095 31.881-42.928 69.714-26.5 113.5 6.522 14.057 15.689 26.057 27.5 36-44.165 4.654-73.332-14.013-87.5-56-6.42-26.648-.754-50.315 17-71a4080.17 4080.17 0 0 1 83.5-68.5c5.703-4.365 9.87-9.865 12.5-16.5a3817.89 3817.89 0 0 0 1.5-150Z"/><path style="opacity:.992" d="M276.5 127.5h150v160c-30.892-2.144-53.726 10.19-68.5 37a74.293 74.293 0 0 0-5 16 1947.57 1947.57 0 0 0-2 81 2585.53 2585.53 0 0 1-63.5 54.5c-28.714 18.17-58.381 19.837-89 5-35.417-22.572-46.917-54.072-34.5-94.5 5.076-11.657 12.243-21.824 21.5-30.5a5712.33 5712.33 0 0 0 79-64c5.141-4.471 8.641-9.971 10.5-16.5a3720.526 3720.526 0 0 0 1.5-148Z"/><path style="opacity:.964" d="M408.5 308.5h18c2.994 30.206-7.006 55.039-30 74.5L373 402.5a840.83 840.83 0 0 1 0-58c3.973-19.806 15.807-31.806 35.5-36Z"/></svg>