<svg xmlns="http://www.w3.org/2000/svg" width="512" height="512" style="shape-rendering:geometricPrecision;text-rendering:geometricPrecision;image-rendering:optimizeQuality;fill-rule:evenodd;clip-rule:evenodd"><path d="M224.5 19.5a884.022 884.022 0 0 1 100 3.5c.457.414.791.914 1 1.5a1265.543 1265.543 0 0 0-21 26.5c-30.332-.74-60.665-.573-91 .5l-9-.5-22-27a511.297 511.297 0 0 1 42-4.5Z" style="opacity:.956"/><path d="M176.5 31.5a2785.476 2785.476 0 0 1 67 83.5 42.479 42.479 0 0 1-13 0A5295.282 5295.282 0 0 0 173 76.5a2535.434 2535.434 0 0 1 3.5-45Z" style="opacity:.923"/><path d="M330.5 31.5c.768.763 1.268 1.763 1.5 3a1002.734 1002.734 0 0 1 4 42 4711.89 4711.89 0 0 0-53.5 37.5c-5.582 1.737-11.249 1.904-17 .5a3823.678 3823.678 0 0 0 65-83Z" style="opacity:.929"/><path d="M222.5 59.5c24.693-.395 49.36.105 74 1.5a1065.344 1065.344 0 0 1-42 52.5 1588.737 1588.737 0 0 1-42-52 625.46 625.46 0 0 0 10-2Z" style="opacity:.946"/><path d="M156.5 68.5a32.438 32.438 0 0 1 8 .5c-1.126 3.744-1.293 7.577-.5 11.5a6689.016 6689.016 0 0 0 64.5 43.5l27 .5c9.762.142 19.429-.358 29-1.5l59-41c1.507-1.473 2.174-3.307 2-5.5-.337-2.676-.67-5.343-1-8 35.28 3.63 63.28 19.63 84 48-21.689 27.534-34.522 58.868-38.5 94-.659 78.669-.492 157.336.5 236h-272c.095-55.834.428-111.668 1-167.5.121-24.858-.379-49.691-1.5-74.5-4.963-32.912-17.796-62.245-38.5-88 19.85-25.42 45.516-41.42 77-48Zm-25 108c3.047-.645 5.213.355 6.5 3a80.232 80.232 0 0 1 2.5 13.5c.574 4.76-1.426 6.76-6 6a6.978 6.978 0 0 1-2.5-3.5 138.18 138.18 0 0 0-2.5-14.5c.019-1.833.685-3.333 2-4.5Zm6 37a11.105 11.105 0 0 1 4.5 3c.667 28.667.667 57.333 0 86-1.845 4.295-4.512 4.962-8 2a1935.283 1935.283 0 0 1 0-88 30.233 30.233 0 0 1 3.5-3Zm55 104c41.335-.167 82.668 0 124 .5l37.5 35.5c.667 21 .667 42 0 63a9.454 9.454 0 0 1-2.5 1.5c-65 .667-130 .667-195 0-1.393-1.171-2.227-2.671-2.5-4.5a478.26 478.26 0 0 1 1-61 1814.766 1814.766 0 0 1 37.5-35Z" style="opacity:.984"/><path d="M73.5 124.5c21.47 25.636 33.636 55.303 36.5 89a2703.18 2703.18 0 0 1-1 143 7862.169 7862.169 0 0 0-25.5 83 4843.426 4843.426 0 0 1-63-3.5 10.256 10.256 0 0 1-4-1.5 57951.898 57951.898 0 0 1 29.5-220 433.357 433.357 0 0 1 20-75l7.5-15Z" style="opacity:.979"/><path d="M433.5 124.5c5.776 7.882 10.276 16.548 13.5 26a519.158 519.158 0 0 1 16 65 23896.643 23896.643 0 0 1 28.5 216c-.149 1.82-.816 3.32-2 4.5a6175.423 6175.423 0 0 0-58.5 3.5l-5.5-1a12227.46 12227.46 0 0 0-26.5-84 2971.495 2971.495 0 0 1 1-152c4.489-28.996 15.655-54.996 33.5-78Z" style="opacity:.981"/><path d="M194.5 326.5c39.668-.167 79.335 0 119 .5l31.5 29.5c.5 17.664.667 35.33.5 53h-183c-.167-17.337 0-34.67.5-52a460.934 460.934 0 0 0 31.5-31Z" style="opacity:.979"/><path d="M20.5 445.5a622.385 622.385 0 0 1 55 3.5 332.494 332.494 0 0 1-7 29.5 1190.88 1190.88 0 0 0-50-3l2-30ZM472.5 445.5h16a453.355 453.355 0 0 0 2 30 1488.006 1488.006 0 0 0-50 3 3.647 3.647 0 0 1-1.5-1 693.252 693.252 0 0 0-5.5-28 556.54 556.54 0 0 1 39-4Z" style="opacity:.949"/><path d="M130.5 455.5h248v35h-248v-35Z" style="opacity:.971"/></svg>