<svg xmlns="http://www.w3.org/2000/svg" width="512" height="512" style="shape-rendering:geometricPrecision;text-rendering:geometricPrecision;image-rendering:optimizeQuality;fill-rule:evenodd;clip-rule:evenodd"><path d="M40.5 167.5a40.911 40.911 0 0 1 9 .5 28548.14 28548.14 0 0 0 220 75.5 1026.775 1026.775 0 0 1-17 48l-21.5 1a24539.984 24539.984 0 0 0-207.5-4 557.821 557.821 0 0 1 12.5-112c.454-3.575 1.954-6.575 4.5-9Z" style="opacity:.984"/><path d="M307.5 178.5a10151.782 10151.782 0 0 1 171 84.5c4.772 2.38 7.439 6.213 8 11.5-71.793 16.215-144.46 22.548-218 19a3883.496 3883.496 0 0 0 39-115Z" style="opacity:.975"/><path d="M483.5 289.5h4a166.506 166.506 0 0 1-1 25.5c-41.253 15.718-83.92 25.051-128 28-109.666.5-219.333.667-329 .5l-5-40c97.173 1.66 194.34 3.66 291.5 6 56.732-.358 112.565-7.025 167.5-20Z" style="opacity:.98"/></svg>