<svg xmlns="http://www.w3.org/2000/svg" width="512" height="512" style="shape-rendering:geometricPrecision;text-rendering:geometricPrecision;image-rendering:optimizeQuality;fill-rule:evenodd;clip-rule:evenodd"><path d="M198.5 14.5c58.001-.167 116.001 0 174 .5l14 1a13.243 13.243 0 0 1 3 5A1218.978 1218.978 0 0 1 342 95.5a4258.75 4258.75 0 0 1-143.5-81Z" style="opacity:.964"/><path d="M38.5 15.5c3.185-.48 6.019.186 8.5 2 .5 6.325.666 12.658.5 19 6.342-.166 12.675 0 19 .5 3.592 2.97 3.925 6.304 1 10-6.658.5-13.325.666-20 .5.166 6.675 0 13.342-.5 20-3.696 2.925-7.03 2.592-10-1a180.95 180.95 0 0 1-.5-19c-6.342.166-12.675 0-19-.5-2.667-3.333-2.667-6.667 0-10a180.95 180.95 0 0 1 19-.5c-.166-6.342 0-12.675.5-19 .717-.544 1.217-1.21 1.5-2Z" style="opacity:.946"/><path d="M188.5 21.5a6535.136 6535.136 0 0 1 149 83.5 368.07 368.07 0 0 1-18 27c-37.552 18.093-72.885 39.593-106 64.5a36.237 36.237 0 0 1-11.5-11c-18.83-34.822-31.497-71.822-38-111a26.848 26.848 0 0 0-3.5-6c9.361-15.684 18.694-31.35 28-47Z" style="opacity:.98"/><path d="M423.5 57.5c2.772-.28 5.272.387 7.5 2 .5 6.658.666 13.325.5 20 6.675-.166 13.342 0 20 .5 2.925 3.696 2.592 7.03-1 10-6.325.5-12.658.666-19 .5.166 6.342 0 12.675-.5 19-3.333 2.667-6.667 2.667-10 0-.5-6.325-.666-12.658-.5-19-6.342.166-12.675 0-19-.5-2.667-3.333-2.667-6.667 0-10 6.325-.5 12.658-.666 19-.5-.166-6.342 0-12.675.5-19a10.526 10.526 0 0 0 2.5-3Z" style="opacity:.946"/><path d="M144.5 72.5c4.184-.796 7.35.537 9.5 4 7.015 37.377 19.015 73.044 36 107l10 14c4.271 5.388 9.771 7.888 16.5 7.5l23-15.5c6.977 30.956 9.81 62.289 8.5 94-.059 3.322-1.226 6.156-3.5 8.5-16.321.138-32.321-2.195-48-7a1075.133 1075.133 0 0 1-31-9 122.06 122.06 0 0 1-15.5-9.5 23111.255 23111.255 0 0 1-7-81 112.388 112.388 0 0 0-6-20 2753.845 2753.845 0 0 1-20.5-45.5c8.761-12.688 14.928-26.52 18.5-41.5 2.843-2.663 6.009-4.663 9.5-6Z" style="opacity:.975"/><path d="M97.5 128.5a2.429 2.429 0 0 1 2 .5c-20.116 26.909-24.283 56.075-12.5 87.5 8.503 16.846 20.337 31.013 35.5 42.5a570.295 570.295 0 0 0 57.5 36.5 5291.43 5291.43 0 0 0 55 81 359.01 359.01 0 0 0 37.5 40.5c20.39 15.366 42.723 27.366 67 36a420.811 420.811 0 0 0 100 24 76.712 76.712 0 0 0 27-2c4.448-2.114 7.948-5.281 10.5-9.5a204.25 204.25 0 0 1 4-16 134.216 134.216 0 0 0 10.5-9c3.178 6.056 4.512 12.556 4 19.5.98 7.056-.854 13.223-5.5 18.5-12.043 9.763-25.876 15.263-41.5 16.5-14.333 2-28.667 2-43 0l-388-1c-2.667-3.333-2.667-6.667 0-10l332-1a436.74 436.74 0 0 1-54-20l-118-1c-2.667-3.333-2.667-6.667 0-10l95-1a227.353 227.353 0 0 1-30-20l-161-1c-2.667-3.333-2.667-6.667 0-10l147-1a268.134 268.134 0 0 1-19-20l-64-1c-2.667-3.333-2.667-6.667 0-10l55-1a404.65 404.65 0 0 0-44-39 3118.528 3118.528 0 0 0-63-41c-14.006-9.331-26.84-20.164-38.5-32.5-13.145-19.559-19.645-41.226-19.5-65a172.12 172.12 0 0 1 6.5-43l19-10a960.913 960.913 0 0 0 0 47c.554 16.884 4.554 32.884 12 48a25.549 25.549 0 0 0 5.5 6.5c3.663 1.002 5.996-.332 7-4-7.812-13.069-12.312-27.236-13.5-42.5a298.462 298.462 0 0 1 2-66c6.038-8.258 13.872-13.925 23.5-17Z" style="opacity:.962"/><path d="M109.5 130.5c.876-.131 1.543.202 2 1a495.542 495.542 0 0 1 20.5 49 1758.891 1758.891 0 0 1 6.5 74l-1 5c-16.4-11.233-29.9-25.233-40.5-42-11.122-23.867-10.455-47.533 2-71a269.097 269.097 0 0 1 10.5-16Z" style="opacity:.956"/><path d="M336.5 136.5c6.613-.114 11.113 2.886 13.5 9 1.003 16.483-2.163 32.149-9.5 47-28.232 3.658-54.732-1.342-79.5-15-.089-1.613.745-2.78 2.5-3.5 17.69-12.184 36.356-22.851 56-32 5.637-2.318 11.303-4.151 17-5.5Z" style="opacity:.962"/><path d="M251.5 181.5a117.305 117.305 0 0 0 25.5 14c-1.435 7.326-.435 14.326 3 21 9.046 6.045 16.379 13.712 22 23a877.146 877.146 0 0 1 33 72 232.02 232.02 0 0 0 17 31c6.312 7.665 14.479 11.499 24.5 11.5 11.889.389 23.556-1.111 35-4.5a801.16 801.16 0 0 1 21.5 25l13.5 11.5a295.678 295.678 0 0 0-55 7c-3.833.309-6.5 2.142-8 5.5.698 2.698 2.364 4.364 5 5 25.297-6.921 50.964-8.754 77-5.5 12.403 8.641 18.57 20.474 18.5 35.5l-12 12c-2.346 5.055-3.679 10.389-4 16-2.342 3.254-5.509 5.088-9.5 5.5-57.45-1.863-111.45-16.53-162-44-11.994-7.319-22.827-16.153-32.5-26.5-27.592-32.244-51.925-66.578-73-103 17.644 6.196 35.811 9.029 54.5 8.5 2.602-.883 4.769-2.383 6.5-4.5a37.093 37.093 0 0 0 5-15 261.013 261.013 0 0 0-2-60 1203.706 1203.706 0 0 0-5.5-36.5c.259-1.787.925-3.287 2-4.5Z" style="opacity:.979"/><path d="M286.5 198.5a317.047 317.047 0 0 0 51 5.5 44.81 44.81 0 0 0 4 8 486.64 486.64 0 0 1-54-.5c-2.309-4.167-2.642-8.5-1-13Z" style="opacity:.917"/><path d="M301.5 222.5a524.038 524.038 0 0 1 45.5 1 9918.235 9918.235 0 0 0 57.5 118c-10.496 2.759-21.163 3.592-32 2.5-4.705-.677-8.872-2.51-12.5-5.5-6.345-8.682-11.678-18.015-16-28a3599.92 3599.92 0 0 0-27-62 223.388 223.388 0 0 0-15.5-26Z" style="opacity:.96"/><path d="M465.5 228.5c3.513-.624 6.347.376 8.5 3 .499 5.991.666 11.991.5 18 6.009-.166 12.009.001 18 .5 2.454.943 3.454 2.776 3 5.5.454 2.724-.546 4.557-3 5.5-5.991.499-11.991.666-18 .5a162.597 162.597 0 0 1-.5 18c-3.004 3.5-6.337 3.833-10 1-.5-6.325-.666-12.658-.5-19a162.597 162.597 0 0 1-18-.5c-5.333-3.667-5.333-7.333 0-11a162.597 162.597 0 0 1 18-.5c-.166-6.342 0-12.675.5-19 .717-.544 1.217-1.211 1.5-2Z" style="opacity:.915"/><path d="M18.5 387.5c31.668-.167 63.335 0 95 .5 4.871 3.178 5.204 6.845 1 11-32 .667-64 .667-96 0-2.454-.943-3.454-2.776-3-5.5-.427-2.856.573-4.856 3-6ZM50.5 451.5c31.668-.167 63.335 0 95 .5 4.871 3.178 5.204 6.845 1 11-32 .667-64 .667-96 0-2.454-.943-3.454-2.776-3-5.5-.427-2.856.573-4.856 3-6Z" style="opacity:.881"/></svg>