<svg xmlns="http://www.w3.org/2000/svg" width="512" height="512" style="shape-rendering:geometricPrecision;text-rendering:geometricPrecision;image-rendering:optimizeQuality;fill-rule:evenodd;clip-rule:evenodd"><path d="M113.5 6.5c94.667-.167 189.334 0 284 .5 1.167.5 2 1.333 2.5 2.5.667 8.667.667 17.333 0 26-1.26 2.928-3.427 4.761-6.5 5.5-92.333.667-184.667.667-277 0-2.994-.406-5.161-1.906-6.5-4.5a169.166 169.166 0 0 1 0-26c.69-1.85 1.856-3.184 3.5-4Zm139 11c7.775-1.058 10.942 2.275 9.5 10-4.415 5.226-8.749 5.226-13 0-1.244-4.309-.077-7.642 3.5-10Z" style="opacity:.948"/><path d="M113.5 57.5c10.672-.166 21.339 0 32 .5 5.068 2.983 6.235 7.15 3.5 12.5-6.238 13.906-16.571 23.24-31 28-3.425-.42-6.091-2.086-8-5a256.122 256.122 0 0 1 0-32 19.565 19.565 0 0 0 3.5-4Z" style="opacity:.952"/><path d="M171.5 57.5c17.003-.167 34.003 0 51 .5a6.977 6.977 0 0 1 3.5 2.5 2187.75 2187.75 0 0 1 2 92 27.538 27.538 0 0 0 5 11c4.32 4.214 8.82 8.047 13.5 11.5A42003.7 42003.7 0 0 0 214 476.5c-.136 14.813-7.303 23.979-21.5 27.5a960.77 960.77 0 0 1-62 0c-10.205-1.871-17.038-7.704-20.5-17.5a33655.672 33655.672 0 0 1 0-367c.5-1.833 1.667-3 3.5-3.5 28.833-7.5 47-25.667 54.5-54.5.69-1.85 1.856-3.184 3.5-4Z" style="opacity:.991"/><path d="M246.5 57.5c5.676-.166 11.343 0 17 .5 2.167.833 3.667 2.333 4.5 4.5.667 29 .667 58 0 87-3.414 8.285-9.581 11.119-18.5 8.5-3.228-1.563-5.395-4.063-6.5-7.5a1935.283 1935.283 0 0 1 0-88 27.248 27.248 0 0 1 3.5-5Z" style="opacity:.946"/><path d="M288.5 57.5a480.984 480.984 0 0 1 53 1.5c7.593 29.926 26.259 48.926 56 57 1.833.5 3 1.667 3.5 3.5.667 122.333.667 244.667 0 367-2.744 7.745-7.911 13.245-15.5 16.5a585.347 585.347 0 0 1-67 1c-11.052-2.052-17.886-8.552-20.5-19.5a22134.805 22134.805 0 0 1-33-311c9.257-4.253 15.257-11.253 18-21l1-89c.599-2.754 2.099-4.754 4.5-6Z" style="opacity:.991"/><path d="M365.5 57.5c10.672-.166 21.339 0 32 .5l3.5 3.5a256.122 256.122 0 0 1 0 32c-2.983 5.068-7.149 6.235-12.5 3.5-13.907-6.238-23.24-16.572-28-31 .637-3.463 2.303-6.297 5-8.5Z" style="opacity:.952"/></svg>