<svg xmlns="http://www.w3.org/2000/svg" width="512" height="512" style="shape-rendering:geometricPrecision;text-rendering:geometricPrecision;image-rendering:optimizeQuality;fill-rule:evenodd;clip-rule:evenodd"><path d="M253.5-.5h19a494.491 494.491 0 0 1 8.5 71 23030.375 23030.375 0 0 1 2 282 395.445 395.445 0 0 0 13 97c2.725 10.115 7.059 19.449 13 28 10.102 7.305 20.935 13.472 32.5 18.5 7.971 4.002 8.971 9.168 3 15.5h-91c-3.426-.965-6.593-2.632-9.5-5a2121.318 2121.318 0 0 1-11-40c-2.808-8.29-7.141-15.624-13-22a527.723 527.723 0 0 0-1.5 49h-9a14094.089 14094.089 0 0 0-3.5-59 29.964 29.964 0 0 0-6-7c-3.028-5.273-3.028-10.606 0-16l18-32c3.161-10.073 2.828-20.073-1-30a2308.598 2308.598 0 0 1-18-51 189.08 189.08 0 0 1-6.5-52c1.967-28.501 3.967-57.001 6-85.5 1.502-37.677-10.498-70.177-36-97.5 11.544-11.036 21.378-23.37 29.5-37 8.593-11.054 19.76-18.22 33.5-21.5a269.02 269.02 0 0 1 28-5.5Z" style="opacity:.984"/></svg>