<svg xmlns="http://www.w3.org/2000/svg" width="512" height="512" style="shape-rendering:geometricPrecision;text-rendering:geometricPrecision;image-rendering:optimizeQuality;fill-rule:evenodd;clip-rule:evenodd"><path d="M201.5 9.5c36.002-.167 72.002 0 108 .5 1.167.5 2 1.333 2.5 2.5 2.076 25 14.243 43.167 36.5 54.5a2287.533 2287.533 0 0 1 70 30c26.118 17.073 37.618 41.24 34.5 72.5a74936.705 74936.705 0 0 1-30 328l-3.5 3.5a259.604 259.604 0 0 1-31 1.5l-27-.5c-4.067-.438-6.567-2.605-7.5-6.5-2.016-15.98-3.85-31.98-5.5-48a23.256 23.256 0 0 1 1-6.5c8.141.767 14.974-1.733 20.5-7.5a20.64 20.64 0 0 0 2-6 34562.014 34562.014 0 0 1 29.5-225c-3.999-7.943-7.833-7.943-11.5 0l-29 225-1.5 1.5c-69.333.667-138.667.667-208 0l-1.5-1.5-29-225c-3.667-7.943-7.501-7.943-11.5 0a34562.014 34562.014 0 0 1 29.5 225c.508 4.512 2.675 8.012 6.5 10.5a47.52 47.52 0 0 0 16 3 23.256 23.256 0 0 1 1 6.5c-1.65 16.02-3.484 32.02-5.5 48-.933 3.895-3.433 6.062-7.5 6.5-18 .667-36 .667-54 0-3.238-.232-5.738-1.732-7.5-4.5a74874.899 74874.899 0 0 1-30-328c-3.129-34.25 10.371-59.417 40.5-75.5a972.121 972.121 0 0 0 76-34c14.907-12.314 23.074-28.147 24.5-47.5.698-1.19 1.531-2.19 2.5-3Zm0 50c36.002-.167 72.002 0 108 .5 4.241 3.794 3.908 7.127-1 10a2809.11 2809.11 0 0 1-106 0c-4.974-3.04-5.307-6.54-1-10.5Z" style="opacity:.988"/></svg>