<svg xmlns="http://www.w3.org/2000/svg" width="512" height="512" style="shape-rendering:geometricPrecision;text-rendering:geometricPrecision;image-rendering:optimizeQuality;fill-rule:evenodd;clip-rule:evenodd"><path d="M246.5 46.5c40.575-3.668 72.409 10.998 95.5 44a107.114 107.114 0 0 1 12.5 32.5c31.005.167 62.005.667 93 1.5 9.082 29.5 18.082 59 27 88.5-12.004 44.34-40.671 70.007-86 77-24.664.5-49.331.667-74 .5v-33h-117v33c-25.669.167-51.335 0-77-.5-44.175-6.511-72.509-31.178-85-74 9.406-30.454 18.74-60.954 28-91.5a4329.553 4329.553 0 0 1 93-1.5c11.838-47.014 41.838-72.514 90-76.5Zm0 31c20.077-2.23 38.411 2.27 55 13.5 10.269 8.543 17.269 19.21 21 32-44.667.667-89.333.667-134 0 9.436-27.874 28.77-43.041 58-45.5Z" style="opacity:.988"/><path d="M511.5 341.5v27c-9.245 49.937-38.578 81.104-88 93.5a177.217 177.217 0 0 1-20 2c-98.667.667-197.333.667-296 0-46.425-1.947-79.592-23.78-99.5-65.5-3.794-9.86-6.628-19.86-8.5-30v-27a703.122 703.122 0 0 1 24-81c23.24 34.298 55.573 53.798 97 58.5 25.665.5 51.331.667 77 .5v33h117v-33c25.002.167 50.002 0 75-.5 42.427-4.697 75.094-24.864 98-60.5a974.843 974.843 0 0 1 24 83Z" style="opacity:.987"/><path d="M226.5 286.5h59v37h-59v-37Z" style="opacity:.967"/></svg>