<svg xmlns="http://www.w3.org/2000/svg" width="512" height="512" style="shape-rendering:geometricPrecision;text-rendering:geometricPrecision;image-rendering:optimizeQuality;fill-rule:evenodd;clip-rule:evenodd"><path d="M70.5-.5h147c10.983 3.484 18.15 10.818 21.5 22 .167 108.668.667 217.335 1.5 326 46.567 15.8 93.234 31.3 140 46.5 30.554 12.59 44.054 35.424 40.5 68.5-6.348 26.181-22.515 42.514-48.5 49h-22a62748.719 62748.719 0 0 1-190-62.5c-22.053-8.053-35.553-23.553-40.5-46.5a34531.488 34531.488 0 0 0-2-367C113.167 17.333 101.667 5.833 83.5 1c-4.52-.175-8.853-.675-13-1.5Z" style="opacity:.995"/><path d="M260.5-.5h47c10.983 3.484 18.15 10.818 21.5 22 .167 87.002.667 174.002 1.5 261 46.567 15.8 93.234 31.3 140 46.5 22.066 8.225 35.733 23.725 41 46.5v22c-8.126 31.454-28.46 47.787-61 49-3.49-37.497-22.49-63.663-57-78.5a5378.295 5378.295 0 0 0-124-40.5c.167-99.334 0-198.667-.5-298-.104-10.808-2.938-20.808-8.5-30Z" style="opacity:.989"/><path d="M68.5 29.5c9.322-2.249 16.155.751 20.5 9 .5 117.666.667 235.333.5 353-25.002.167-50.002 0-75-.5 22.893-1.561 37.393-13.394 43.5-35.5a25876.5 25876.5 0 0 0 2-317c1.688-4.185 4.521-7.185 8.5-9Z" style="opacity:.994"/><path d="M-.5 74.5h30v45h-30v-45Z" style="opacity:1"/><path d="M-.5 149.5h30c.167 67.667 0 135.334-.5 203-5.152 8.975-12.652 11.475-22.5 7.5-2.912-2.015-5.245-4.515-7-7.5v-203Z" style="opacity:.996"/></svg>