<svg xmlns="http://www.w3.org/2000/svg" width="512" height="512" style="shape-rendering:geometricPrecision;text-rendering:geometricPrecision;image-rendering:optimizeQuality;fill-rule:evenodd;clip-rule:evenodd"><path d="M215.5-.5h27c2.401 1.246 3.901 3.246 4.5 6l1 217c5 8 10 8 15 0l1-218c1.025-2.187 2.525-3.854 4.5-5h27c8.164 2.659 13.997 7.992 17.5 16a115.296 115.296 0 0 1 1.5 25 397.99 397.99 0 0 1 62 9.5c12.079 5.752 19.246 15.252 21.5 28.5a11256.469 11256.469 0 0 1 6 212c-1.227 2.226-3.061 3.726-5.5 4.5a256.122 256.122 0 0 1-32 0c-2.5-1.167-4.333-3-5.5-5.5l-1-164c-5.465-6.885-10.465-6.552-15 1a7917.292 7917.292 0 0 0 0 178 16596.092 16596.092 0 0 1 7 202c-1.025 2.187-2.525 3.854-4.5 5h-72c-2.47-1.582-3.97-3.915-4.5-7a6660.825 6660.825 0 0 0-15.5-114 6660.825 6660.825 0 0 0-15.5 114c-.53 3.085-2.03 5.418-4.5 7h-72c-4.425-3.083-6.091-7.416-5-13a24671.335 24671.335 0 0 1 9.5-222 6.978 6.978 0 0 1 3.5-2.5l125-1c4.667-.667 7.333-3.333 8-8-.861-2.868-2.528-5.202-5-7l-125-1c-3.52-.504-6.02-2.337-7.5-5.5l-1-125c-4.535-7.552-9.535-7.885-15-1l-1 164c-1.167 2.5-3 4.333-5.5 5.5a256.122 256.122 0 0 1-32 0c-2.439-.774-4.273-2.274-5.5-4.5a11256.469 11256.469 0 0 1 6-212c2.287-13.274 9.454-22.774 21.5-28.5a397.99 397.99 0 0 1 62-9.5c-.406-8.417.094-16.75 1.5-25 3.503-8.008 9.336-13.341 17.5-16Z" style="opacity:.985"/></svg>