<svg xmlns="http://www.w3.org/2000/svg" width="512" height="512" style="shape-rendering:geometricPrecision;text-rendering:geometricPrecision;image-rendering:optimizeQuality;fill-rule:evenodd;clip-rule:evenodd"><path d="M225.5-.5h26c13.62 1.907 26.954 5.407 40 10.5a45.46 45.46 0 0 1 11 6.5 411.203 411.203 0 0 1 5 47 4792.149 4792.149 0 0 0-46-3 174.319 174.319 0 0 0-4-24.5l1-2.5a146.187 146.187 0 0 1 26-10.5c1.473-.71 2.14-1.876 2-3.5-26.463 7.729-49.796 20.895-70 39.5a750.338 750.338 0 0 0-48 0 205.718 205.718 0 0 0-22.5 2.5l-2.5-1c17.817-20.33 38.15-37.497 61-51.5 7.06-3.286 14.06-6.453 21-9.5Z" style="opacity:.959"/><path d="M409.5 27.5c19.815-.384 39.149 2.45 58 8.5a101.183 101.183 0 0 1 17 8.5c13.285 92.813 4.452 183.48-26.5 272-12.022 32.048-27.688 62.048-47 90a598.012 598.012 0 0 1-9-96c18.993-43.648 32.326-88.981 40-136 6.656-37.194 5.823-74.194-2.5-111a4.932 4.932 0 0 1 1-2.5 126.118 126.118 0 0 1 28-9.5v-3c-23.296 5.565-44.463 15.565-63.5 30a430.205 430.205 0 0 0-57-11l-1.5-1c17.974-17.824 38.974-30.824 63-39Z" style="opacity:.969"/><path d="M161.5 62.5a1430.26 1430.26 0 0 1 193 9.5 939.945 939.945 0 0 1 49 8.5 1817.07 1817.07 0 0 0-5.5 235 726.587 726.587 0 0 0 19 139 253.545 253.545 0 0 0 9.5 29.5 432.463 432.463 0 0 1-104 22.5 348.304 348.304 0 0 1-32-3.5c-4.993-8.969-8.827-18.469-11.5-28.5a444.721 444.721 0 0 1-14-94 1742.926 1742.926 0 0 0-1.5-59 2249.43 2249.43 0 0 0-195.5-21 608.767 608.767 0 0 1 8.5-96 139.924 139.924 0 0 0 20 10 614.704 614.704 0 0 1 1.5 35c-1.164 20.843 7.002 36.676 24.5 47.5 5.462 1.872 9.962.372 13.5-4.5a41.026 41.026 0 0 0 6-16 660.818 660.818 0 0 1-2.5-49 361.56 361.56 0 0 0 83 4 250.851 250.851 0 0 0 4.5 56c3.982 7.989 9.482 14.823 16.5 20.5 6.291 5.01 12.124 4.51 17.5-1.5a48.727 48.727 0 0 0 6-15 1065.494 1065.494 0 0 1-2.5-64 225.283 225.283 0 0 0 24-4l1 1.5c-5.497 71.227-1.997 142.061 10.5 212.5.64 5.421 1.807 5.921 3.5 1.5-12.358-71.712-16.025-143.879-11-216.5a31.309 31.309 0 0 0 12.5-3 2063.915 2063.915 0 0 1 7-77c2.774-20.61 13.274-35.944 31.5-46-.535-1.601-1.535-2.101-3-1.5-14.495 7.496-24.328 18.996-29.5 34.5a757.944 757.944 0 0 0-8.5 88 1809.248 1809.248 0 0 1-37 7 133.311 133.311 0 0 1 2-31c-1.08-3.23-3.413-5.064-7-5.5-12.628-1.886-23.795 1.281-33.5 9.5a232.22 232.22 0 0 0-3.5 31 450.508 450.508 0 0 1-83-4.5c-1.537-15.043-.87-30.043 2-45a3.943 3.943 0 0 0-1-2c-13.978-5.002-26.978-3.002-39 6a304.287 304.287 0 0 0-5 28.5c-10.569-4.53-20.402-10.196-29.5-17-.7-29.096 3.633-57.429 13-85 8.423-21.484 23.923-34.984 46.5-40.5 11.338-2.902 22.672-5.069 34-6.5Z" style="opacity:.983"/><path d="M122.5 177.5a45.902 45.902 0 0 1 15 1.5 6.293 6.293 0 0 1 1 3 297.23 297.23 0 0 0-3 40.5 12865.6 12865.6 0 0 1 2.5 57c-4.56 17.594-12.894 19.594-25 6l-8-12c-5.826-29.315-5.826-58.649 0-88 5.432-3.746 11.265-6.412 17.5-8Z" style="opacity:.959"/><path d="M249.5 190.5c5.216-.366 10.216.468 15 2.5-4.983 31.262-4.983 62.596 0 94-.889 7.685-3.889 14.352-9 20-3.952.912-7.619.245-11-2a100.815 100.815 0 0 1-13.5-16.5c-5.664-29.571-5.997-59.238-1-89 5.825-4.655 12.325-7.655 19.5-9Z" style="opacity:.96"/><path d="M242.5 511.5h-6a388.645 388.645 0 0 1-21.5-84c-3.305-26.79 1.195-52.123 13.5-76-1.017-2.528-2.184-2.528-3.5 0-9.852 18.752-14.685 38.752-14.5 60a194.53 194.53 0 0 1 1 22c-31.763 6.005-63.763 7.839-96 5.5-27.79-2.197-54.123-9.53-79-22a105.108 105.108 0 0 1-14.5-9.5c-3.408-25.13-1.408-49.797 6-74 6.894-18.562 20.227-28.228 40-29a2607.455 2607.455 0 0 1 192.5 19 746.013 746.013 0 0 0 5.5 104c3.379 26.185 9.879 51.518 19.5 76a955.218 955.218 0 0 0-43 8Z" style="opacity:.983"/><path d="M232.5 511.5h-15c-52.485-4.2-105.152-8.033-158-11.5-7.42-24.349-11.42-49.182-12-74.5 23.941 10.223 48.941 16.056 75 17.5 29.635 1.808 58.968-.359 88-6.5 1.147.318 1.981.984 2.5 2a475.866 475.866 0 0 0 19.5 73Z" style="opacity:.976"/></svg>