<svg xmlns="http://www.w3.org/2000/svg" width="512" height="512" style="shape-rendering:geometricPrecision;text-rendering:geometricPrecision;image-rendering:optimizeQuality;fill-rule:evenodd;clip-rule:evenodd"><path d="M62.5 120.5c2.357-.163 4.69.003 7 .5a5424.223 5424.223 0 0 1 78.5 26.5c.52 1.789.187 3.456-1 5a2442.564 2442.564 0 0 1-46 82L42.5 215c-6.984-3.801-9.817-9.635-8.5-17.5a4924.533 4924.533 0 0 1 17-67c2.245-5.343 6.078-8.676 11.5-10Z" style="opacity:.974"/><path d="M196.5 130.5a40.914 40.914 0 0 1 9 .5l51 17c6.161 2.804 9.494 7.637 10 14.5l-49 138c-39.339.333-78.672 0-118-1a7933.105 7933.105 0 0 1 91-165.5c1.932-1.459 3.932-2.625 6-3.5Z" style="opacity:.978"/><path d="M372.5 188.5c2.357-.163 4.69.003 7 .5a1983.554 1983.554 0 0 1 67 23c4.646 5.311 6.146 11.477 4.5 18.5a3721.572 3721.572 0 0 1-11.5 69c-44.328 1-88.662 1.333-133 1a7598.02 7598.02 0 0 1 54.5-102c2.818-4.661 6.651-7.995 11.5-10Z" style="opacity:.974"/><path d="M511.5 338.5v26c-4.445 14.27-14.112 22.77-29 25.5-151.333.667-302.667.667-454 0-14.888-2.73-24.555-11.23-29-25.5v-26c2.552-3.716 5.885-6.549 10-8.5 164-.667 328-.667 492 0 4.115 1.951 7.448 4.784 10 8.5Z" style="opacity:.986"/></svg>