<svg xmlns="http://www.w3.org/2000/svg" width="512" height="512" style="shape-rendering:geometricPrecision;text-rendering:geometricPrecision;image-rendering:optimizeQuality;fill-rule:evenodd;clip-rule:evenodd"><path d="M91.5 39.5a53789.5 53789.5 0 0 1 328 .5c1.833.5 3 1.667 3.5 3.5.5 19.997.667 39.997.5 60h-135c-2.6-9.19-6.266-17.857-11-26l-13 5.5a153.52 153.52 0 0 1 8 20.5h-34a153.52 153.52 0 0 1 8-20.5l-13-5.5c-4.734 8.143-8.4 16.81-11 26h-135c-.167-20.003 0-40.003.5-60 .69-1.85 1.856-3.184 3.5-4Z" style="opacity:.996"/><path d="M84.5 119.5a484.863 484.863 0 0 1 44 1c-3.455 17.217-10.288 32.884-20.5 47-11.16 12.825-24.994 20.159-41.5 22l18-70Z" style="opacity:.957"/><path d="M143.5 119.5c24.002-.167 48.002 0 72 .5a1200.626 1200.626 0 0 1-15 36l13 5.5c1.299-.59 2.132-1.59 2.5-3a1955.227 1955.227 0 0 1 15.5-38.5c16-.667 32-.667 48 0a1955.227 1955.227 0 0 1 15.5 38.5c.368 1.41 1.201 2.41 2.5 3l13-5.5a1200.626 1200.626 0 0 1-15-36 864.828 864.828 0 0 1 72 .5c3.817 20.957 11.984 39.957 24.5 57 15.157 16.662 33.991 25.995 56.5 28a1681 1681 0 0 1 24.5 126 567.657 567.657 0 0 1 6 104 30.64 30.64 0 0 1-8.5 8.5c-23.477 16.051-49.477 25.384-78 28-36.415 4.904-72.415 2.904-108-6a60.107 60.107 0 0 1-11.5-4.5 22.981 22.981 0 0 1-2-5 8165.894 8165.894 0 0 0-15.5-140 8165.894 8165.894 0 0 0-15.5 140 14.444 14.444 0 0 1-2.5 5.5c-16.101 6.088-32.768 9.754-50 11a351.11 351.11 0 0 1-88-4c-23.8-4.478-45.133-14.144-64-29a11.529 11.529 0 0 1-3.5-4.5c-1.097-49.464 3.236-98.464 13-147a3664.271 3664.271 0 0 1 17.5-83c36.26-4.385 60.76-23.719 73.5-58a216.807 216.807 0 0 0 7.5-28Z" style="opacity:.993"/><path d="M382.5 119.5a484.862 484.862 0 0 1 44 1c6.665 23.32 12.332 46.653 17 70-25.156-4.99-42.656-19.323-52.5-43a150.624 150.624 0 0 1-8.5-28Z" style="opacity:.958"/></svg>