<svg xmlns="http://www.w3.org/2000/svg" width="512" height="512" style="shape-rendering:geometricPrecision;text-rendering:geometricPrecision;image-rendering:optimizeQuality;fill-rule:evenodd;clip-rule:evenodd"><path d="M235.5-.5h40c12.749 1.853 25.415 4.686 38 8.5-28.519 10.73-57.852 13.396-88 8a112.133 112.133 0 0 1-28-8c12.585-3.814 25.251-6.647 38-8.5Z" style="opacity:.924"/><path d="M184.5 14.5c20.818 8.621 42.485 13.621 65 15a256.824 256.824 0 0 1 1 32c-28.271-1.067-54.938-8.067-80-21 4.679-8.694 9.346-17.36 14-26ZM324.5 14.5c.996-.086 1.829.248 2.5 1l13.5 25c-25.062 12.933-51.729 19.933-80 21a256.824 256.824 0 0 1 1-32c22.043-1.095 43.043-6.095 63-15Z" style="opacity:.948"/><path d="M162.5 48.5c27.578 14.228 56.911 21.895 88 23v74c-47.263 7.677-94.263 6.343-141-4a317.936 317.936 0 0 0-7-67.5l1-2.5a626.887 626.887 0 0 0 59-23Z" style="opacity:.98"/><path d="M346.5 48.5a1114.78 1114.78 0 0 0 61 23l1 2.5a317.936 317.936 0 0 0-7 67.5c-46.737 10.343-93.737 11.677-141 4v-74c30.628-.822 59.294-8.488 86-23Z" style="opacity:.979"/><path d="M90.5 76.5c1.25.077 2.083.744 2.5 2a268.468 268.468 0 0 1 5.5 63 148.8 148.8 0 0 1-34 1.5c-5.976-.711-11.31-2.878-16-6.5 7.428-20.707 18.761-38.874 34-54.5a59.702 59.702 0 0 1 8-5.5Z" style="opacity:.946"/><path d="M418.5 76.5c10.167 4.995 18.334 12.328 24.5 22a204.401 204.401 0 0 1 19.5 38c-4.691 3.622-10.024 5.789-16 6.5-11.398.8-22.731.3-34-1.5a262.785 262.785 0 0 1 6-65Z" style="opacity:.947"/><path d="M42.5 145.5c16.409 8.603 33.742 10.936 52 7a251.156 251.156 0 0 0-5 36 229.813 229.813 0 0 0 6 39c-25.011 1.832-48.511-3.168-70.5-15-.18-23.949 5.652-46.282 17.5-67ZM467.5 145.5c12.532 20.449 18.699 42.782 18.5 67-21.989 11.832-45.489 16.832-70.5 15a226.373 226.373 0 0 0 6-39.5 260.157 260.157 0 0 0-5-35.5c13.798 3.067 27.464 2.567 41-1.5a71.324 71.324 0 0 0 10-5.5Z" style="opacity:.965"/><path d="M106.5 151.5c47.672 10.038 95.672 11.705 144 5v75c-47.95 7.617-95.616 6.117-143-4.5-5.101-12.455-7.434-25.455-7-39-.182-12.564 1.818-24.731 6-36.5ZM402.5 151.5c.996-.086 1.829.248 2.5 1 7.753 25.065 7.253 49.898-1.5 74.5-47.384 10.617-95.05 12.117-143 4.5v-75c38.311 5.091 76.644 5.257 115 .5 9.263-1.206 18.263-3.039 27-5.5Z" style="opacity:.977"/><path d="M21.5 223.5a242.69 242.69 0 0 0 34 11.5 375.394 375.394 0 0 0 40 3.5c-7.266 24.499-7.266 49.165 0 74-27.29.044-53.123-5.956-77.5-18a133.887 133.887 0 0 1-2-37 432.649 432.649 0 0 1 5.5-34ZM485.5 223.5h4c4.876 19.719 6.709 39.719 5.5 60a73.619 73.619 0 0 1-2 11c-24.382 12.053-50.216 18.053-77.5 18 7.266-24.835 7.266-49.501 0-74 19.535.633 38.535-2.201 57-8.5 4.704-1.685 9.038-3.852 13-6.5Z" style="opacity:.968"/><path d="M105.5 237.5c47.773 10.274 95.773 11.607 144 4 1 25.325 1.333 50.658 1 76-38.31 5.091-76.643 5.257-115 .5a296.928 296.928 0 0 1-28-5.5c-2.26-4.024-3.76-8.358-4.5-13-3.865-20.872-3.032-41.538 2.5-62ZM401.5 237.5h4c5.532 20.462 6.365 41.128 2.5 62-.74 4.642-2.24 8.976-4.5 13-35.878 8.295-72.211 11.129-109 8.5a1763.323 1763.323 0 0 1-34-3.5c-.333-25.342 0-50.675 1-76 37.231 6.055 74.564 6.555 112 1.5 9.6-1.154 18.933-2.987 28-5.5Z" style="opacity:.979"/><path d="M15.5 305.5c25.433 11.221 52.1 17.221 80 18-7.309 24.849-7.309 49.849 0 75-29.908 3.937-57.574-2.063-83-18-6.123-25.299-5.123-50.299 3-75Z" style="opacity:.972"/><path d="M492.5 305.5c1.624-.14 2.79.527 3.5 2 7.642 24.103 8.475 48.437 2.5 73-25.46 15.947-53.127 21.947-83 18 7.309-25.151 7.309-50.151 0-75 21.598-.632 42.598-4.466 63-11.5a117.002 117.002 0 0 0 14-6.5Z" style="opacity:.973"/><path d="M105.5 323.5c48.097 10.143 96.43 11.476 145 4 .652 25.395-.015 50.561-2 75.5-47.619 7.106-94.952 5.606-142-4.5-7.609-24.89-7.942-49.89-1-75ZM399.5 323.5h6c6.94 24.774 6.606 49.44-1 74a285.83 285.83 0 0 1-62 9.5 357.254 357.254 0 0 1-81-4.5c-1-24.991-1.333-49.991-1-75 46.732 7.6 93.066 6.266 139-4Z" style="opacity:.979"/><path d="M10.5 391.5c26.434 14.787 54.767 20.954 85 18.5-3.83 11.323-5.498 22.99-5 35a144.409 144.409 0 0 0 5 39.5c-29.969 3.973-58.136-1.361-84.5-16-4.11-10.6-5.943-21.6-5.5-33a248.088 248.088 0 0 1 5-44ZM499.5 391.5c5.846 20.563 7.346 41.563 4.5 63a54.804 54.804 0 0 1-4 14c-26.364 14.639-54.531 19.973-84.5 16 4.643-18.049 6.143-36.383 4.5-55a101.988 101.988 0 0 0-4.5-19.5c30.029 2.563 58.029-3.604 84-18.5Z" style="opacity:.971"/><path d="M106.5 408.5c47.669 10.542 95.669 12.208 144 5v75c-47.949 7.684-95.616 6.184-143-4.5-5.06-12.29-7.393-25.123-7-38.5-.202-12.733 1.798-25.066 6-37ZM403.5 408.5c1.466.847 2.3 2.18 2.5 4 6.327 24.151 5.827 48.151-1.5 72-47.764 10.164-95.764 11.498-144 4v-75c48.098 7.231 95.765 5.565 143-5Z" style="opacity:.978"/><path d="M76.5 511.5h-9a3293.226 3293.226 0 0 0-47-9 4.451 4.451 0 0 1-1.5-2 128.43 128.43 0 0 1-.5-16c19.63 7.426 39.963 11.593 61 12.5a70.26 70.26 0 0 1-3 14.5Z" style="opacity:.917"/><path d="M443.5 511.5h-9a70.274 70.274 0 0 1-3-14.5c21.037-.907 41.37-5.074 61-12.5a128.507 128.507 0 0 1-.5 16 4.457 4.457 0 0 1-1.5 2 3293.226 3293.226 0 0 0-47 9Z" style="opacity:.915"/></svg>