<svg width="512" height="512" style="enable-background:new 0 0 512 512" xml:space="preserve" xmlns="http://www.w3.org/2000/svg"><path d="M312.016 222.911c-7.139-7.139-18.714-7.139-25.854 0l-47.398 47.398-12.927-12.927c-7.139-7.139-18.714-7.139-25.854 0-7.139 7.139-7.139 18.714 0 25.854l25.854 25.854c7.139 7.139 18.714 7.139 25.854 0l60.325-60.325c7.139-7.14 7.139-18.715 0-25.854z"/><path d="M256 0C114.615 0 0 114.615 0 256s114.615 256 256 256 256-114.615 256-256S397.385 0 256 0zm134.062 299.737a73.126 73.126 0 0 1-29.747 58.87l-71.317 52.549a55.628 55.628 0 0 1-65.997 0l-71.317-52.549a73.126 73.126 0 0 1-29.747-58.87V173.359c0-15.951 10.341-30.062 25.552-34.865l72.796-22.988a118.598 118.598 0 0 1 71.429-.001l72.796 22.988c15.211 4.803 25.552 18.914 25.552 34.865v126.379z"/></svg>